<?xml version="1.0" encoding="UTF-8" standalone="no"?>
<!DOCTYPE svg PUBLIC "-//W3C//DTD SVG 1.1//EN" "http://www.w3.org/Graphics/SVG/1.1/DTD/svg11.dtd">
<svg width="100%" height="100%" viewBox="0 0 103 38" version="1.1" xmlns="http://www.w3.org/2000/svg" xmlns:xlink="http://www.w3.org/1999/xlink" xml:space="preserve" xmlns:serif="http://www.serif.com/" style="fill-rule:evenodd;clip-rule:evenodd;stroke-linejoin:round;stroke-miterlimit:2;">
    <g transform="matrix(0.519145,0,0,0.519145,-0.579447,1.6405)">
        <g transform="matrix(4.16667,0,0,4.16667,-146.312,-509.431)">
            <rect x="35.383" y="122.263" width="16.05" height="16.05" style="fill:rgb(73,91,88);"/>
        </g>
        <g transform="matrix(4.16667,0,0,4.16667,50.6526,21.6566)">
            <path d="M0.268,-2.124L0.268,-0.652L0.207,-0.652L-0.567,-2.124L-1.097,-2.124L-1.097,0L-0.703,0L-0.703,-1.471L-0.642,-1.471L0.131,0L0.662,0L0.662,-2.124L0.268,-2.124Z" style="fill:white;fill-rule:nonzero;"/>
        </g>
        <g transform="matrix(4.16667,0,0,4.16667,23.5619,36.1333)">
            <path d="M0.268,-2.124L1.868,-2.124L1.868,-1.76L0.662,-1.76L0.662,-1.244L1.807,-1.244L1.807,-0.88L0.662,-0.88L0.662,-0.364L1.868,-0.364L1.868,0L0.268,0L0.268,-2.124Z" style="fill:white;fill-rule:nonzero;"/>
        </g>
        <g transform="matrix(4.16667,0,0,4.16667,50.6526,36.1333)">
            <path d="M0.268,-2.124L0.268,-1.274L-0.688,-1.274L-0.688,-2.124L-1.082,-2.124L-1.082,0L-0.688,0L-0.688,-0.88L0.268,-0.88L0.268,0L0.662,0L0.662,-2.124L0.268,-2.124Z" style="fill:white;fill-rule:nonzero;"/>
        </g>
        <g transform="matrix(4.16667,0,0,4.16667,15.6741,50.7679)">
            <path d="M0.268,-2.124L0.662,-2.124L0.662,-0.379L1.663,-0.379L1.663,0L0.268,0L0.268,-2.124Z" style="fill:white;fill-rule:nonzero;"/>
        </g>
        <g transform="matrix(4.16667,0,0,4.16667,26.8283,50.7679)">
            <path d="M0.268,-2.124L0.844,-2.124L1.603,0L1.163,0L1.002,-0.455L0.11,-0.455L-0.051,0L-0.491,0L0.268,-2.124ZM0.875,-0.819L0.586,-1.669L0.526,-1.669L0.238,-0.819L0.875,-0.819Z" style="fill:white;fill-rule:nonzero;"/>
        </g>
        <g transform="matrix(4.16667,0,0,4.16667,35.0109,50.7679)">
            <path d="M0.268,-2.124L1.384,-2.124C1.475,-2.124 1.558,-2.109 1.633,-2.08C1.708,-2.05 1.772,-2.01 1.824,-1.959C1.877,-1.907 1.918,-1.845 1.947,-1.772C1.977,-1.699 1.991,-1.619 1.991,-1.532C1.991,-1.451 1.98,-1.382 1.958,-1.326C1.936,-1.269 1.911,-1.223 1.885,-1.186C1.853,-1.144 1.817,-1.107 1.779,-1.077L1.779,-1.062C1.823,-1.034 1.864,-0.997 1.9,-0.953C1.931,-0.914 1.958,-0.866 1.984,-0.807C2.009,-0.748 2.022,-0.677 2.022,-0.592C2.022,-0.505 2.007,-0.425 1.978,-0.352C1.948,-0.279 1.907,-0.217 1.855,-0.165C1.802,-0.114 1.738,-0.073 1.664,-0.044C1.589,-0.015 1.506,0 1.415,0L0.268,0L0.268,-2.124ZM1.339,-1.244C1.416,-1.244 1.478,-1.268 1.526,-1.315C1.573,-1.363 1.597,-1.425 1.597,-1.502C1.597,-1.587 1.573,-1.653 1.526,-1.702C1.478,-1.751 1.416,-1.775 1.339,-1.775L0.662,-1.775L0.662,-1.244L1.339,-1.244ZM1.369,-0.349C1.438,-0.349 1.498,-0.375 1.55,-0.428C1.601,-0.48 1.627,-0.545 1.627,-0.622C1.627,-0.699 1.601,-0.764 1.55,-0.816C1.498,-0.869 1.438,-0.895 1.369,-0.895L0.662,-0.895L0.662,-0.349L1.369,-0.349Z" style="fill:white;fill-rule:nonzero;"/>
        </g>
        <g transform="matrix(4.16667,0,0,4.16667,15.6741,36.1333)">
            <path d="M0.268,-2.124L0.268,0L0.662,0L0.662,-1.745L1.342,-1.745L1.342,-2.124L0.268,-2.124Z" style="fill:white;fill-rule:nonzero;"/>
        </g>
        <g transform="matrix(4.16667,0,0,4.16667,-146.312,-520.163)">
            <rect x="38.459" y="131.387" width="0.396" height="0.379" style="fill:white;"/>
        </g>
        <g transform="matrix(4.16667,0,0,4.16667,-146.312,-466.992)">
            <rect x="46.189" y="125.015" width="1.745" height="0.362" style="fill:white;"/>
        </g>
        <g transform="matrix(4.16667,0,0,4.16667,37.7625,14.2766)">
            <path d="M0.268,1.425C-0.126,1.425 -0.444,1.106 -0.444,0.712C-0.444,0.319 -0.126,-0 0.268,-0C0.661,-0 0.98,0.319 0.98,0.712C0.98,1.106 0.661,1.425 0.268,1.425M0.268,-0.381C-0.336,-0.381 -0.825,0.108 -0.825,0.712C-0.825,1.316 -0.336,1.806 0.268,1.806C0.872,1.806 1.361,1.316 1.361,0.712C1.361,0.108 0.872,-0.381 0.268,-0.381" style="fill:white;fill-rule:nonzero;"/>
        </g>
        <g transform="matrix(4.16667,0,0,4.16667,26.6624,14.2766)">
            <path d="M0.268,1.425C-0.126,1.425 -0.444,1.106 -0.444,0.712C-0.444,0.319 -0.126,-0 0.268,-0C0.55,-0 0.793,0.164 0.909,0.401L1.316,0.401C1.182,-0.051 0.764,-0.381 0.268,-0.381C-0.336,-0.381 -0.825,0.108 -0.825,0.712C-0.825,1.316 -0.336,1.806 0.268,1.806C0.764,1.806 1.182,1.475 1.316,1.023L0.909,1.023C0.793,1.261 0.55,1.425 0.268,1.425" style="fill:white;fill-rule:nonzero;"/>
        </g>
        <g transform="matrix(4.16667,0,0,4.16667,37.5814,28.7404)">
            <path d="M0.268,1.425C-0.126,1.425 -0.444,1.106 -0.444,0.712C-0.444,0.319 -0.126,-0 0.268,-0C0.55,-0 0.793,0.164 0.909,0.401L1.316,0.401C1.182,-0.051 0.764,-0.381 0.268,-0.381C-0.336,-0.381 -0.825,0.108 -0.825,0.712C-0.825,1.316 -0.336,1.806 0.268,1.806C0.764,1.806 1.182,1.475 1.316,1.023L0.909,1.023C0.793,1.261 0.55,1.425 0.268,1.425" style="fill:white;fill-rule:nonzero;"/>
        </g>
        <g transform="matrix(85.3333,0,0,85.3333,73.365,30.648)">
            <path d="M0.283,0L0.283,-0.14L0.318,-0.14L0.369,-0.043L0.373,-0.043L0.373,-0.14L0.398,-0.14L0.398,0L0.364,0L0.313,-0.097L0.309,-0.097L0.309,0L0.283,0Z" style="fill:rgb(35,31,32);fill-rule:nonzero;"/>
        </g>
        <g transform="matrix(85.3333,0,0,85.3333,85.7867,30.648)">
            <path d="M0.315,-0.036C0.322,-0.027 0.332,-0.023 0.345,-0.023C0.357,-0.023 0.367,-0.027 0.375,-0.036C0.383,-0.044 0.387,-0.056 0.387,-0.07C0.387,-0.084 0.383,-0.095 0.375,-0.104C0.367,-0.112 0.357,-0.117 0.345,-0.117C0.332,-0.117 0.322,-0.112 0.315,-0.104C0.307,-0.095 0.303,-0.084 0.303,-0.07C0.303,-0.056 0.307,-0.044 0.315,-0.036ZM0.296,-0.121C0.309,-0.135 0.325,-0.142 0.345,-0.142C0.364,-0.142 0.38,-0.135 0.393,-0.121C0.406,-0.108 0.412,-0.091 0.412,-0.07C0.412,-0.049 0.406,-0.032 0.393,-0.018C0.38,-0.005 0.364,0.002 0.345,0.002C0.325,0.002 0.309,-0.005 0.296,-0.018C0.283,-0.032 0.277,-0.049 0.277,-0.07C0.277,-0.091 0.283,-0.108 0.296,-0.121Z" style="fill:rgb(35,31,32);fill-rule:nonzero;"/>
        </g>
        <g transform="matrix(85.3333,0,0,85.3333,98.8888,30.648)">
            <rect x="0.277" y="-0.069" width="0.068" height="0.023" style="fill:rgb(35,31,32);"/>
        </g>
        <g transform="matrix(85.3333,0,0,85.3333,106.206,30.648)">
            <path d="M0.381,-0.05L0.407,-0.05C0.407,-0.046 0.405,-0.042 0.404,-0.038C0.402,-0.034 0.4,-0.03 0.397,-0.025C0.393,-0.02 0.389,-0.015 0.385,-0.012C0.381,-0.008 0.375,-0.005 0.368,-0.002C0.361,0.001 0.353,0.002 0.345,0.002C0.325,0.002 0.309,-0.005 0.296,-0.018C0.283,-0.032 0.277,-0.049 0.277,-0.07C0.277,-0.091 0.283,-0.108 0.296,-0.121C0.309,-0.135 0.325,-0.142 0.345,-0.142C0.352,-0.142 0.36,-0.14 0.367,-0.138C0.373,-0.136 0.379,-0.133 0.383,-0.129C0.388,-0.126 0.392,-0.121 0.395,-0.117C0.399,-0.112 0.401,-0.107 0.403,-0.103C0.405,-0.099 0.406,-0.095 0.407,-0.091L0.381,-0.091C0.378,-0.098 0.374,-0.104 0.368,-0.109C0.362,-0.114 0.354,-0.117 0.345,-0.117C0.332,-0.117 0.322,-0.112 0.315,-0.104C0.307,-0.095 0.303,-0.084 0.303,-0.07C0.303,-0.056 0.307,-0.044 0.315,-0.036C0.322,-0.027 0.332,-0.023 0.345,-0.023C0.354,-0.023 0.362,-0.026 0.368,-0.031C0.374,-0.036 0.378,-0.042 0.381,-0.05Z" style="fill:rgb(35,31,32);fill-rule:nonzero;"/>
        </g>
        <g transform="matrix(85.3333,0,0,85.3333,118.712,30.648)">
            <path d="M0.315,-0.036C0.322,-0.027 0.332,-0.023 0.345,-0.023C0.357,-0.023 0.367,-0.027 0.375,-0.036C0.383,-0.044 0.387,-0.056 0.387,-0.07C0.387,-0.084 0.383,-0.095 0.375,-0.104C0.367,-0.112 0.357,-0.117 0.345,-0.117C0.332,-0.117 0.322,-0.112 0.315,-0.104C0.307,-0.095 0.303,-0.084 0.303,-0.07C0.303,-0.056 0.307,-0.044 0.315,-0.036ZM0.296,-0.121C0.309,-0.135 0.325,-0.142 0.345,-0.142C0.364,-0.142 0.38,-0.135 0.393,-0.121C0.406,-0.108 0.412,-0.091 0.412,-0.07C0.412,-0.049 0.406,-0.032 0.393,-0.018C0.38,-0.005 0.364,0.002 0.345,0.002C0.325,0.002 0.309,-0.005 0.296,-0.018C0.283,-0.032 0.277,-0.049 0.277,-0.07C0.277,-0.091 0.283,-0.108 0.296,-0.121Z" style="fill:rgb(35,31,32);fill-rule:nonzero;"/>
        </g>
        <g transform="matrix(85.3333,0,0,85.3333,131.814,30.648)">
            <path d="M0.283,0L0.283,-0.14L0.334,-0.14C0.353,-0.14 0.369,-0.133 0.382,-0.12C0.395,-0.106 0.401,-0.09 0.401,-0.07C0.401,-0.05 0.395,-0.034 0.382,-0.02C0.369,-0.007 0.353,0 0.334,0L0.283,0ZM0.309,-0.025L0.334,-0.025C0.346,-0.025 0.356,-0.029 0.364,-0.037C0.372,-0.045 0.376,-0.056 0.376,-0.07C0.376,-0.083 0.372,-0.094 0.364,-0.102C0.356,-0.11 0.346,-0.115 0.334,-0.115L0.309,-0.115L0.309,-0.025Z" style="fill:rgb(35,31,32);fill-rule:nonzero;"/>
        </g>
        <g transform="matrix(85.3333,0,0,85.3333,143.981,30.648)">
            <path d="M0.283,0L0.283,-0.14L0.377,-0.14L0.377,-0.116L0.309,-0.116L0.309,-0.082L0.373,-0.082L0.373,-0.058L0.309,-0.058L0.309,-0.024L0.377,-0.024L0.377,0L0.283,0Z" style="fill:rgb(35,31,32);fill-rule:nonzero;"/>
        </g>
        <g transform="matrix(85.3333,0,0,85.3333,73.365,48.1402)">
            <path d="M0.283,0L0.283,-0.14L0.346,-0.14C0.359,-0.14 0.369,-0.135 0.378,-0.127C0.386,-0.118 0.389,-0.107 0.389,-0.093C0.389,-0.079 0.386,-0.067 0.378,-0.059C0.369,-0.05 0.359,-0.046 0.346,-0.046L0.309,-0.046L0.309,0L0.283,0ZM0.309,-0.071L0.345,-0.071C0.35,-0.071 0.355,-0.073 0.358,-0.077C0.362,-0.08 0.364,-0.086 0.364,-0.093C0.364,-0.1 0.362,-0.105 0.358,-0.109C0.355,-0.113 0.35,-0.115 0.345,-0.115L0.309,-0.115L0.309,-0.071Z" style="fill:rgb(35,31,32);fill-rule:nonzero;"/>
        </g>
        <g transform="matrix(85.3333,0,0,85.3333,84.4253,48.1402)">
            <path d="M0.283,0L0.283,-0.14L0.347,-0.14C0.359,-0.14 0.37,-0.135 0.378,-0.127C0.386,-0.118 0.39,-0.106 0.39,-0.093C0.39,-0.08 0.387,-0.069 0.379,-0.061C0.371,-0.053 0.361,-0.048 0.35,-0.048L0.394,0L0.362,0L0.317,-0.048L0.309,-0.048L0.309,0L0.283,0ZM0.309,-0.072L0.346,-0.072C0.351,-0.072 0.355,-0.074 0.359,-0.078C0.363,-0.082 0.365,-0.087 0.365,-0.093C0.365,-0.099 0.363,-0.104 0.359,-0.108C0.355,-0.113 0.351,-0.115 0.346,-0.115L0.309,-0.115L0.309,-0.072Z" style="fill:rgb(35,31,32);fill-rule:nonzero;"/>
        </g>
        <g transform="matrix(85.3333,0,0,85.3333,95.741,48.1402)">
            <path d="M0.315,-0.036C0.322,-0.027 0.332,-0.023 0.345,-0.023C0.357,-0.023 0.367,-0.027 0.375,-0.036C0.383,-0.044 0.387,-0.056 0.387,-0.07C0.387,-0.084 0.383,-0.095 0.375,-0.104C0.367,-0.112 0.357,-0.117 0.345,-0.117C0.332,-0.117 0.322,-0.112 0.315,-0.104C0.307,-0.095 0.303,-0.084 0.303,-0.07C0.303,-0.056 0.307,-0.044 0.315,-0.036ZM0.296,-0.121C0.309,-0.135 0.325,-0.142 0.345,-0.142C0.364,-0.142 0.38,-0.135 0.393,-0.121C0.406,-0.108 0.412,-0.091 0.412,-0.07C0.412,-0.049 0.406,-0.032 0.393,-0.018C0.38,-0.005 0.364,0.002 0.345,0.002C0.325,0.002 0.309,-0.005 0.296,-0.018C0.283,-0.032 0.277,-0.049 0.277,-0.07C0.277,-0.091 0.283,-0.108 0.296,-0.121Z" style="fill:rgb(35,31,32);fill-rule:nonzero;"/>
        </g>
        <g transform="matrix(85.3333,0,0,85.3333,108.503,48.1402)">
            <path d="M0.314,0L0.314,-0.115L0.272,-0.115L0.272,-0.14L0.382,-0.14L0.382,-0.115L0.34,-0.115L0.34,0L0.314,0Z" style="fill:rgb(35,31,32);fill-rule:nonzero;"/>
        </g>
        <g transform="matrix(85.3333,0,0,85.3333,118.202,48.1402)">
            <path d="M0.315,-0.036C0.322,-0.027 0.332,-0.023 0.345,-0.023C0.357,-0.023 0.367,-0.027 0.375,-0.036C0.383,-0.044 0.387,-0.056 0.387,-0.07C0.387,-0.084 0.383,-0.095 0.375,-0.104C0.367,-0.112 0.357,-0.117 0.345,-0.117C0.332,-0.117 0.322,-0.112 0.315,-0.104C0.307,-0.095 0.303,-0.084 0.303,-0.07C0.303,-0.056 0.307,-0.044 0.315,-0.036ZM0.296,-0.121C0.309,-0.135 0.325,-0.142 0.345,-0.142C0.364,-0.142 0.38,-0.135 0.393,-0.121C0.406,-0.108 0.412,-0.091 0.412,-0.07C0.412,-0.049 0.406,-0.032 0.393,-0.018C0.38,-0.005 0.364,0.002 0.345,0.002C0.325,0.002 0.309,-0.005 0.296,-0.018C0.283,-0.032 0.277,-0.049 0.277,-0.07C0.277,-0.091 0.283,-0.108 0.296,-0.121Z" style="fill:rgb(35,31,32);fill-rule:nonzero;"/>
        </g>
        <g transform="matrix(85.3333,0,0,85.3333,130.964,48.1402)">
            <path d="M0.314,0L0.314,-0.115L0.272,-0.115L0.272,-0.14L0.382,-0.14L0.382,-0.115L0.34,-0.115L0.34,0L0.314,0Z" style="fill:rgb(35,31,32);fill-rule:nonzero;"/>
        </g>
        <g transform="matrix(85.3333,0,0,85.3333,141.003,48.1402)">
            <path d="M0.317,0L0.317,-0.048L0.266,-0.14L0.295,-0.14L0.328,-0.08L0.332,-0.08L0.365,-0.14L0.393,-0.14L0.343,-0.048L0.343,0L0.317,0Z" style="fill:rgb(35,31,32);fill-rule:nonzero;"/>
        </g>
        <g transform="matrix(85.3333,0,0,85.3333,151.553,48.1402)">
            <path d="M0.283,0L0.283,-0.14L0.346,-0.14C0.359,-0.14 0.369,-0.135 0.378,-0.127C0.386,-0.118 0.389,-0.107 0.389,-0.093C0.389,-0.079 0.386,-0.067 0.378,-0.059C0.369,-0.05 0.359,-0.046 0.346,-0.046L0.309,-0.046L0.309,0L0.283,0ZM0.309,-0.071L0.345,-0.071C0.35,-0.071 0.355,-0.073 0.358,-0.077C0.362,-0.08 0.364,-0.086 0.364,-0.093C0.364,-0.1 0.362,-0.105 0.358,-0.109C0.355,-0.113 0.35,-0.115 0.345,-0.115L0.309,-0.115L0.309,-0.071Z" style="fill:rgb(35,31,32);fill-rule:nonzero;"/>
        </g>
        <g transform="matrix(85.3333,0,0,85.3333,162.613,48.1402)">
            <path d="M0.283,0L0.283,-0.14L0.377,-0.14L0.377,-0.116L0.309,-0.116L0.309,-0.082L0.373,-0.082L0.373,-0.058L0.309,-0.058L0.309,-0.024L0.377,-0.024L0.377,0L0.283,0Z" style="fill:rgb(35,31,32);fill-rule:nonzero;"/>
        </g>
    </g>
</svg>
