<?xml version="1.0" encoding="UTF-8" standalone="no"?>
<!DOCTYPE svg PUBLIC "-//W3C//DTD SVG 1.1//EN" "http://www.w3.org/Graphics/SVG/1.1/DTD/svg11.dtd">
<svg width="100%" height="100%" viewBox="0 0 103 38" version="1.1" xmlns="http://www.w3.org/2000/svg" xmlns:xlink="http://www.w3.org/1999/xlink" xml:space="preserve" xmlns:serif="http://www.serif.com/" style="fill-rule:evenodd;clip-rule:evenodd;stroke-linejoin:round;stroke-miterlimit:2;">
    <g transform="matrix(0.52199,0,0,0.52199,-0.139819,1.54546)">
        <path d="M67.145,0L0.268,0L0.268,66.877L67.145,66.877L67.145,0ZM52.564,53.904L45.295,53.904L45.295,55.412L52.564,55.412L52.564,53.904ZM15.942,41.918L17.585,41.918L17.585,49.188L21.757,49.188L21.757,50.768L15.942,50.768L15.942,41.918ZM35.279,41.918L39.931,41.918C40.31,41.918 40.656,41.98 40.968,42.101C41.28,42.224 41.545,42.392 41.764,42.607C41.983,42.823 42.154,43.082 42.276,43.385C42.398,43.688 42.46,44.021 42.46,44.384C42.46,44.721 42.413,45.008 42.32,45.244C42.228,45.48 42.127,45.673 42.017,45.825C41.881,46.002 41.734,46.153 41.575,46.28L41.575,46.344C41.76,46.462 41.929,46.614 42.08,46.798C42.207,46.958 42.322,47.161 42.428,47.405C42.533,47.65 42.586,47.949 42.586,48.303C42.586,48.665 42.525,48.998 42.402,49.301C42.28,49.605 42.11,49.864 41.891,50.079C41.671,50.293 41.405,50.463 41.095,50.585C40.782,50.707 40.437,50.768 40.058,50.768L35.279,50.768L35.279,41.918ZM27.096,41.918L29.498,41.918L32.659,50.768L30.826,50.768L30.155,48.872L26.439,48.872L25.768,50.768L23.936,50.768L27.096,41.918ZM39.867,49.314C40.154,49.314 40.405,49.205 40.62,48.986C40.835,48.766 40.943,48.497 40.943,48.177C40.943,47.856 40.835,47.587 40.62,47.367C40.405,47.149 40.154,47.039 39.867,47.039L36.922,47.039L36.922,49.314L39.867,49.314ZM29.624,47.354L28.423,43.815L28.17,43.815L26.97,47.354L29.624,47.354ZM39.741,45.584C40.061,45.584 40.321,45.485 40.519,45.288C40.717,45.09 40.816,44.831 40.816,44.51C40.816,44.156 40.717,43.878 40.519,43.676C40.321,43.474 40.061,43.373 39.741,43.373L36.922,43.373L36.922,45.584L39.741,45.584ZM37.849,34.676C36.21,34.676 34.881,33.347 34.881,31.708C34.881,30.069 36.21,28.74 37.849,28.74C39.023,28.74 40.039,29.423 40.52,30.412L42.216,30.412C41.658,28.528 39.915,27.153 37.849,27.153C35.333,27.153 33.294,29.192 33.294,31.708C33.294,34.224 35.333,36.264 37.849,36.264C39.915,36.264 41.658,34.888 42.216,33.003L40.52,33.003C40.039,33.993 39.023,34.676 37.849,34.676ZM15.942,27.283L15.942,36.133L17.585,36.133L17.585,28.863L20.418,28.863L20.418,27.283L15.942,27.283ZM23.83,27.283L30.497,27.283L30.497,28.8L25.473,28.8L25.473,30.95L30.244,30.95L30.244,32.467L25.473,32.467L25.473,34.616L30.497,34.616L30.497,36.133L23.83,36.133L23.83,27.283ZM50.92,27.283L50.92,30.823L46.938,30.823L46.938,27.283L45.295,27.283L45.295,36.133L46.938,36.133L46.938,32.467L50.92,32.467L50.92,36.133L52.564,36.133L52.564,27.283L50.92,27.283ZM14.736,27.283L13.085,27.283L13.085,28.863L14.736,28.863L14.736,27.283ZM26.93,20.212C25.291,20.212 23.963,18.884 23.963,17.245C23.963,15.605 25.291,14.276 26.93,14.276C28.105,14.276 29.121,14.959 29.601,15.948L31.298,15.948C30.74,14.064 28.996,12.689 26.93,12.689C24.415,12.689 22.375,14.729 22.375,17.245C22.375,19.76 24.415,21.8 26.93,21.8C28.996,21.8 30.74,20.424 31.298,18.54L29.601,18.54C29.121,19.529 28.105,20.212 26.93,20.212ZM38.03,12.689C35.515,12.689 33.475,14.729 33.475,17.245C33.475,19.76 35.515,21.8 38.03,21.8C40.546,21.8 42.586,19.76 42.586,17.245C42.586,14.729 40.546,12.689 38.03,12.689ZM50.92,12.807L50.92,18.939L50.668,18.939L47.443,12.807L45.232,12.807L45.232,21.657L46.874,21.657L46.874,15.526L47.128,15.526L50.351,21.657L52.564,21.657L52.564,12.807L50.92,12.807ZM38.03,20.212C36.391,20.212 35.063,18.884 35.063,17.245C35.063,15.605 36.391,14.276 38.03,14.276C39.67,14.276 40.998,15.605 40.998,17.245C40.998,18.884 39.67,20.212 38.03,20.212Z" style="fill:white;"/>
        <g transform="matrix(85.3333,0,0,85.3333,73.365,30.648)">
            <path d="M0.283,0L0.283,-0.14L0.318,-0.14L0.369,-0.043L0.373,-0.043L0.373,-0.14L0.398,-0.14L0.398,0L0.364,0L0.313,-0.097L0.309,-0.097L0.309,0L0.283,0Z" style="fill:white;fill-rule:nonzero;"/>
        </g>
        <g transform="matrix(85.3333,0,0,85.3333,85.7867,30.648)">
            <path d="M0.315,-0.036C0.322,-0.027 0.332,-0.023 0.345,-0.023C0.357,-0.023 0.367,-0.027 0.375,-0.036C0.383,-0.044 0.387,-0.056 0.387,-0.07C0.387,-0.084 0.383,-0.095 0.375,-0.104C0.367,-0.112 0.357,-0.117 0.345,-0.117C0.332,-0.117 0.322,-0.112 0.315,-0.104C0.307,-0.095 0.303,-0.084 0.303,-0.07C0.303,-0.056 0.307,-0.044 0.315,-0.036ZM0.296,-0.121C0.309,-0.135 0.325,-0.142 0.345,-0.142C0.364,-0.142 0.38,-0.135 0.393,-0.121C0.406,-0.108 0.412,-0.091 0.412,-0.07C0.412,-0.049 0.406,-0.032 0.393,-0.018C0.38,-0.005 0.364,0.002 0.345,0.002C0.325,0.002 0.309,-0.005 0.296,-0.018C0.283,-0.032 0.277,-0.049 0.277,-0.07C0.277,-0.091 0.283,-0.108 0.296,-0.121Z" style="fill:white;fill-rule:nonzero;"/>
        </g>
        <g transform="matrix(85.3333,0,0,85.3333,98.8888,30.648)">
            <rect x="0.277" y="-0.069" width="0.068" height="0.023" style="fill:white;"/>
        </g>
        <g transform="matrix(85.3333,0,0,85.3333,106.206,30.648)">
            <path d="M0.381,-0.05L0.407,-0.05C0.407,-0.046 0.405,-0.042 0.404,-0.038C0.402,-0.034 0.4,-0.03 0.397,-0.025C0.393,-0.02 0.389,-0.015 0.385,-0.012C0.381,-0.008 0.375,-0.005 0.368,-0.002C0.361,0.001 0.353,0.002 0.345,0.002C0.325,0.002 0.309,-0.005 0.296,-0.018C0.283,-0.032 0.277,-0.049 0.277,-0.07C0.277,-0.091 0.283,-0.108 0.296,-0.121C0.309,-0.135 0.325,-0.142 0.345,-0.142C0.352,-0.142 0.36,-0.14 0.367,-0.138C0.373,-0.136 0.379,-0.133 0.383,-0.129C0.388,-0.126 0.392,-0.121 0.395,-0.117C0.399,-0.112 0.401,-0.107 0.403,-0.103C0.405,-0.099 0.406,-0.095 0.407,-0.091L0.381,-0.091C0.378,-0.098 0.374,-0.104 0.368,-0.109C0.362,-0.114 0.354,-0.117 0.345,-0.117C0.332,-0.117 0.322,-0.112 0.315,-0.104C0.307,-0.095 0.303,-0.084 0.303,-0.07C0.303,-0.056 0.307,-0.044 0.315,-0.036C0.322,-0.027 0.332,-0.023 0.345,-0.023C0.354,-0.023 0.362,-0.026 0.368,-0.031C0.374,-0.036 0.378,-0.042 0.381,-0.05Z" style="fill:white;fill-rule:nonzero;"/>
        </g>
        <g transform="matrix(85.3333,0,0,85.3333,118.712,30.648)">
            <path d="M0.315,-0.036C0.322,-0.027 0.332,-0.023 0.345,-0.023C0.357,-0.023 0.367,-0.027 0.375,-0.036C0.383,-0.044 0.387,-0.056 0.387,-0.07C0.387,-0.084 0.383,-0.095 0.375,-0.104C0.367,-0.112 0.357,-0.117 0.345,-0.117C0.332,-0.117 0.322,-0.112 0.315,-0.104C0.307,-0.095 0.303,-0.084 0.303,-0.07C0.303,-0.056 0.307,-0.044 0.315,-0.036ZM0.296,-0.121C0.309,-0.135 0.325,-0.142 0.345,-0.142C0.364,-0.142 0.38,-0.135 0.393,-0.121C0.406,-0.108 0.412,-0.091 0.412,-0.07C0.412,-0.049 0.406,-0.032 0.393,-0.018C0.38,-0.005 0.364,0.002 0.345,0.002C0.325,0.002 0.309,-0.005 0.296,-0.018C0.283,-0.032 0.277,-0.049 0.277,-0.07C0.277,-0.091 0.283,-0.108 0.296,-0.121Z" style="fill:white;fill-rule:nonzero;"/>
        </g>
        <g transform="matrix(85.3333,0,0,85.3333,131.814,30.648)">
            <path d="M0.283,0L0.283,-0.14L0.334,-0.14C0.353,-0.14 0.369,-0.133 0.382,-0.12C0.395,-0.106 0.401,-0.09 0.401,-0.07C0.401,-0.05 0.395,-0.034 0.382,-0.02C0.369,-0.007 0.353,0 0.334,0L0.283,0ZM0.309,-0.025L0.334,-0.025C0.346,-0.025 0.356,-0.029 0.364,-0.037C0.372,-0.045 0.376,-0.056 0.376,-0.07C0.376,-0.083 0.372,-0.094 0.364,-0.102C0.356,-0.11 0.346,-0.115 0.334,-0.115L0.309,-0.115L0.309,-0.025Z" style="fill:white;fill-rule:nonzero;"/>
        </g>
        <g transform="matrix(85.3333,0,0,85.3333,143.981,30.648)">
            <path d="M0.283,0L0.283,-0.14L0.377,-0.14L0.377,-0.116L0.309,-0.116L0.309,-0.082L0.373,-0.082L0.373,-0.058L0.309,-0.058L0.309,-0.024L0.377,-0.024L0.377,0L0.283,0Z" style="fill:white;fill-rule:nonzero;"/>
        </g>
        <g transform="matrix(85.3333,0,0,85.3333,73.365,48.1402)">
            <path d="M0.283,0L0.283,-0.14L0.346,-0.14C0.359,-0.14 0.369,-0.135 0.378,-0.127C0.386,-0.118 0.389,-0.107 0.389,-0.093C0.389,-0.079 0.386,-0.067 0.378,-0.059C0.369,-0.05 0.359,-0.046 0.346,-0.046L0.309,-0.046L0.309,0L0.283,0ZM0.309,-0.071L0.345,-0.071C0.35,-0.071 0.355,-0.073 0.358,-0.077C0.362,-0.08 0.364,-0.086 0.364,-0.093C0.364,-0.1 0.362,-0.105 0.358,-0.109C0.355,-0.113 0.35,-0.115 0.345,-0.115L0.309,-0.115L0.309,-0.071Z" style="fill:white;fill-rule:nonzero;"/>
        </g>
        <g transform="matrix(85.3333,0,0,85.3333,84.4253,48.1402)">
            <path d="M0.283,0L0.283,-0.14L0.347,-0.14C0.359,-0.14 0.37,-0.135 0.378,-0.127C0.386,-0.118 0.39,-0.106 0.39,-0.093C0.39,-0.08 0.387,-0.069 0.379,-0.061C0.371,-0.053 0.361,-0.048 0.35,-0.048L0.394,0L0.362,0L0.317,-0.048L0.309,-0.048L0.309,0L0.283,0ZM0.309,-0.072L0.346,-0.072C0.351,-0.072 0.355,-0.074 0.359,-0.078C0.363,-0.082 0.365,-0.087 0.365,-0.093C0.365,-0.099 0.363,-0.104 0.359,-0.108C0.355,-0.113 0.351,-0.115 0.346,-0.115L0.309,-0.115L0.309,-0.072Z" style="fill:white;fill-rule:nonzero;"/>
        </g>
        <g transform="matrix(85.3333,0,0,85.3333,95.741,48.1402)">
            <path d="M0.315,-0.036C0.322,-0.027 0.332,-0.023 0.345,-0.023C0.357,-0.023 0.367,-0.027 0.375,-0.036C0.383,-0.044 0.387,-0.056 0.387,-0.07C0.387,-0.084 0.383,-0.095 0.375,-0.104C0.367,-0.112 0.357,-0.117 0.345,-0.117C0.332,-0.117 0.322,-0.112 0.315,-0.104C0.307,-0.095 0.303,-0.084 0.303,-0.07C0.303,-0.056 0.307,-0.044 0.315,-0.036ZM0.296,-0.121C0.309,-0.135 0.325,-0.142 0.345,-0.142C0.364,-0.142 0.38,-0.135 0.393,-0.121C0.406,-0.108 0.412,-0.091 0.412,-0.07C0.412,-0.049 0.406,-0.032 0.393,-0.018C0.38,-0.005 0.364,0.002 0.345,0.002C0.325,0.002 0.309,-0.005 0.296,-0.018C0.283,-0.032 0.277,-0.049 0.277,-0.07C0.277,-0.091 0.283,-0.108 0.296,-0.121Z" style="fill:white;fill-rule:nonzero;"/>
        </g>
        <g transform="matrix(85.3333,0,0,85.3333,108.503,48.1402)">
            <path d="M0.314,0L0.314,-0.115L0.272,-0.115L0.272,-0.14L0.382,-0.14L0.382,-0.115L0.34,-0.115L0.34,0L0.314,0Z" style="fill:white;fill-rule:nonzero;"/>
        </g>
        <g transform="matrix(85.3333,0,0,85.3333,118.202,48.1402)">
            <path d="M0.315,-0.036C0.322,-0.027 0.332,-0.023 0.345,-0.023C0.357,-0.023 0.367,-0.027 0.375,-0.036C0.383,-0.044 0.387,-0.056 0.387,-0.07C0.387,-0.084 0.383,-0.095 0.375,-0.104C0.367,-0.112 0.357,-0.117 0.345,-0.117C0.332,-0.117 0.322,-0.112 0.315,-0.104C0.307,-0.095 0.303,-0.084 0.303,-0.07C0.303,-0.056 0.307,-0.044 0.315,-0.036ZM0.296,-0.121C0.309,-0.135 0.325,-0.142 0.345,-0.142C0.364,-0.142 0.38,-0.135 0.393,-0.121C0.406,-0.108 0.412,-0.091 0.412,-0.07C0.412,-0.049 0.406,-0.032 0.393,-0.018C0.38,-0.005 0.364,0.002 0.345,0.002C0.325,0.002 0.309,-0.005 0.296,-0.018C0.283,-0.032 0.277,-0.049 0.277,-0.07C0.277,-0.091 0.283,-0.108 0.296,-0.121Z" style="fill:white;fill-rule:nonzero;"/>
        </g>
        <g transform="matrix(85.3333,0,0,85.3333,130.964,48.1402)">
            <path d="M0.314,0L0.314,-0.115L0.272,-0.115L0.272,-0.14L0.382,-0.14L0.382,-0.115L0.34,-0.115L0.34,0L0.314,0Z" style="fill:white;fill-rule:nonzero;"/>
        </g>
        <g transform="matrix(85.3333,0,0,85.3333,141.003,48.1402)">
            <path d="M0.317,0L0.317,-0.048L0.266,-0.14L0.295,-0.14L0.328,-0.08L0.332,-0.08L0.365,-0.14L0.393,-0.14L0.343,-0.048L0.343,0L0.317,0Z" style="fill:white;fill-rule:nonzero;"/>
        </g>
        <g transform="matrix(85.3333,0,0,85.3333,151.553,48.1402)">
            <path d="M0.283,0L0.283,-0.14L0.346,-0.14C0.359,-0.14 0.369,-0.135 0.378,-0.127C0.386,-0.118 0.389,-0.107 0.389,-0.093C0.389,-0.079 0.386,-0.067 0.378,-0.059C0.369,-0.05 0.359,-0.046 0.346,-0.046L0.309,-0.046L0.309,0L0.283,0ZM0.309,-0.071L0.345,-0.071C0.35,-0.071 0.355,-0.073 0.358,-0.077C0.362,-0.08 0.364,-0.086 0.364,-0.093C0.364,-0.1 0.362,-0.105 0.358,-0.109C0.355,-0.113 0.35,-0.115 0.345,-0.115L0.309,-0.115L0.309,-0.071Z" style="fill:white;fill-rule:nonzero;"/>
        </g>
        <g transform="matrix(85.3333,0,0,85.3333,162.613,48.1402)">
            <path d="M0.283,0L0.283,-0.14L0.377,-0.14L0.377,-0.116L0.309,-0.116L0.309,-0.082L0.373,-0.082L0.373,-0.058L0.309,-0.058L0.309,-0.024L0.377,-0.024L0.377,0L0.283,0Z" style="fill:white;fill-rule:nonzero;"/>
        </g>
    </g>
</svg>
