<svg width="129" height="40" viewBox="0 0 129 40" fill="none" xmlns="http://www.w3.org/2000/svg">
<g clip-path="url(#clip0_630_1201)">
<path fill-rule="evenodd" clip-rule="evenodd" d="M15.4919 7.2015L3.09149 12.1833C2.40191 12.4603 2.40905 13.4115 3.10296 13.6785L15.5551 18.4728C16.6492 18.8941 17.8676 18.8941 18.9616 18.4728L31.414 13.6783C32.1077 13.4115 32.1152 12.4605 31.4252 12.1834L19.0252 7.20132C17.8939 6.74682 16.623 6.74682 15.4917 7.20132L15.4919 7.2015ZM51.9357 22.4118L49.7103 16.5877C49.6195 16.3495 49.2725 16.3495 49.1815 16.5877L46.9565 22.4122C46.9407 22.4536 46.9355 22.4981 46.9412 22.5419C46.947 22.5857 46.9635 22.6275 46.9895 22.6637C47.0155 22.6999 47.0501 22.7295 47.0904 22.75C47.1307 22.7704 47.1755 22.7811 47.221 22.7811H51.6712C51.7166 22.781 51.7614 22.7704 51.8017 22.7499C51.8421 22.7294 51.8767 22.6998 51.9026 22.6636C51.9286 22.6273 51.9451 22.5855 51.9509 22.5417C51.9566 22.4979 51.9513 22.4534 51.9355 22.412L51.9357 22.4118ZM52.9633 25.6854H45.9287C45.8712 25.6855 45.815 25.7026 45.7677 25.7345C45.7205 25.7664 45.6844 25.8116 45.6644 25.864L44.2794 29.4879C44.2594 29.5403 44.2233 29.5855 44.1761 29.6174C44.1288 29.6493 44.0726 29.6664 44.0151 29.6664H40.9659C40.9198 29.6664 40.8744 29.6554 40.8337 29.6344C40.793 29.6134 40.7582 29.5831 40.7324 29.546C40.7066 29.5089 40.6905 29.4663 40.6856 29.4218C40.6807 29.3773 40.6871 29.3323 40.7042 29.2907L47.7243 12.3116C47.7453 12.2609 47.7815 12.2174 47.8282 12.1869C47.8748 12.1563 47.9299 12.14 47.9862 12.14H50.9058C51.0209 12.14 51.1245 12.2079 51.1675 12.3116L58.1874 29.2906C58.2046 29.3321 58.2111 29.3772 58.2062 29.4217C58.2013 29.4662 58.1853 29.509 58.1594 29.5461C58.1336 29.5832 58.0988 29.6136 58.058 29.6346C58.0173 29.6556 57.9718 29.6666 57.9257 29.6666H54.8771C54.8195 29.6665 54.7633 29.6494 54.7161 29.6175C54.6688 29.5855 54.6328 29.5403 54.6128 29.4879L53.2276 25.864C53.2076 25.8116 53.1715 25.7664 53.1243 25.7345C53.077 25.7026 53.0208 25.6855 52.9633 25.6854ZM59.616 18.0988H62.2239C62.2987 18.0988 62.3704 18.1277 62.4233 18.179C62.4762 18.2304 62.5059 18.3 62.5059 18.3726V29.3926C62.5059 29.4652 62.4762 29.5349 62.4233 29.5862C62.3704 29.6375 62.2987 29.6664 62.2239 29.6664H59.616C59.5412 29.6664 59.4695 29.6375 59.4166 29.5862C59.3637 29.5349 59.334 29.4652 59.334 29.3926V18.3724C59.334 18.2998 59.3637 18.2302 59.4166 18.1788C59.4695 18.1275 59.5412 18.0987 59.616 18.0987V18.0988ZM72.0172 20.7794C72.0172 20.8521 71.9875 20.9217 71.9346 20.9731C71.8817 21.0244 71.81 21.0532 71.7352 21.0532H71.6562C70.3667 21.0532 69.4209 21.3537 68.8193 21.9546C68.2173 22.5554 67.9169 23.5488 67.9169 24.9342V29.3926C67.9169 29.4652 67.8872 29.5349 67.8343 29.5862C67.7814 29.6375 67.7097 29.6664 67.6349 29.6664H65.0526C64.9778 29.6664 64.906 29.6375 64.8532 29.5862C64.8003 29.5349 64.7706 29.4652 64.7706 29.3926V18.3724C64.7706 18.2998 64.8003 18.2302 64.8532 18.1788C64.906 18.1275 64.9778 18.0987 65.0526 18.0987H67.609C67.6838 18.0987 67.7555 18.1275 67.8084 18.1788C67.8613 18.2302 67.891 18.2998 67.891 18.3724V20.5522H67.9427C68.2521 19.6509 68.742 18.9585 69.4128 18.4741C70.083 17.9902 70.9084 17.748 71.8882 17.748H72.0172V20.7793V20.7794ZM79.148 20.6776C79.0732 20.6776 79.0015 20.7064 78.9486 20.7578C78.8957 20.8091 78.866 20.8788 78.866 20.9514V25.535C78.866 26.0025 78.96 26.3363 79.1495 26.5366C79.3384 26.7368 79.6652 26.837 80.1293 26.837H80.389C80.4638 26.837 80.5355 26.8659 80.5884 26.9172C80.6413 26.9686 80.671 27.0382 80.671 27.1108V29.4174C80.671 29.49 80.6413 29.5597 80.5884 29.611C80.5355 29.6624 80.4638 29.6912 80.389 29.6912H79.2783C78.1264 29.6912 77.2411 29.4034 76.6222 28.8275C76.0031 28.2516 75.6937 27.3965 75.6937 26.2611V20.9514C75.6937 20.8788 75.664 20.8091 75.6111 20.7578C75.5582 20.7064 75.4865 20.6776 75.4117 20.6776H73.7838C73.709 20.6776 73.6373 20.6488 73.5844 20.5974C73.5315 20.5461 73.5018 20.4764 73.5018 20.4038V18.3724C73.5018 18.2998 73.5315 18.2302 73.5844 18.1788C73.6373 18.1275 73.709 18.0987 73.7838 18.0987H75.4119C75.4867 18.0987 75.5584 18.0698 75.6113 18.0185C75.6642 17.9671 75.6939 17.8975 75.6939 17.8249V13.7404C75.6939 13.6678 75.7236 13.5982 75.7765 13.5468C75.8294 13.4955 75.9011 13.4666 75.9759 13.4666H78.5838C78.6586 13.4666 78.7303 13.4955 78.7832 13.5468C78.8361 13.5982 78.8658 13.6678 78.8658 13.7404V17.8249C78.8658 17.8975 78.8955 17.9671 78.9484 18.0185C79.0013 18.0698 79.073 18.0987 79.1478 18.0987H81.0336C81.1084 18.0987 81.1801 18.1275 81.233 18.1788C81.2859 18.2302 81.3156 18.2998 81.3156 18.3724V20.404C81.3156 20.4766 81.2859 20.5462 81.233 20.5976C81.1801 20.6489 81.1084 20.6778 81.0336 20.6778H79.148V20.6776ZM91.0899 26.2361C91.683 25.6353 91.9795 24.8507 91.9795 23.8824C91.9795 22.9147 91.683 22.1298 91.0899 21.5289C90.4967 20.928 89.7186 20.6276 88.7559 20.6276C87.7929 20.6276 87.0154 20.928 86.4221 21.5289C85.8291 22.1298 85.5324 22.9147 85.5324 23.8824C85.5324 24.8507 85.8291 25.6353 86.4221 26.2361C87.0154 26.837 87.7929 27.1375 88.7559 27.1375C89.7186 27.1375 90.4967 26.837 91.0899 26.2361ZM85.0683 29.3158C84.1914 28.8319 83.4992 28.1264 82.9924 27.2001C82.485 26.2737 82.2315 25.168 82.2315 23.8824C82.2315 22.5974 82.485 21.4913 82.9924 20.565C83.4992 19.6386 84.1914 18.9337 85.0683 18.4493C85.9451 17.9652 86.9077 17.7232 87.9565 17.7232C88.8848 17.7232 89.6799 17.8984 90.3422 18.2489C91.0036 18.5993 91.5322 19.092 91.928 19.7263H91.9795V18.3724C91.9795 18.2998 92.0092 18.2302 92.0621 18.1788C92.115 18.1275 92.1867 18.0987 92.2615 18.0987H94.8437C94.9185 18.0987 94.9902 18.1275 95.0431 18.1788C95.096 18.2302 95.1257 18.2998 95.1257 18.3724V29.3924C95.1257 29.465 95.096 29.5347 95.0431 29.586C94.9902 29.6374 94.9185 29.6662 94.8437 29.6662H92.2615C92.1867 29.6662 92.115 29.6374 92.0621 29.586C92.0092 29.5347 91.9795 29.465 91.9795 29.3924V28.0388H91.928C91.5322 28.6734 91.0036 29.1655 90.342 29.516C89.6799 29.8664 88.885 30.0417 87.9565 30.0417C86.9077 30.0417 85.9451 29.7996 85.0683 29.3158ZM105.865 26.2361C106.458 25.6353 106.754 24.8507 106.754 23.8824C106.754 22.9147 106.458 22.1298 105.865 21.5289C105.272 20.928 104.494 20.6276 103.531 20.6276C102.568 20.6276 101.79 20.928 101.197 21.5289C100.604 22.1298 100.307 22.9147 100.307 23.8824C100.307 24.8507 100.604 25.6353 101.197 26.2361C101.79 26.837 102.568 27.1375 103.531 27.1375C104.494 27.1375 105.272 26.837 105.865 26.2361ZM101.945 29.516C101.283 29.1655 100.754 28.6734 100.359 28.0388H100.307V29.3924C100.307 29.465 100.278 29.5347 100.225 29.586C100.172 29.6374 100.1 29.6662 100.025 29.6662H97.4174C97.3426 29.6662 97.2709 29.6374 97.218 29.586C97.1651 29.5347 97.1354 29.465 97.1354 29.3924V12.4133C97.1354 12.3406 97.1651 12.271 97.218 12.2197C97.2709 12.1683 97.3426 12.1395 97.4174 12.1395H100.025C100.1 12.1395 100.172 12.1683 100.225 12.2197C100.278 12.271 100.307 12.3406 100.307 12.4133V19.7261H100.359C100.754 19.0918 101.283 18.5993 101.945 18.2489C102.607 17.8982 103.402 17.723 104.33 17.723C105.379 17.723 106.342 17.965 107.219 18.4491C108.096 18.9335 108.787 19.6385 109.295 20.5646C109.802 21.4915 110.056 22.5976 110.056 23.8826C110.056 25.1682 109.802 26.2737 109.295 27.2002C108.788 28.1266 108.096 28.8321 107.219 29.3158C106.342 29.7998 105.379 30.042 104.331 30.042C103.402 30.042 102.607 29.8668 101.945 29.5162L101.945 29.516ZM114.45 29.6664H111.842C111.767 29.6664 111.695 29.6375 111.642 29.5862C111.589 29.5349 111.56 29.4652 111.56 29.3926V12.4138C111.56 12.3412 111.589 12.2716 111.642 12.2202C111.695 12.1689 111.767 12.14 111.842 12.14H114.45C114.524 12.14 114.596 12.1689 114.649 12.2202C114.702 12.2716 114.732 12.3412 114.732 12.4138V29.3926C114.732 29.4652 114.702 29.5349 114.649 29.5862C114.596 29.6375 114.524 29.6664 114.45 29.6664ZM120.601 20.778C120.169 21.1054 119.877 21.5782 119.726 22.1966C119.684 22.3671 119.821 22.5306 120.002 22.5306H124.965C125.137 22.5306 125.272 22.381 125.245 22.2159C125.145 21.6309 124.887 21.1646 124.47 20.8156C123.98 20.4067 123.339 20.2023 122.548 20.2023C121.757 20.2023 121.108 20.3941 120.601 20.778ZM126.958 19.3382C127.972 20.4151 128.48 21.9383 128.48 23.9076V24.2347C128.48 24.3073 128.45 24.377 128.397 24.4283C128.344 24.4797 128.272 24.5085 128.198 24.5085H119.906C119.865 24.5086 119.824 24.5174 119.786 24.5344C119.749 24.5514 119.716 24.576 119.689 24.6067C119.663 24.6374 119.643 24.6734 119.633 24.7121C119.622 24.7508 119.62 24.7913 119.627 24.8308C119.759 25.5624 120.093 26.1436 120.627 26.5742C121.237 27.067 122.007 27.3129 122.935 27.3129C124.134 27.3129 125.243 26.8587 126.263 25.9503C126.388 25.8393 126.585 25.8629 126.682 25.9978L127.95 27.7646C127.989 27.8196 128.007 27.8868 127.999 27.9535C127.991 28.0202 127.958 28.0817 127.907 28.1264C127.284 28.6553 126.592 29.1016 125.849 29.4536C125.024 29.8456 124.052 30.042 122.935 30.042C121.646 30.042 120.519 29.7872 119.557 29.2783C118.594 28.7694 117.846 28.0517 117.313 27.125C116.78 26.1987 116.514 25.1264 116.514 23.9076C116.514 22.6894 116.772 21.6129 117.287 20.6778C117.803 19.7432 118.525 19.0171 119.454 18.4995C120.382 17.9824 121.465 17.7234 122.703 17.7234C124.525 17.7234 125.943 18.2618 126.958 19.3382ZM62.8466 14.0248C62.8466 15.0575 61.9842 15.8948 60.9203 15.8948C59.8563 15.8948 58.9939 15.0575 58.9939 14.0246C58.9939 12.9917 59.8564 12.1544 60.9203 12.1544C61.9842 12.1544 62.8466 12.9917 62.8466 14.0246V14.0248ZM18.3632 33.0676V21.0909C18.3632 20.9293 18.4132 20.7714 18.5068 20.6377C18.6003 20.504 18.733 20.4007 18.8877 20.3411L32.7632 15.112C33.3086 14.9021 33.9003 15.2921 33.9003 15.8618V27.8386C33.9003 28.0002 33.8503 28.1581 33.7568 28.2918C33.6632 28.4255 33.5305 28.5289 33.3757 28.5884L19.5002 33.8175C18.9548 34.0274 18.3632 33.6371 18.3632 33.0676ZM11.0051 23.6391L11.0051 23.6391L10.5869 23.8354L1.89422 27.8793C1.34339 28.1374 0.639893 27.7475 0.639893 27.1532V15.912C0.639893 15.697 0.753444 15.5113 0.905724 15.3717C0.905761 15.3717 0.905799 15.3716 0.905837 15.3716L0.905746 15.3715C0.960412 15.3187 1.0215 15.2727 1.08763 15.2343C1.09398 15.2307 1.10037 15.227 1.10681 15.2235C1.10996 15.2218 1.11311 15.2201 1.11628 15.2184C1.19411 15.173 1.28443 15.1401 1.38019 15.1218C1.51277 15.0964 1.6558 15.0991 1.79068 15.1353C1.8182 15.1427 1.84538 15.1515 1.87206 15.1618L15.0538 20.2328C15.7239 20.4909 15.7765 21.4024 15.123 21.7089C15.123 21.7089 15.123 21.7089 15.123 21.7089V21.7087L11.0051 23.6391Z" fill="#A3A3A3"/>
</g>
<defs>
<clipPath id="clip0_630_1201">
<rect width="128" height="40" fill="white" transform="translate(0.5)"/>
</clipPath>
</defs>
</svg>
