<svg width="129" height="40" viewBox="0 0 129 40" fill="none" xmlns="http://www.w3.org/2000/svg">
<g clip-path="url(#clip0_608_3595)">
<path fill-rule="evenodd" clip-rule="evenodd" d="M15.492 7.2015L3.09158 12.1833C2.402 12.4603 2.40914 13.4115 3.10305 13.6785L15.5552 18.4728C16.6492 18.8941 17.8677 18.8941 18.9617 18.4728L31.4141 13.6783C32.1078 13.4115 32.1153 12.4605 31.4253 12.1834L19.0253 7.20132C17.894 6.74682 16.6231 6.74682 15.4918 7.20132L15.492 7.2015ZM51.9358 22.4118L49.7104 16.5877C49.6196 16.3495 49.2726 16.3495 49.1816 16.5877L46.9566 22.4122C46.9408 22.4536 46.9356 22.4981 46.9413 22.5419C46.9471 22.5857 46.9636 22.6275 46.9896 22.6637C47.0156 22.6999 47.0502 22.7295 47.0905 22.75C47.1308 22.7704 47.1756 22.7811 47.2211 22.7811H51.6712C51.7167 22.781 51.7615 22.7704 51.8018 22.7499C51.8421 22.7294 51.8768 22.6998 51.9027 22.6636C51.9287 22.6273 51.9452 22.5855 51.951 22.5417C51.9567 22.4979 51.9514 22.4534 51.9356 22.412L51.9358 22.4118ZM52.9634 25.6854H45.9288C45.8713 25.6855 45.8151 25.7026 45.7678 25.7345C45.7206 25.7664 45.6845 25.8116 45.6645 25.864L44.2795 29.4879C44.2595 29.5403 44.2234 29.5855 44.1761 29.6174C44.1289 29.6493 44.0727 29.6664 44.0152 29.6664H40.966C40.9199 29.6664 40.8745 29.6554 40.8338 29.6344C40.7931 29.6134 40.7583 29.5831 40.7325 29.546C40.7067 29.5089 40.6906 29.4663 40.6857 29.4218C40.6808 29.3773 40.6872 29.3323 40.7043 29.2907L47.7244 12.3116C47.7454 12.2609 47.7816 12.2174 47.8283 12.1869C47.8749 12.1563 47.93 12.14 47.9863 12.14H50.9059C51.021 12.14 51.1245 12.2079 51.1676 12.3116L58.1875 29.2906C58.2047 29.3321 58.2112 29.3772 58.2063 29.4217C58.2014 29.4662 58.1854 29.509 58.1595 29.5461C58.1337 29.5832 58.0989 29.6136 58.0581 29.6346C58.0174 29.6556 57.9719 29.6666 57.9258 29.6666H54.8772C54.8196 29.6665 54.7634 29.6494 54.7162 29.6175C54.6689 29.5855 54.6329 29.5403 54.6129 29.4879L53.2277 25.864C53.2077 25.8116 53.1716 25.7664 53.1243 25.7345C53.0771 25.7026 53.0209 25.6855 52.9634 25.6854ZM59.6161 18.0988H62.224C62.2988 18.0988 62.3705 18.1277 62.4234 18.179C62.4763 18.2304 62.506 18.3 62.506 18.3726V29.3926C62.506 29.4652 62.4763 29.5349 62.4234 29.5862C62.3705 29.6375 62.2988 29.6664 62.224 29.6664H59.6161C59.5413 29.6664 59.4696 29.6375 59.4167 29.5862C59.3638 29.5349 59.3341 29.4652 59.3341 29.3926V18.3724C59.3341 18.2998 59.3638 18.2302 59.4167 18.1788C59.4696 18.1275 59.5413 18.0987 59.6161 18.0987V18.0988ZM72.0173 20.7794C72.0173 20.8521 71.9876 20.9217 71.9347 20.9731C71.8818 21.0244 71.8101 21.0532 71.7353 21.0532H71.6563C70.3668 21.0532 69.421 21.3537 68.8194 21.9546C68.2174 22.5554 67.917 23.5488 67.917 24.9342V29.3926C67.917 29.4652 67.8873 29.5349 67.8344 29.5862C67.7815 29.6375 67.7098 29.6664 67.635 29.6664H65.0527C64.9779 29.6664 64.9061 29.6375 64.8532 29.5862C64.8004 29.5349 64.7707 29.4652 64.7707 29.3926V18.3724C64.7707 18.2998 64.8004 18.2302 64.8532 18.1788C64.9061 18.1275 64.9779 18.0987 65.0527 18.0987H67.6091C67.6839 18.0987 67.7556 18.1275 67.8085 18.1788C67.8614 18.2302 67.8911 18.2998 67.8911 18.3724V20.5522H67.9428C68.2522 19.6509 68.7421 18.9585 69.4129 18.4741C70.0831 17.9902 70.9085 17.748 71.8883 17.748H72.0173V20.7793V20.7794ZM79.1481 20.6776C79.0733 20.6776 79.0016 20.7064 78.9487 20.7578C78.8958 20.8091 78.8661 20.8788 78.8661 20.9514V25.535C78.8661 26.0025 78.9601 26.3363 79.1496 26.5366C79.3385 26.7368 79.6653 26.837 80.1294 26.837H80.3891C80.4639 26.837 80.5356 26.8659 80.5885 26.9172C80.6414 26.9686 80.6711 27.0382 80.6711 27.1108V29.4174C80.6711 29.49 80.6414 29.5597 80.5885 29.611C80.5356 29.6624 80.4639 29.6912 80.3891 29.6912H79.2784C78.1265 29.6912 77.2412 29.4034 76.6223 28.8275C76.0032 28.2516 75.6938 27.3965 75.6938 26.2611V20.9514C75.6938 20.8788 75.6641 20.8091 75.6112 20.7578C75.5583 20.7064 75.4866 20.6776 75.4118 20.6776H73.7839C73.7091 20.6776 73.6374 20.6488 73.5845 20.5974C73.5316 20.5461 73.5019 20.4764 73.5019 20.4038V18.3724C73.5019 18.2998 73.5316 18.2302 73.5845 18.1788C73.6374 18.1275 73.7091 18.0987 73.7839 18.0987H75.412C75.4868 18.0987 75.5585 18.0698 75.6114 18.0185C75.6643 17.9671 75.694 17.8975 75.694 17.8249V13.7404C75.694 13.6678 75.7237 13.5982 75.7766 13.5468C75.8295 13.4955 75.9012 13.4666 75.976 13.4666H78.5839C78.6587 13.4666 78.7304 13.4955 78.7833 13.5468C78.8362 13.5982 78.8659 13.6678 78.8659 13.7404V17.8249C78.8659 17.8975 78.8956 17.9671 78.9485 18.0185C79.0014 18.0698 79.0731 18.0987 79.1479 18.0987H81.0337C81.1085 18.0987 81.1802 18.1275 81.2331 18.1788C81.286 18.2302 81.3157 18.2998 81.3157 18.3724V20.404C81.3157 20.4766 81.286 20.5462 81.2331 20.5976C81.1802 20.6489 81.1085 20.6778 81.0337 20.6778H79.1481V20.6776ZM91.09 26.2361C91.6831 25.6353 91.9796 24.8507 91.9796 23.8824C91.9796 22.9147 91.6831 22.1298 91.09 21.5289C90.4968 20.928 89.7187 20.6276 88.756 20.6276C87.793 20.6276 87.0155 20.928 86.4221 21.5289C85.8292 22.1298 85.5325 22.9147 85.5325 23.8824C85.5325 24.8507 85.8292 25.6353 86.4221 26.2361C87.0155 26.837 87.793 27.1375 88.756 27.1375C89.7187 27.1375 90.4968 26.837 91.09 26.2361ZM85.0684 29.3158C84.1915 28.8319 83.4993 28.1264 82.9925 27.2001C82.4851 26.2737 82.2316 25.168 82.2316 23.8824C82.2316 22.5974 82.4851 21.4913 82.9925 20.565C83.4993 19.6386 84.1915 18.9337 85.0684 18.4493C85.9452 17.9652 86.9077 17.7232 87.9566 17.7232C88.8849 17.7232 89.68 17.8984 90.3423 18.2489C91.0037 18.5993 91.5323 19.092 91.9281 19.7263H91.9796V18.3724C91.9796 18.2998 92.0093 18.2302 92.0622 18.1788C92.1151 18.1275 92.1868 18.0987 92.2616 18.0987H94.8438C94.9185 18.0987 94.9903 18.1275 95.0432 18.1788C95.096 18.2302 95.1257 18.2998 95.1257 18.3724V29.3924C95.1257 29.465 95.096 29.5347 95.0432 29.586C94.9903 29.6374 94.9185 29.6662 94.8438 29.6662H92.2616C92.1868 29.6662 92.1151 29.6374 92.0622 29.586C92.0093 29.5347 91.9796 29.465 91.9796 29.3924V28.0388H91.9281C91.5323 28.6734 91.0037 29.1655 90.3421 29.516C89.68 29.8664 88.8851 30.0417 87.9566 30.0417C86.9077 30.0417 85.9452 29.7996 85.0684 29.3158ZM105.865 26.2361C106.458 25.6353 106.754 24.8507 106.754 23.8824C106.754 22.9147 106.458 22.1298 105.865 21.5289C105.272 20.928 104.494 20.6276 103.531 20.6276C102.568 20.6276 101.79 20.928 101.197 21.5289C100.604 22.1298 100.307 22.9147 100.307 23.8824C100.307 24.8507 100.604 25.6353 101.197 26.2361C101.79 26.837 102.568 27.1375 103.531 27.1375C104.494 27.1375 105.272 26.837 105.865 26.2361ZM101.945 29.516C101.283 29.1655 100.754 28.6734 100.359 28.0388H100.307V29.3924C100.307 29.465 100.278 29.5347 100.225 29.586C100.172 29.6374 100.1 29.6662 100.025 29.6662H97.4175C97.3427 29.6662 97.2709 29.6374 97.2181 29.586C97.1652 29.5347 97.1355 29.465 97.1355 29.3924V12.4133C97.1355 12.3406 97.1652 12.271 97.2181 12.2197C97.2709 12.1683 97.3427 12.1395 97.4175 12.1395H100.025C100.1 12.1395 100.172 12.1683 100.225 12.2197C100.278 12.271 100.307 12.3406 100.307 12.4133V19.7261H100.359C100.754 19.0918 101.283 18.5993 101.945 18.2489C102.607 17.8982 103.402 17.723 104.331 17.723C105.379 17.723 106.342 17.965 107.219 18.4491C108.096 18.9335 108.787 19.6385 109.295 20.5646C109.802 21.4915 110.056 22.5976 110.056 23.8826C110.056 25.1682 109.802 26.2737 109.295 27.2002C108.788 28.1266 108.096 28.8321 107.219 29.3158C106.342 29.7998 105.379 30.042 104.331 30.042C103.402 30.042 102.607 29.8668 101.945 29.5162L101.945 29.516ZM114.45 29.6664H111.842C111.767 29.6664 111.695 29.6375 111.642 29.5862C111.589 29.5349 111.56 29.4652 111.56 29.3926V12.4138C111.56 12.3412 111.589 12.2716 111.642 12.2202C111.695 12.1689 111.767 12.14 111.842 12.14H114.45C114.524 12.14 114.596 12.1689 114.649 12.2202C114.702 12.2716 114.732 12.3412 114.732 12.4138V29.3926C114.732 29.4652 114.702 29.5349 114.649 29.5862C114.596 29.6375 114.524 29.6664 114.45 29.6664ZM120.601 20.778C120.169 21.1054 119.877 21.5782 119.726 22.1966C119.684 22.3671 119.821 22.5306 120.002 22.5306H124.965C125.137 22.5306 125.273 22.381 125.245 22.2159C125.145 21.6309 124.887 21.1646 124.47 20.8156C123.98 20.4067 123.339 20.2023 122.548 20.2023C121.757 20.2023 121.108 20.3941 120.601 20.778ZM126.958 19.3382C127.972 20.4151 128.48 21.9383 128.48 23.9076V24.2347C128.48 24.3073 128.45 24.377 128.397 24.4283C128.344 24.4797 128.272 24.5085 128.198 24.5085H119.906C119.865 24.5086 119.824 24.5174 119.787 24.5344C119.749 24.5514 119.716 24.576 119.689 24.6067C119.663 24.6374 119.643 24.6734 119.633 24.7121C119.622 24.7508 119.62 24.7913 119.627 24.8308C119.759 25.5624 120.093 26.1436 120.627 26.5742C121.237 27.067 122.007 27.3129 122.935 27.3129C124.134 27.3129 125.243 26.8587 126.263 25.9503C126.388 25.8393 126.585 25.8629 126.682 25.9978L127.95 27.7646C127.99 27.8196 128.007 27.8868 127.999 27.9535C127.991 28.0202 127.958 28.0817 127.907 28.1264C127.284 28.6553 126.592 29.1016 125.849 29.4536C125.024 29.8456 124.052 30.042 122.935 30.042C121.646 30.042 120.519 29.7872 119.557 29.2783C118.594 28.7694 117.846 28.0517 117.313 27.125C116.78 26.1987 116.514 25.1264 116.514 23.9076C116.514 22.6894 116.772 21.6129 117.287 20.6778C117.803 19.7432 118.525 19.0171 119.454 18.4995C120.382 17.9824 121.465 17.7234 122.703 17.7234C124.525 17.7234 125.944 18.2618 126.958 19.3382ZM62.8467 14.0248C62.8467 15.0575 61.9843 15.8948 60.9204 15.8948C59.8563 15.8948 58.994 15.0575 58.994 14.0246C58.994 12.9917 59.8565 12.1544 60.9204 12.1544C61.9843 12.1544 62.8467 12.9917 62.8467 14.0246V14.0248ZM18.3633 33.0676V21.0909C18.3633 20.9293 18.4133 20.7714 18.5069 20.6377C18.6004 20.504 18.7331 20.4007 18.8878 20.3411L32.7633 15.112C33.3087 14.9021 33.9003 15.2921 33.9003 15.8618V27.8386C33.9004 28.0002 33.8504 28.1581 33.7569 28.2918C33.6633 28.4255 33.5306 28.5289 33.3758 28.5884L19.5003 33.8175C18.9549 34.0274 18.3633 33.6371 18.3633 33.0676ZM11.0052 23.6391L11.0051 23.6391L10.587 23.8354L1.89432 27.8793C1.34348 28.1374 0.639984 27.7475 0.639984 27.1532V15.912C0.639984 15.697 0.753536 15.5113 0.905815 15.3717C0.905853 15.3717 0.905891 15.3716 0.905928 15.3716L0.905838 15.3715C0.960504 15.3187 1.02159 15.2727 1.08772 15.2343C1.09407 15.2307 1.10046 15.227 1.1069 15.2235C1.11005 15.2218 1.11321 15.2201 1.11637 15.2184C1.19421 15.173 1.28452 15.1401 1.38029 15.1218C1.51286 15.0964 1.65589 15.0991 1.79077 15.1353C1.81829 15.1427 1.84547 15.1515 1.87216 15.1618L15.0539 20.2328C15.724 20.4909 15.7766 21.4024 15.1231 21.7089C15.1231 21.7089 15.1231 21.7089 15.1231 21.7089V21.7087L11.0052 23.6391Z" fill="white" fill-opacity="0.7"/>
</g>
<defs>
<clipPath id="clip0_608_3595">
<rect width="128" height="40" fill="white" transform="translate(0.5)"/>
</clipPath>
</defs>
</svg>
