<svg width="84" height="36" viewBox="0 0 84 36" fill="none" xmlns="http://www.w3.org/2000/svg">
<g clip-path="url(#clip0_665_1249)">
<path fill-rule="evenodd" clip-rule="evenodd" d="M7.81483 13.6791L7.81472 13.5445V12.9953C5.98175 12.9953 4.04536 13.3876 4.04536 15.5486C4.04536 16.6434 4.61237 17.3852 5.58591 17.3852C6.29913 17.3852 6.93746 16.9466 7.34043 16.2333C7.81683 15.3962 7.81591 14.6078 7.81483 13.6791ZM9.77251 19.7852C9.96151 19.885 10.204 19.8743 10.3716 19.7245L10.3787 19.7317C10.8851 19.2823 11.8052 18.48 12.3223 18.0485C12.5291 17.8773 12.4934 17.6027 12.3294 17.3745C12.2797 17.3057 12.2297 17.2383 12.18 17.1713C11.766 16.6133 11.3737 16.0846 11.3737 15.0244V11.0732C11.3737 10.9382 11.3745 10.8041 11.3752 10.671C11.3839 9.15512 11.3918 7.77074 10.2575 6.71185C9.28395 5.77754 7.67208 5.44946 6.43821 5.44946C4.02753 5.44946 1.33512 6.34811 0.768115 9.32937C0.711057 9.64675 0.939288 9.81436 1.14612 9.86072L3.60673 10.1246C3.83496 10.1139 4.00257 9.88925 4.04536 9.66102C4.25576 8.63398 5.11876 8.13829 6.08517 8.13829C6.60582 8.13829 7.19779 8.33086 7.50804 8.79802C7.82485 9.26524 7.82003 9.88754 7.81571 10.4459V10.4459V10.4459C7.81521 10.5097 7.81472 10.5727 7.81472 10.6346V10.9626C7.57735 10.9897 7.32815 11.0152 7.07134 11.0415C5.73863 11.1779 4.20097 11.3352 3.04685 11.8435C1.45994 12.5282 0.34375 13.9296 0.34375 15.9873C0.34375 18.6226 2.00555 19.9385 4.13808 19.9385C5.94252 19.9385 6.92676 19.5141 8.31754 18.0948C8.39092 18.2004 8.45644 18.2974 8.51808 18.3886C8.84588 18.8738 9.06413 19.1968 9.77251 19.7852ZM41.0544 13.5445L41.0545 13.6792V13.6792C41.0556 14.6079 41.0565 15.3962 40.5801 16.2333C40.1772 16.9466 39.5353 17.3852 38.8256 17.3852C37.8521 17.3852 37.2815 16.6434 37.2815 15.5487C37.2815 13.3876 39.2179 12.9953 41.0544 12.9953V13.5445ZM43.6113 19.7246C43.4437 19.8743 43.2012 19.885 43.0122 19.7852C42.2959 19.1903 42.0782 18.8667 41.7457 18.3724C41.6875 18.2859 41.6258 18.1942 41.5572 18.0948C40.1665 19.5142 39.1786 19.9385 37.3778 19.9385C35.2417 19.9385 33.5834 18.6226 33.5834 15.9873C33.5834 13.9296 34.6961 12.5282 36.2865 11.8435C37.4407 11.3352 38.9783 11.1779 40.311 11.0415C40.5678 11.0152 40.817 10.9897 41.0544 10.9626V10.6346C41.0544 10.5732 41.0549 10.5107 41.0554 10.4474C41.0597 9.88866 41.0645 9.26566 40.7442 8.79803C40.4375 8.33086 39.8455 8.13829 39.3213 8.13829C38.3549 8.13829 37.4954 8.63398 37.285 9.66102C37.2423 9.88925 37.0747 10.1139 36.8429 10.1246L34.3858 9.86072C34.179 9.81436 33.9472 9.64675 34.0078 9.32937C34.5712 6.34811 37.2672 5.44946 39.6779 5.44946C40.9118 5.44946 42.5236 5.77754 43.4972 6.71185C44.6315 7.77075 44.6236 9.15513 44.6149 10.6711L44.6149 10.6725C44.6141 10.8051 44.6134 10.9387 44.6134 11.0732V15.0244C44.6134 16.0846 45.0056 16.6133 45.4197 17.1713C45.4694 17.2383 45.5194 17.3057 45.5691 17.3745C45.7296 17.6027 45.7652 17.8773 45.5584 18.0485C45.0413 18.48 44.1212 19.2824 43.6149 19.7317L43.6113 19.7246ZM14.7615 19.7602H17.297C17.568 19.7602 17.7856 19.5498 17.7856 19.2895V12.3927L17.7854 12.2286C17.7829 10.741 17.7796 8.80518 19.5365 8.80518C21.1536 8.80518 21.126 10.5275 21.1035 11.9299C21.101 12.0893 21.0985 12.2445 21.0985 12.3927L21.102 19.2895C21.102 19.5391 21.3018 19.7424 21.5585 19.7602H24.0904C24.3615 19.7602 24.579 19.5498 24.579 19.2895V12.3927C24.579 12.3351 24.5788 12.2753 24.5787 12.2137C24.5768 11.4858 24.5743 10.5049 24.8144 9.89997C25.0747 9.24381 25.7166 8.83371 26.3299 8.83371C27.0646 8.83371 27.6316 9.07977 27.8206 9.95346C27.9182 10.3725 27.9049 11.3415 27.896 11.99L27.896 11.9905C27.8938 12.1475 27.8919 12.2857 27.8919 12.3927V19.2895C27.8919 19.5391 28.0952 19.7424 28.3484 19.7602H30.8803C31.1513 19.7602 31.3688 19.5498 31.3688 19.2895L31.3724 11.0768C31.3724 10.8765 31.3758 10.6722 31.3792 10.4659L31.3792 10.4656C31.3996 9.23559 31.4212 7.93465 30.7341 6.99717C30.0244 6.01293 28.8619 5.57429 27.7992 5.57429C26.305 5.57429 24.9106 6.34101 24.2973 7.98498C23.5841 6.34101 22.5927 5.57429 21.0058 5.57429C19.4438 5.57429 18.2848 6.34101 17.6679 7.98498H17.6215V6.28395C17.6037 6.04859 17.4076 5.85958 17.1615 5.84889H14.7972C14.5262 5.84889 14.3086 6.05572 14.3086 6.31605V19.3287C14.3265 19.5605 14.519 19.7424 14.7615 19.7602ZM47.698 6.28392V8.14543C47.698 8.42358 47.912 8.61259 48.1795 8.61259H52.5337L47.5304 15.7876C47.2273 16.2476 47.2238 16.7647 47.2238 17.0678V18.9543C47.2238 19.2253 47.5269 19.5391 47.8157 19.3822C50.6508 17.8773 54.0564 18.0235 56.6204 19.3679C56.9342 19.532 57.2338 19.2146 57.2338 18.9436V16.9573C57.2088 16.6898 57.1197 16.4188 56.7916 16.2333C55.3366 15.4131 53.6427 15.1742 52.038 15.2134L56.3565 9.04765C56.7559 8.4949 56.9806 8.14543 56.9842 7.87797V6.28392C56.9842 6.00577 56.7702 5.8132 56.5027 5.8132H48.1688C47.912 5.8132 47.698 6.0022 47.698 6.28392ZM64.1591 5.57429C67.9213 5.57429 69.9575 8.80518 69.9575 12.9133C69.9575 16.8824 67.7073 20.0313 64.1591 20.0313C60.4646 20.0313 58.4533 16.8004 58.4533 12.7742C58.4533 8.72316 60.4895 5.57429 64.1591 5.57429ZM64.1804 8.23104C62.3118 8.23104 62.1941 10.7772 62.1941 12.3641L62.1941 12.4226C62.1938 14.0361 62.1932 17.3496 64.1591 17.3496C66.124 17.3496 66.2167 14.6108 66.2167 12.9419C66.2167 11.8435 66.1703 10.5312 65.8387 9.48987C65.5534 8.58408 64.9864 8.23104 64.1804 8.23104ZM72.3113 19.7602H74.8361C75.1071 19.7602 75.3282 19.5498 75.3317 19.2895V12.2821C75.3317 11.4049 75.3781 10.6132 75.7347 9.81795C76.0164 9.19032 76.5834 8.77665 77.2004 8.77665C78.8164 8.77665 78.8012 10.5507 78.7893 11.9427C78.7883 12.0589 78.7873 12.1725 78.7873 12.2821V19.3501C78.8123 19.5712 79.0048 19.7424 79.2366 19.7602H81.7792C82.0289 19.7602 82.2393 19.5784 82.2678 19.3501V11.1588C82.2678 9.89997 82.2678 8.14902 81.6045 7.10772C80.8913 5.9844 79.7822 5.57429 78.6446 5.57429C76.8937 5.57429 75.8988 6.42303 75.1891 8.20251H75.1427V6.21263C75.0928 6.00936 74.9109 5.85958 74.6898 5.84889H72.3398C72.083 5.84889 71.8726 6.03432 71.8512 6.27325L71.8548 19.2895C71.8548 19.5391 72.0581 19.7424 72.3113 19.7602ZM47.6171 22.3032C49.1629 22.1198 52.544 21.7188 53.1468 22.4918C53.7563 23.2723 52.4708 26.482 51.8961 27.9169L51.8951 27.9194C51.7204 28.3544 52.0948 28.5292 52.4871 28.2011C55.044 26.065 55.7001 21.5895 55.1795 20.9441C54.6588 20.3022 50.1941 19.7494 47.4732 21.6644C47.0524 21.9568 47.1237 22.3634 47.5908 22.3063L47.6171 22.3032ZM33.5653 30.1375C39.5064 30.1375 46.4068 28.2653 51.1676 24.7562C51.9557 24.1714 51.2817 23.3012 50.4757 23.6436C45.1409 25.9081 39.3388 26.9993 34.0645 26.9993C26.2441 26.9993 18.6733 24.8561 12.5503 21.2935C12.0153 20.9797 11.6159 21.5289 12.0617 21.9319C17.7354 27.0563 25.2349 30.1375 33.5653 30.1375Z" fill="white" fill-opacity="0.7"/>
</g>
<defs>
<clipPath id="clip0_665_1249">
<rect width="82.8" height="36" fill="white" transform="translate(0.359375)"/>
</clipPath>
</defs>
</svg>
