<?xml version="1.0" encoding="UTF-8" standalone="no"?>
<!DOCTYPE svg PUBLIC "-//W3C//DTD SVG 1.1//EN" "http://www.w3.org/Graphics/SVG/1.1/DTD/svg11.dtd">
<svg width="100%" height="100%" viewBox="0 0 141 40" version="1.1" xmlns="http://www.w3.org/2000/svg" xmlns:xlink="http://www.w3.org/1999/xlink" xml:space="preserve" xmlns:serif="http://www.serif.com/" style="fill-rule:evenodd;clip-rule:evenodd;stroke-linejoin:round;stroke-miterlimit:2;">
    <g transform="matrix(0.913363,0,0,0.913363,0.627743,9.49633)">
        <g>
            <path d="M36.8,8.7C36.3,7.6 35.5,6.7 34.5,6.1C33.5,5.4 32.4,5.1 31,5.1C29.6,5.1 28.5,5.5 27.7,6.1L27.6,2L24,2L24.1,19.5L27.3,19.5L27.3,18.6L27.6,18.9C28.5,19.6 29.7,19.9 31.1,19.9C32.4,19.9 33.5,19.5 34.5,18.9C35.5,18.3 36.3,17.4 36.8,16.3C37.3,15.2 37.6,13.9 37.6,12.5C37.6,11.1 37.4,9.8 36.8,8.7ZM33.5,14.6C33.3,15.2 32.9,15.7 32.4,16.1C31.9,16.5 31.3,16.7 30.5,16.7C29.7,16.7 29.1,16.5 28.6,16.1C28.2,15.7 27.8,15.2 27.6,14.6C27.4,14 27.3,13.2 27.3,12.4C27.3,11.6 27.4,10.8 27.6,10.2C27.8,9.6 28.1,9.1 28.6,8.7C29.1,8.4 29.7,8.2 30.4,8.2C31.2,8.2 31.9,8.4 32.4,8.8C32.9,9.1 33.3,9.7 33.5,10.3C33.8,10.9 33.9,11.6 33.9,12.4C33.9,13.2 33.7,14 33.5,14.6Z" style="fill:rgb(163,163,163);fill-rule:nonzero;"/>
            <path d="M45.2,5.5C44.8,5.5 44.4,5.6 44,5.7C43.6,5.8 43.2,6 42.9,6.2C42.5,6.5 42.1,6.8 41.8,7.2C41.6,7.4 41.5,7.6 41.4,7.8L41.4,5.5L38.3,5.5L38.3,19.5L41.7,19.6L41.7,12.4C41.7,11.9 41.8,11.4 41.9,11C42.1,10.6 42.3,10.2 42.6,9.9C42.9,9.5 43.3,9.3 43.7,9.1C44.1,8.9 44.6,8.7 45.1,8.7C45.6,8.6 46.1,8.7 46.5,8.8L46.5,5.5L45.2,5.5Z" style="fill:rgb(163,163,163);fill-rule:nonzero;"/>
            <path d="M74.4,10.5C74.4,10 74.3,9.4 74.1,8.8C74,8.2 73.7,7.6 73.3,7C72.9,6.4 72.4,6 71.7,5.6C71,5.2 70.1,5 69,5C67.6,5 66.4,5.3 65.4,6C65,6.2 64.7,6.5 64.4,6.8L64.4,5.5L61.2,5.5L61.2,19.5L64.8,19.5L64.8,11.1C64.8,10.8 64.9,10.5 65,10.3C65.2,9.8 65.5,9.4 65.8,9.1C66.1,8.8 66.5,8.6 66.8,8.5C67.2,8.4 67.5,8.4 67.8,8.4C68.6,8.4 69.2,8.6 69.6,8.9C70,9.3 70.3,9.7 70.5,10.2C70.7,10.7 70.8,11.2 70.8,11.7C70.9,12.2 70.9,12.6 70.9,12.9L70.9,19.5L74.5,19.5L74.5,11.6C74.5,11.4 74.4,11 74.4,10.5Z" style="fill:rgb(163,163,163);fill-rule:nonzero;"/>
            <path d="M84,16.1C83.6,16.4 83,16.6 82.2,16.6C81.2,16.6 80.4,16.3 79.8,15.5C79.3,14.7 79,13.7 79,12.5C79,11.7 79.1,11 79.3,10.4C79.6,9.7 79.9,9.3 80.4,8.9C80.8,8.6 81.4,8.4 82.2,8.4C82.9,8.4 83.5,8.6 84,9C84.5,9.4 84.9,10 85.1,10.7L88.7,9.8C88.4,8.4 87.6,7.2 86.5,6.4C85.4,5.5 84,5.1 82.3,5.1C80.9,5.1 79.7,5.5 78.6,6.1C77.5,6.7 76.7,7.6 76.1,8.7C75.5,9.8 75.2,11.1 75.2,12.5C75.2,13.9 75.4,15.2 76,16.3C76.5,17.4 77.3,18.2 78.4,18.9C79.5,19.6 80.7,19.9 82.2,19.9C83.9,19.9 85.1,19.5 86.2,18.7C87.3,17.9 88.1,16.8 88.5,15.3L84.9,14.5C84.7,15.2 84.4,15.7 84,16.1Z" style="fill:rgb(163,163,163);fill-rule:nonzero;"/>
            <path d="M103.1,10.5C103.1,10 103,9.4 102.8,8.8C102.7,8.2 102.4,7.6 102,7C101.6,6.4 101.1,6 100.4,5.6C99.7,5.2 98.8,5 97.7,5C96.3,5 95.2,5.3 94.1,6C93.7,6.2 93.4,6.5 93.1,6.9L93,2L89.8,2L89.9,19.5L93.5,19.5L93.5,11.1C93.5,10.8 93.6,10.5 93.7,10.3C93.9,9.8 94.2,9.4 94.5,9.1C94.8,8.8 95.2,8.6 95.5,8.5C95.9,8.4 96.2,8.4 96.5,8.4C97.3,8.4 97.9,8.6 98.3,8.9C98.7,9.3 99,9.7 99.2,10.2C99.4,10.7 99.5,11.2 99.5,11.7C99.6,12.2 99.6,12.6 99.6,12.9L99.6,19.5L103.2,19.5L103.2,11.6C103.2,11.4 103.1,11 103.1,10.5Z" style="fill:rgb(163,163,163);fill-rule:nonzero;"/>
            <path d="M117.8,13.5C118,11.8 117.8,10.4 117.3,9.1C116.8,7.9 116,6.9 115,6.2C113.9,5.5 112.7,5.2 111.2,5.2C109.8,5.2 108.6,5.5 107.5,6.1C106.5,6.7 105.6,7.6 105,8.7C104.4,9.8 104.1,11.2 104.1,12.7C104.1,14.1 104.4,15.3 105,16.4C105.6,17.5 106.5,18.4 107.6,19C108.7,19.6 110,19.9 111.4,19.9C112.7,19.9 114,19.5 115.2,18.8C116.3,18.1 117.2,17.1 117.7,15.8L114.1,14.8C113.9,15.4 113.5,15.8 113,16.1C112.5,16.4 111.9,16.6 111.2,16.6C110.1,16.6 109.3,16.2 108.7,15.5C108.2,15 108,14.3 107.9,13.4L114.3,13.4L114.3,13.5L117.8,13.5ZM111.4,8.2C112.4,8.2 113.1,8.5 113.6,9.1C113.9,9.5 114.1,10.1 114.2,10.8L108,10.8C108.1,10.2 108.4,9.7 108.7,9.3C109.3,8.6 110.2,8.2 111.4,8.2Z" style="fill:rgb(163,163,163);fill-rule:nonzero;"/>
            <path d="M125.3,5.5C124.9,5.5 124.5,5.6 124.1,5.7C123.7,5.8 123.3,6 123,6.2C122.6,6.5 122.2,6.8 121.9,7.2C121.7,7.4 121.6,7.6 121.5,7.8L121.5,5.5L118.4,5.5L118.4,19.5L121.8,19.6L121.8,12.4C121.8,11.9 121.9,11.4 122,11C122.2,10.6 122.4,10.2 122.7,9.9C123,9.5 123.4,9.3 123.8,9.1C124.2,8.9 124.7,8.7 125.2,8.7C125.7,8.6 126.2,8.7 126.6,8.8L126.6,5.5L125.3,5.5Z" style="fill:rgb(163,163,163);fill-rule:nonzero;"/>
            <path d="M149.4,5.5L153,5.5L153,19.5L149.4,19.5L149.4,5.5ZM149.4,2L149.4,4.4L153,4.4L153,2L149.4,2Z" style="fill:rgb(163,163,163);fill-rule:nonzero;"/>
            <path d="M56.8,5.4L56.8,7.5C55.9,6.4 54.6,5.9 52.9,5.9C51.6,5.9 50.5,6.2 49.5,6.7C48.6,7.2 47.8,8 47.2,9C46.6,10 46.3,11.2 46.3,12.5C46.3,13.8 46.6,15 47.2,16C47.7,17 48.5,17.8 49.5,18.3C50.5,18.8 51.7,19.1 52.9,19.1C54.7,19.1 56.1,18.5 57,17.4L57,19.5L60.3,19.5L60.3,5.5L56.8,5.4ZM56,15C55.4,15.7 54.6,16 53.6,16C52.6,16 51.8,15.6 51.2,15C50.5,14.4 50.2,13.5 50.2,12.4C50.2,11.3 50.6,10.4 51.2,9.8C51.8,9.1 52.6,8.8 53.6,8.8C54.6,8.8 55.4,9.1 56,9.8C56.7,10.4 57,11.3 57,12.4C57,13.5 56.6,14.3 56,15Z" style="fill:rgb(163,163,163);fill-rule:nonzero;"/>
            <path d="M144.6,5.4L144.6,7.5C143.7,6.4 142.4,5.9 140.7,5.9C139.4,5.9 138.3,6.2 137.3,6.7C136.4,7.2 135.6,8 135,9C134.4,10 134.1,11.2 134.1,12.5C134.1,13.8 134.4,15 135,16C135.5,17 136.3,17.8 137.3,18.3C138.3,18.8 139.5,19.1 140.7,19.1C142.5,19.1 143.9,18.5 144.8,17.4L144.8,19.5L148.1,19.5L148.1,5.5L144.6,5.4ZM143.8,15C143.2,15.7 142.4,16 141.4,16C140.4,16 139.6,15.6 139,15C138.3,14.4 138,13.5 138,12.4C138,11.3 138.4,10.4 139,9.8C139.6,9.1 140.4,8.8 141.4,8.8C142.4,8.8 143.2,9.1 143.8,9.8C144.5,10.4 144.8,11.3 144.8,12.4C144.8,13.5 144.4,14.3 143.8,15Z" style="fill:rgb(163,163,163);fill-rule:nonzero;"/>
            <path d="M129.1,14.8C127.7,14.8 126.5,16 126.5,17.4C126.5,18.8 127.7,20 129.1,20C130.5,20 131.7,18.8 131.7,17.4C131.7,16 130.5,14.8 129.1,14.8Z" style="fill:rgb(163,163,163);fill-rule:nonzero;"/>
            <rect x="0" y="10" width="20" height="3" style="fill:rgb(163,163,163);fill-rule:nonzero;"/>
            <path d="M6,5C4.4,5 3,3.6 3,2L3,0L0,0L0,3C0,5.8 2.2,8 5,8L14,8L14,5L6,5Z" style="fill:rgb(163,163,163);fill-rule:nonzero;"/>
            <path d="M5,15C2.2,15 0,17.2 0,20L0,23L3,23L3,21C3,19.4 4.4,18 6,18L14,18L14,15L5,15Z" style="fill:rgb(163,163,163);fill-rule:nonzero;"/>
        </g>
    </g>
</svg>
