<svg width="168" height="80" viewBox="0 0 168 80" fill="none" xmlns="http://www.w3.org/2000/svg">
<path fill-rule="evenodd" clip-rule="evenodd" d="M38.4087 69.32C41.5948 67.3424 44.2727 64.9291 46.5384 62.4161C48.1605 65.7289 51.4157 67.9901 54.8675 67.9901C57.5275 67.9901 60.1875 66.6601 62.0163 64.1663C62.6813 66.4938 64.3438 67.9901 67.17 67.9901C69.2909 67.9901 73.9146 65.8255 78.1071 62.6182L77.6436 64.9975C77.4774 65.6625 77.4774 66.1612 77.4774 66.4937C77.6436 67.4912 78.3086 67.99 79.3061 67.99C81.3011 67.99 84.1274 66.1612 84.7924 63.1687L85.7899 59.0125C86.9536 53.6925 94.7674 45.7125 96.9286 45.7125C97.0949 45.7125 97.4274 45.8787 97.4274 46.2112C97.4933 46.7391 97.1141 47.7384 96.5599 49.1987C95.7178 51.4176 94.4717 54.7011 93.7699 59.0125C93.4374 60.3425 93.4374 61.6725 93.6036 62.67C93.9361 65.8287 95.7649 67.99 99.2561 67.99C102.244 67.99 108.721 65.4396 113.261 60.3389C113.604 63.1076 114.189 65.4626 115.05 66.9926C115.382 67.6576 116.214 67.8238 117.045 67.8238C118.042 67.8238 119.372 67.4913 120.869 66.6601C124.36 64.8313 128.849 60.5088 133.171 54.1913C133.836 54.3576 134.335 54.3576 134.834 54.3576C136.559 54.3576 138.487 53.7487 140.277 52.6715C139.533 54.9181 139.243 57.2125 139.489 59.345C140.154 64.3325 144.31 68.1562 148.799 68.1562C151.293 68.1562 153.953 66.66 155.781 64.3325C156.446 67.4912 158.441 70.8162 163.429 72.8112C163.761 72.9775 164.094 72.9775 164.426 72.9775C165.424 72.9775 166.089 72.3125 165.923 71.4812C165.923 71.1487 165.756 70.65 165.258 70.3175C164.094 69.32 162.764 67.4912 162.431 64.665C162.265 63.335 162.265 61.6725 163.096 60.01C164.094 55.5212 164.26 54.1912 164.26 53.6925C164.094 52.5287 163.263 52.03 162.265 52.03C160.27 52.03 157.444 54.025 156.779 56.8512C155.615 61.1737 152.623 64 150.628 64C148.134 64 146.804 61.34 146.471 58.5137C145.64 51.5312 149.963 43.0525 156.446 43.0525C158.275 43.0525 160.436 43.7175 160.603 45.7125C160.807 47.5512 159.693 48.0091 158.842 48.3588C158.309 48.5782 157.878 48.755 157.943 49.2037C158.109 50.5337 160.27 50.8662 161.766 50.8662C163.096 50.8662 167.419 49.8687 166.754 45.0475C166.255 41.2237 162.099 39.395 157.444 39.395C151.887 39.395 147.157 42.2087 143.937 46.102C143.491 46.3649 143.021 46.8349 142.481 47.3751C141.484 48.5388 139.489 49.7026 136.995 49.7026C136.662 49.7026 135.997 49.5363 135.997 49.5363C137.66 46.3776 138.824 43.0526 138.824 40.2263C138.824 35.5713 135.997 33.2438 132.839 33.2438C128.849 33.2438 124.692 36.7351 124.692 43.7176C124.692 47.8738 126.355 51.1988 129.181 53.0276C125.856 58.3476 121.367 62.8363 120.702 62.8363C120.473 62.8363 120.402 62.5986 120.325 62.3419C120.291 62.2269 120.255 62.108 120.204 62.0051C119.705 60.1763 119.206 56.5188 119.206 54.3576C119.206 50.3676 119.871 46.3776 121.367 42.2213C121.534 41.7226 121.7 41.2238 121.7 40.8913C121.7 39.7276 120.869 39.2288 119.871 39.2288C117.876 39.2288 114.717 41.5563 113.886 44.0501C113.221 46.3776 112.889 49.7026 112.889 53.6926C112.889 54.4243 112.901 55.1501 112.925 55.8649C108.957 61.2132 104.061 63.0025 102.581 63.0025C100.752 63.0025 100.42 61.34 100.752 60.675C101.916 55.8537 103.412 50.3675 104.742 46.5437C105.407 44.715 105.74 43.0525 105.574 42.055C105.241 40.2262 104.077 39.395 102.415 39.395C98.4249 39.395 92.1074 43.385 87.9511 48.8712L89.2811 42.8862C89.4474 42.2212 89.4474 41.7225 89.4474 41.39C89.2811 40.2262 88.6161 39.7275 87.6186 39.7275C82.9636 39.7275 82.1324 42.055 81.6336 44.3825C81.5373 44.9602 80.2142 51.7834 79.1177 57.4242C75.57 60.68 71.595 62.8363 70.495 62.8363C69.165 62.8363 68.6663 61.8388 68.6663 61.0076C68.6663 60.4334 68.9967 58.868 69.3089 57.389C69.5391 56.2984 69.7595 55.2545 69.83 54.6901C69.9963 54.0251 69.9963 53.5263 69.9963 53.1938C69.83 52.1963 68.9988 51.6976 68.0013 51.6976C66.0063 51.6976 63.18 53.6926 62.515 56.5188C61.5175 60.8413 58.525 63.6676 56.53 63.6676C54.0363 63.6676 52.7063 61.0076 52.3738 58.3476C51.5425 52.3626 55.3663 42.7201 62.3488 42.7201C64.3438 42.7201 66.3388 43.3851 66.505 45.3801C66.7064 47.2926 65.6887 47.7424 64.8913 48.0949C64.3718 48.3245 63.9457 48.5128 64.0113 49.0376C64.1775 50.3676 66.3388 50.7001 67.6688 50.7001C69.165 50.7001 73.3213 49.7026 72.6563 44.8813C72.1575 41.0576 68.1675 39.0626 63.3463 39.0626C52.1646 39.0626 44.7237 50.1223 45.5279 58.8896C42.6883 62.2126 39.8513 64.2108 34.7512 66.8262C31.9249 68.3225 28.5999 69.1537 25.6075 69.1537C16.2974 69.1537 11.8087 60.675 10.9774 53.36C8.64995 34.74 25.2749 8.97122 36.7462 8.97122C39.4062 8.97122 41.7337 11.2987 42.2324 14.9562C42.8974 20.6087 42.7312 24.5987 36.9124 29.42C36.2474 29.9187 36.0812 30.75 36.4137 31.2487C36.9124 31.9137 38.575 32.08 41.7337 30.4175C48.0512 27.2587 50.2124 22.4375 49.5474 16.785C48.8824 10.4675 43.3962 5.31372 36.0812 5.31372C32.4237 5.31372 28.5999 6.31122 25.1087 8.47247C9.97995 17.7825 0.171198 38.73 1.99995 54.69C2.66495 59.8437 4.8262 65.33 8.8162 69.1537C11.4762 71.6475 16.2974 74.64 22.1162 74.64C28.4337 74.64 33.7537 72.3125 38.4087 69.32ZM131.841 47.3751C130.179 45.5463 128.849 42.7201 128.849 40.0601C128.849 38.5638 129.347 36.9013 130.511 36.9013C131.509 36.9013 132.839 38.3976 132.839 41.8888C132.839 43.7176 132.506 45.5463 131.841 47.3751Z" fill="#163300"/>
</svg>
