<?xml version="1.0" encoding="UTF-8" standalone="no"?>
<!DOCTYPE svg PUBLIC "-//W3C//DTD SVG 1.1//EN" "http://www.w3.org/Graphics/SVG/1.1/DTD/svg11.dtd">
<svg width="100%" height="100%" viewBox="0 0 90 40" version="1.1" xmlns="http://www.w3.org/2000/svg" xmlns:xlink="http://www.w3.org/1999/xlink" xml:space="preserve" xmlns:serif="http://www.serif.com/" style="fill-rule:evenodd;clip-rule:evenodd;stroke-linejoin:round;stroke-miterlimit:2;">
    <g transform="matrix(0.193341,0,0,0.193341,0.858275,14.6903)">
        <g id="Layer_2">
            <g id="Layer_1-2">
                <path d="M6.55,7.29L0.03,7.29L0.03,0.94L6.55,0.94L6.55,7.29Z" style="fill:rgb(163,163,163);fill-rule:nonzero;"/>
                <path d="M32.67,0.94L32.67,7.48L13.08,7.48L13.08,0.94L32.67,0.94Z" style="fill:rgb(163,163,163);fill-rule:nonzero;"/>
                <path d="M6.55,40.14L0.03,40.14L0.03,14.01L6.55,14.01L6.55,40.14Z" style="fill:rgb(163,163,163);fill-rule:nonzero;"/>
                <path d="M32.67,40.14L26.14,40.14L26.14,14.03L32.67,14.03L32.67,40.14Z" style="fill:rgb(163,163,163);fill-rule:nonzero;"/>
                <path d="M19.61,53.19L13.08,53.19L13.08,30.34L19.61,30.34L19.61,53.19Z" style="fill:rgb(163,163,163);fill-rule:nonzero;"/>
                <path d="M45.73,53.2L39.2,53.2L39.19,43.4L42.47,40.14L45.74,43.4L45.73,53.2Z" style="fill:rgb(163,163,163);fill-rule:nonzero;"/>
                <path d="M32.68,53.2L26.13,53.2L26.13,46.67L32.68,46.67L32.68,53.2Z" style="fill:rgb(163,163,163);fill-rule:nonzero;"/>
                <path d="M19.63,23.81L13.08,23.81L13.08,17.09L16.34,13.82L19.63,17.09L19.63,23.81Z" style="fill:rgb(163,163,163);fill-rule:nonzero;"/>
                <path d="M45.75,33.61L39.2,33.61L39.2,14.01L45.75,14.01L45.75,33.61Z" style="fill:rgb(163,163,163);fill-rule:nonzero;"/>
                <path d="M6.55,53.2L0,53.2L0,46.67L6.55,46.67L6.55,53.2Z" style="fill:rgb(163,163,163);fill-rule:nonzero;"/>
                <path d="M45.73,7.48L39.2,7.48L39.2,0.95L45.73,0.95L45.73,7.48Z" style="fill:rgb(163,163,163);fill-rule:nonzero;"/>
                <path d="M58.81,1L74,1C90.43,1 101,8.94 101,26.89C101,44.84 90.45,53.19 74.7,53.19L58.81,53.19L58.81,1ZM73.28,43.69C82.41,43.69 88.57,39.34 88.57,26.85C88.57,14.36 82.41,10.47 73.28,10.47L71,10.47L71,43.69L73.28,43.69Z" style="fill:rgb(163,163,163);fill-rule:nonzero;"/>
                <path d="M107.37,26.85C107.37,9.79 117.29,0 131.8,0C146.31,0 156.24,9.85 156.24,26.85C156.24,43.85 146.31,54.15 131.8,54.15C117.29,54.15 107.37,43.92 107.37,26.85ZM143.77,26.85C143.77,16.38 139.14,10.2 131.77,10.2C124.4,10.2 119.77,16.38 119.77,26.85C119.77,37.32 124.46,44 131.8,44C139.14,44 143.77,37.32 143.77,26.85Z" style="fill:rgb(163,163,163);fill-rule:nonzero;"/>
                <path d="M225.36,29.36L225.36,1.36L237.53,1.36L237.53,30.57C237.53,40.8 240.85,44.33 246.87,44.33C252.89,44.33 256.4,40.8 256.4,30.57L256.4,1.34L268.13,1.34L268.13,29.34C268.13,46.88 260.78,54.51 246.87,54.51C232.96,54.51 225.36,46.9 225.36,29.36Z" style="fill:rgb(163,163,163);fill-rule:nonzero;"/>
                <path d="M289.6,11.24L274.79,11.24L274.79,1.34L316.57,1.34L316.57,11.24L301.76,11.24L301.76,53.57L289.6,53.57L289.6,11.24Z" style="fill:rgb(163,163,163);fill-rule:nonzero;"/>
                <path d="M323.49,1.34L357.2,1.34L357.2,11.24L335.65,11.24L335.65,21.73L354,21.73L354,31.63L335.65,31.63L335.65,43.63L358,43.63L358,53.54L323.49,53.54L323.49,1.34Z" style="fill:rgb(163,163,163);fill-rule:nonzero;"/>
                <path d="M364.69,28.13C364.69,10.8 376.5,0.75 390.09,0.75C396.165,0.784 401.986,3.223 406.27,7.53L399.86,15.1C397.16,12.66 394.26,10.95 390.36,10.95C382.99,10.95 377.16,17.26 377.16,27.73C377.16,38.47 382.31,44.73 390.16,44.73C394.198,44.66 398.023,42.882 400.68,39.84L407.1,47.26C402.728,52.256 396.357,55.064 389.72,54.92C376.09,54.9 364.69,45.72 364.69,28.13Z" style="fill:rgb(163,163,163);fill-rule:nonzero;"/>
                <path d="M413.72,1L425.88,1L425.88,21.09L444.45,21.09L444.45,1L456.62,1L456.62,53.19L444.45,53.19L444.45,31.39L425.88,31.39L425.88,53.19L413.72,53.19L413.72,1Z" style="fill:rgb(163,163,163);fill-rule:nonzero;"/>
                <path d="M215.65,0.99L200.32,0.99L190.5,38.03L190.24,38.03L180.22,0.99L163.85,0.99L163.85,53.17L174.44,53.17L174.44,17.09L183.87,53.17L196.22,53.17L205.01,19.11L205.01,53.17L215.65,53.17L215.65,0.99Z" style="fill:rgb(163,163,163);fill-rule:nonzero;"/>
            </g>
        </g>
    </g>
</svg>
