<?xml version="1.0" encoding="UTF-8" standalone="no"?>
<!DOCTYPE svg PUBLIC "-//W3C//DTD SVG 1.1//EN" "http://www.w3.org/Graphics/SVG/1.1/DTD/svg11.dtd">
<svg width="100%" height="100%" viewBox="0 0 90 40" version="1.1" xmlns="http://www.w3.org/2000/svg" xmlns:xlink="http://www.w3.org/1999/xlink" xml:space="preserve" xmlns:serif="http://www.serif.com/" style="fill-rule:evenodd;clip-rule:evenodd;stroke-linejoin:round;stroke-miterlimit:2;">
    <g transform="matrix(0.0946658,0,0,0.0946658,40.74,18.7566)">
        <g transform="matrix(4.16667,0,0,4.16667,509.036,120.977)">
            <path d="M0,1.361L-77.543,1.361C-77.918,1.361 -78.222,1.056 -78.222,0.68C-78.222,0.305 -77.918,0 -77.543,0L0,0C0.375,0 0.681,0.305 0.681,0.68C0.681,1.056 0.375,1.361 0,1.361" style="fill:rgb(163,163,163);fill-rule:nonzero;"/>
        </g>
        <g transform="matrix(4.16667,0,0,4.16667,-324.583,50.4141)">
            <path d="M0,-35.635C0.247,-35.635 0.486,-35.6 0.716,-35.529C0.949,-35.457 1.033,-35.177 0.972,-34.683C0.879,-33.661 0.849,-32.479 0.879,-31.14C0.909,-29.801 0.956,-28.568 1.018,-27.439C1.018,-27.298 0.949,-27.184 0.81,-27.096C0.671,-27.008 0.51,-26.956 0.324,-26.938C0.138,-26.919 -0.038,-26.956 -0.208,-27.044C-0.378,-27.131 -0.479,-27.263 -0.509,-27.439C-0.726,-28.815 -0.941,-29.889 -1.156,-30.666C-1.372,-31.44 -1.673,-32.031 -2.057,-32.437C-2.444,-32.842 -2.969,-33.097 -3.631,-33.203C-4.295,-33.309 -5.165,-33.378 -6.245,-33.415L-9.021,-33.415C-9.823,-33.415 -10.463,-33.396 -10.941,-33.362C-11.42,-33.326 -11.797,-33.194 -12.074,-32.965C-12.352,-32.735 -12.538,-32.374 -12.628,-31.881C-12.722,-31.387 -12.768,-30.7 -12.768,-29.819L-12.768,-20.566C-12.768,-20.073 -12.692,-19.765 -12.538,-19.641C-12.383,-19.517 -12.228,-19.457 -12.074,-19.457C-10.656,-19.457 -9.538,-19.527 -8.721,-19.667C-7.904,-19.808 -7.286,-20.064 -6.87,-20.434C-6.454,-20.805 -6.175,-21.289 -6.037,-21.888C-5.898,-22.488 -5.783,-23.262 -5.691,-24.214C-5.66,-24.427 -5.567,-24.585 -5.413,-24.691C-5.258,-24.795 -5.089,-24.849 -4.903,-24.849C-4.718,-24.849 -4.549,-24.795 -4.394,-24.691C-4.242,-24.585 -4.163,-24.427 -4.163,-24.214C-4.163,-23.651 -4.179,-23.148 -4.21,-22.708C-4.242,-22.267 -4.271,-21.826 -4.302,-21.386C-4.333,-20.945 -4.364,-20.487 -4.394,-20.011C-4.425,-19.536 -4.441,-18.981 -4.441,-18.346C-4.441,-17.289 -4.394,-16.328 -4.302,-15.465C-4.21,-14.601 -4.163,-13.552 -4.163,-12.319C-4.163,-12.142 -4.242,-12.009 -4.394,-11.922C-4.549,-11.833 -4.718,-11.798 -4.903,-11.816C-5.089,-11.833 -5.258,-11.887 -5.413,-11.975C-5.567,-12.063 -5.66,-12.213 -5.691,-12.425C-5.783,-13.446 -5.898,-14.276 -6.037,-14.909C-6.175,-15.543 -6.454,-16.028 -6.87,-16.364C-7.286,-16.697 -7.904,-16.926 -8.721,-17.05C-9.538,-17.174 -10.656,-17.236 -12.074,-17.236C-12.228,-17.236 -12.383,-17.174 -12.538,-17.05C-12.692,-16.926 -12.768,-16.671 -12.768,-16.283L-12.768,-7.403C-12.768,-6.203 -12.683,-5.242 -12.514,-4.521C-12.345,-3.797 -12.05,-3.234 -11.635,-2.829C-11.218,-2.422 -10.67,-2.142 -9.992,-1.983C-9.315,-1.824 -8.466,-1.691 -7.448,-1.586C-7.232,-1.586 -7.078,-1.489 -6.985,-1.296C-6.893,-1.101 -6.846,-0.88 -6.846,-0.633C-6.846,-0.424 -6.9,-0.229 -7.009,-0.052C-7.117,0.123 -7.279,0.212 -7.494,0.212C-9.16,0.212 -10.587,0.141 -11.774,0C-12.961,-0.14 -14.109,-0.211 -15.22,-0.211C-16.392,-0.211 -17.549,-0.14 -18.689,0C-19.831,0.141 -20.941,0.212 -22.021,0.212C-22.205,0.212 -22.344,0.123 -22.437,-0.052C-22.529,-0.229 -22.584,-0.424 -22.599,-0.633C-22.615,-0.846 -22.575,-1.047 -22.484,-1.242C-22.391,-1.437 -22.238,-1.55 -22.021,-1.586C-21.158,-1.691 -20.448,-1.832 -19.894,-2.009C-19.337,-2.185 -18.906,-2.465 -18.597,-2.855C-18.289,-3.243 -18.081,-3.754 -17.973,-4.388C-17.864,-5.023 -17.81,-5.868 -17.81,-6.926L-17.81,-26.805C-17.81,-27.581 -17.834,-28.338 -17.881,-29.078C-17.926,-29.819 -18.026,-30.507 -18.181,-31.14C-18.335,-31.774 -18.574,-32.321 -18.897,-32.78C-19.222,-33.238 -19.661,-33.555 -20.216,-33.732C-20.556,-33.837 -20.91,-33.924 -21.28,-33.996C-21.65,-34.066 -22.005,-34.119 -22.344,-34.155C-22.529,-34.155 -22.667,-34.242 -22.761,-34.419C-22.853,-34.596 -22.9,-34.789 -22.9,-35.001C-22.9,-35.211 -22.853,-35.406 -22.761,-35.582C-22.667,-35.759 -22.529,-35.847 -22.344,-35.847C-21.296,-35.847 -20.356,-35.811 -19.522,-35.741C-18.689,-35.669 -17.719,-35.635 -16.608,-35.635L0,-35.635Z" style="fill:rgb(163,163,163);fill-rule:nonzero;"/>
        </g>
        <g transform="matrix(4.16667,0,0,4.16667,-258.078,5.91329)">
            <path d="M0,-2.907C-0.248,-2.907 -0.394,-2.846 -0.44,-2.723C-0.487,-2.598 -0.51,-2.291 -0.51,-1.797C-0.51,-0.704 -0.394,0.415 -0.163,1.561C0.068,2.706 0.446,3.747 0.97,4.68C1.495,5.613 2.181,6.38 3.03,6.979C3.877,7.579 4.933,7.878 6.198,7.878C7.463,7.878 8.573,7.676 9.529,7.27C10.485,6.866 11.302,6.098 11.981,4.971C12.104,4.795 12.243,4.699 12.398,4.68C12.551,4.663 12.689,4.699 12.813,4.786C12.936,4.873 13.03,5.006 13.091,5.182C13.152,5.359 13.152,5.517 13.091,5.658C12.351,7.385 11.34,8.75 10.061,9.756C8.781,10.76 7.015,11.262 4.764,11.262C3.037,11.262 1.541,10.953 0.277,10.337C-0.988,9.721 -2.114,8.671 -3.101,7.191C-3.193,7.015 -3.262,6.936 -3.309,6.953C-3.355,6.971 -3.424,7.051 -3.517,7.191C-4.504,8.53 -5.675,9.527 -7.033,10.179C-8.39,10.829 -9.839,11.155 -11.382,11.155C-12.461,11.155 -13.364,10.963 -14.088,10.574C-14.813,10.187 -15.392,9.694 -15.822,9.094C-16.255,8.495 -16.555,7.817 -16.725,7.059C-16.895,6.301 -16.98,5.552 -16.98,4.812C-16.98,3.684 -16.747,2.627 -16.285,1.639C-15.822,0.653 -15.099,-0.211 -14.111,-0.952C-13.123,-1.692 -11.875,-2.281 -10.364,-2.723C-8.853,-3.163 -7.049,-3.383 -4.952,-3.383C-4.889,-4.018 -4.828,-4.537 -4.766,-4.944C-4.705,-5.348 -4.643,-5.796 -4.58,-6.291C-4.58,-6.996 -4.643,-7.701 -4.766,-8.406C-4.889,-9.111 -5.097,-9.754 -5.39,-10.336C-5.685,-10.917 -6.077,-11.384 -6.569,-11.737C-7.064,-12.089 -7.681,-12.266 -8.421,-12.266C-9.593,-12.266 -10.565,-12.009 -11.335,-11.498C-12.106,-10.987 -12.491,-10.327 -12.491,-9.516C-12.491,-9.127 -12.384,-8.75 -12.167,-8.38C-11.954,-8.008 -11.845,-7.63 -11.845,-7.242C-11.845,-6.643 -12.075,-6.141 -12.538,-5.736C-13.001,-5.33 -13.51,-5.128 -14.064,-5.128C-14.805,-5.128 -15.375,-5.374 -15.777,-5.868C-16.179,-6.361 -16.378,-7.013 -16.378,-7.825C-16.378,-8.776 -16.115,-9.639 -15.591,-10.415C-15.067,-11.19 -14.404,-11.85 -13.602,-12.397C-12.801,-12.943 -11.913,-13.375 -10.942,-13.693C-9.97,-14.011 -9.038,-14.169 -8.144,-14.169C-6.694,-14.169 -5.506,-13.984 -4.58,-13.613C-3.655,-13.243 -2.823,-12.636 -2.083,-11.789C-1.929,-11.543 -1.744,-11.508 -1.528,-11.684C-0.665,-12.459 0.284,-13.066 1.317,-13.508C2.35,-13.948 3.515,-14.169 4.81,-14.169C6.013,-14.169 7.124,-13.895 8.14,-13.349C9.159,-12.802 10.045,-12.081 10.801,-11.182C11.557,-10.283 12.142,-9.252 12.559,-8.089C12.975,-6.925 13.184,-5.709 13.184,-4.441C13.184,-4.053 13.145,-3.7 13.068,-3.383C12.99,-3.066 12.829,-2.907 12.582,-2.907L0,-2.907ZM-4.118,4.918C-4.489,3.789 -4.736,2.716 -4.858,1.692C-4.983,0.671 -5.075,-0.352 -5.137,-1.374C-5.939,-1.374 -6.763,-1.259 -7.611,-1.031C-8.459,-0.801 -9.238,-0.467 -9.947,-0.027C-10.657,0.415 -11.243,0.97 -11.705,1.639C-12.167,2.31 -12.399,3.084 -12.399,3.966C-12.399,4.46 -12.37,4.954 -12.307,5.446C-12.246,5.94 -12.122,6.38 -11.936,6.767C-11.751,7.157 -11.482,7.473 -11.127,7.719C-10.773,7.967 -10.302,8.09 -9.717,8.09C-8.823,8.09 -7.843,7.87 -6.779,7.429C-5.715,6.989 -4.828,6.152 -4.118,4.918M8.049,-4.969C8.45,-4.969 8.65,-5.48 8.65,-6.502C8.65,-7.138 8.565,-7.799 8.396,-8.485C8.225,-9.173 7.971,-9.797 7.632,-10.362C7.292,-10.926 6.86,-11.384 6.337,-11.737C5.813,-12.089 5.211,-12.266 4.533,-12.266C3.762,-12.266 3.067,-12.081 2.452,-11.71C1.834,-11.34 1.317,-10.847 0.901,-10.23C0.485,-9.612 0.168,-8.89 -0.047,-8.062C-0.263,-7.234 -0.372,-6.343 -0.372,-5.392C-0.372,-5.181 -0.348,-5.057 -0.301,-5.022C-0.256,-4.987 -0.125,-4.969 0.091,-4.969L8.049,-4.969Z" style="fill:rgb(163,163,163);fill-rule:nonzero;"/>
        </g>
        <g transform="matrix(4.16667,0,0,4.16667,-170.764,-25.3692)">
            <path d="M0,11.685C0,12.566 0.023,13.308 0.07,13.905C0.116,14.505 0.278,14.998 0.555,15.387C0.833,15.775 1.263,16.073 1.851,16.286C2.436,16.495 3.285,16.654 4.395,16.761C4.58,16.796 4.718,16.893 4.81,17.052C4.904,17.211 4.951,17.394 4.951,17.607C4.951,17.784 4.904,17.951 4.81,18.109C4.718,18.267 4.58,18.346 4.395,18.346C3.069,18.346 1.897,18.284 0.878,18.162C-0.138,18.039 -1.111,17.977 -2.036,17.977C-3.022,17.977 -4.002,18.039 -4.972,18.162C-5.945,18.284 -6.924,18.346 -7.911,18.346C-8.066,18.346 -8.188,18.267 -8.281,18.109C-8.374,17.951 -8.42,17.784 -8.42,17.607C-8.42,17.394 -8.374,17.211 -8.281,17.052C-8.188,16.893 -8.049,16.796 -7.865,16.761C-7.002,16.654 -6.331,16.495 -5.853,16.286C-5.374,16.073 -5.027,15.782 -4.81,15.412C-4.597,15.042 -4.465,14.584 -4.418,14.037C-4.372,13.491 -4.348,12.813 -4.348,12.003L-4.348,4.284C-4.348,2.557 -4.38,1.19 -4.442,0.186C-4.503,-0.82 -4.649,-1.594 -4.88,-2.141C-5.113,-2.687 -5.475,-3.047 -5.969,-3.225C-6.461,-3.4 -7.14,-3.524 -8.003,-3.594C-8.158,-3.594 -8.274,-3.683 -8.35,-3.859C-8.427,-4.034 -8.466,-4.211 -8.466,-4.387C-8.466,-4.564 -8.427,-4.739 -8.35,-4.917C-8.274,-5.092 -8.143,-5.181 -7.958,-5.181C-7.34,-5.251 -6.485,-5.331 -5.389,-5.418C-4.295,-5.506 -3.177,-5.727 -2.036,-6.08C-1.604,-6.22 -1.249,-6.238 -0.971,-6.132C-0.694,-6.027 -0.571,-5.727 -0.602,-5.235L-0.694,-1.85C-0.694,-1.779 -0.679,-1.735 -0.648,-1.719C-0.617,-1.7 -0.571,-1.726 -0.509,-1.796C0.138,-3.278 0.932,-4.457 1.875,-5.339C2.814,-6.22 4.07,-6.661 5.644,-6.661C6.939,-6.661 7.896,-6.282 8.512,-5.525C9.129,-4.766 9.437,-3.84 9.437,-2.749C9.437,-2.149 9.237,-1.602 8.836,-1.11C8.435,-0.615 7.865,-0.37 7.125,-0.37C6.414,-0.37 5.922,-0.563 5.644,-0.951C5.367,-1.339 5.228,-1.761 5.228,-2.219C5.228,-2.713 5.143,-3.1 4.972,-3.384C4.803,-3.665 4.442,-3.806 3.886,-3.806C3.3,-3.806 2.768,-3.585 2.29,-3.146C1.81,-2.705 1.403,-2.185 1.064,-1.586C0.725,-0.986 0.462,-0.37 0.278,0.264C0.092,0.899 0,1.393 0,1.744L0,11.685Z" style="fill:rgb(163,163,163);fill-rule:nonzero;"/>
        </g>
        <g transform="matrix(4.16667,0,0,4.16667,-113.708,3.05162)">
            <path d="M0,-1.692C0,-0.352 0.138,0.925 0.416,2.142C0.694,3.358 1.118,4.433 1.689,5.367C2.258,6.301 2.991,7.041 3.885,7.587C4.78,8.134 5.859,8.407 7.125,8.407C8.203,8.407 9.26,8.31 10.292,8.116C11.326,7.922 12.197,7.472 12.907,6.767C13.03,6.627 13.168,6.581 13.324,6.635C13.477,6.688 13.615,6.778 13.74,6.899C13.862,7.024 13.949,7.173 13.994,7.349C14.041,7.526 14.017,7.685 13.925,7.825C12.907,9.376 11.72,10.425 10.363,10.971C9.005,11.517 7.401,11.789 5.552,11.789C4.317,11.789 3.084,11.58 1.851,11.155C0.617,10.733 -0.501,10.028 -1.503,9.041C-2.506,8.053 -3.316,6.74 -3.932,5.102C-4.549,3.463 -4.857,1.428 -4.857,-1.005C-4.857,-2.732 -4.603,-4.362 -4.094,-5.894C-3.586,-7.428 -2.845,-8.751 -1.874,-9.861C-0.902,-10.97 0.293,-11.851 1.712,-12.504C3.13,-13.155 4.765,-13.481 6.617,-13.481C7.51,-13.481 8.381,-13.359 9.229,-13.113C10.078,-12.865 10.832,-12.504 11.496,-12.028C12.159,-11.552 12.69,-10.962 13.092,-10.257C13.493,-9.552 13.694,-8.758 13.694,-7.878C13.694,-7.243 13.508,-6.644 13.138,-6.08C12.768,-5.515 12.182,-5.235 11.38,-5.235C10.733,-5.235 10.201,-5.428 9.785,-5.816C9.369,-6.203 9.16,-6.768 9.16,-7.508C9.16,-8 9.276,-8.406 9.507,-8.724C9.738,-9.041 9.854,-9.339 9.854,-9.623C9.854,-10.257 9.484,-10.742 8.744,-11.076C8.004,-11.411 7.186,-11.579 6.292,-11.579C5.119,-11.579 4.14,-11.296 3.354,-10.734C2.568,-10.169 1.92,-9.42 1.411,-8.486C0.902,-7.551 0.54,-6.494 0.324,-5.313C0.108,-4.131 0,-2.925 0,-1.692" style="fill:rgb(163,163,163);fill-rule:nonzero;"/>
        </g>
        <g transform="matrix(4.16667,0,0,4.16667,-24.0748,-15.1575)">
            <path d="M0,-5.305C0.061,-5.128 0.138,-5.128 0.23,-5.305C1.033,-6.503 2.027,-7.438 3.215,-8.108C4.401,-8.776 5.582,-9.112 6.754,-9.112C9.375,-9.112 11.265,-8.293 12.422,-6.653C13.578,-5.014 14.156,-2.873 14.156,-0.23L14.156,9.552C14.156,10.469 14.179,11.209 14.225,11.772C14.271,12.336 14.379,12.785 14.55,13.121C14.719,13.455 14.989,13.702 15.359,13.861C15.729,14.02 16.238,14.169 16.886,14.31C17.07,14.346 17.21,14.452 17.303,14.627C17.394,14.803 17.441,14.98 17.441,15.155C17.441,15.333 17.394,15.5 17.303,15.658C17.21,15.817 17.086,15.896 16.932,15.896C16.5,15.896 15.845,15.833 14.966,15.711C14.087,15.588 13.185,15.526 12.26,15.526C11.271,15.526 10.301,15.588 9.345,15.711C8.389,15.833 7.571,15.896 6.893,15.896C6.708,15.896 6.569,15.817 6.477,15.658C6.384,15.5 6.337,15.333 6.337,15.155C6.337,14.945 6.384,14.76 6.477,14.601C6.569,14.442 6.724,14.346 6.94,14.31C7.649,14.205 8.196,14.063 8.582,13.887C8.967,13.711 9.245,13.447 9.414,13.094C9.583,12.742 9.692,12.284 9.738,11.719C9.785,11.156 9.808,10.433 9.808,9.552L9.808,1.568C9.808,0.687 9.754,-0.194 9.645,-1.076C9.537,-1.955 9.337,-2.758 9.044,-3.481C8.75,-4.204 8.327,-4.793 7.772,-5.252C7.218,-5.71 6.477,-5.94 5.551,-5.94C4.563,-5.94 3.724,-5.729 3.03,-5.305C2.336,-4.882 1.765,-4.371 1.318,-3.772C0.871,-3.172 0.539,-2.539 0.324,-1.869C0.107,-1.198 0,-0.616 0,-0.124L0,9.234C0,10.186 0.015,10.971 0.046,11.588C0.076,12.204 0.169,12.689 0.324,13.041C0.477,13.394 0.716,13.668 1.04,13.861C1.365,14.055 1.82,14.205 2.405,14.31C2.621,14.346 2.776,14.452 2.868,14.627C2.961,14.803 3.007,14.98 3.007,15.155C3.007,15.333 2.961,15.5 2.868,15.658C2.776,15.817 2.637,15.896 2.452,15.896C2.05,15.896 1.425,15.833 0.578,15.711C-0.271,15.588 -1.156,15.526 -2.081,15.526C-3.07,15.526 -4.009,15.588 -4.904,15.711C-5.799,15.833 -6.6,15.896 -7.31,15.896C-7.494,15.896 -7.634,15.817 -7.725,15.658C-7.818,15.5 -7.865,15.333 -7.865,15.155C-7.865,14.945 -7.818,14.76 -7.725,14.601C-7.634,14.442 -7.479,14.346 -7.263,14.31C-6.554,14.205 -6.007,14.063 -5.621,13.887C-5.236,13.711 -4.951,13.447 -4.765,13.094C-4.58,12.742 -4.465,12.284 -4.418,11.719C-4.372,11.156 -4.348,10.433 -4.348,9.552L-4.348,-11.227C-4.348,-12.742 -4.381,-13.95 -4.442,-14.849C-4.504,-15.747 -4.658,-16.442 -4.904,-16.938C-5.151,-17.431 -5.522,-17.764 -6.014,-17.941C-6.508,-18.117 -7.188,-18.259 -8.05,-18.364C-8.204,-18.364 -8.32,-18.452 -8.396,-18.629C-8.474,-18.805 -8.519,-18.981 -8.536,-19.158C-8.552,-19.334 -8.519,-19.51 -8.444,-19.685C-8.367,-19.862 -8.234,-19.95 -8.05,-19.95C-7.155,-20.021 -6.06,-20.127 -4.765,-20.268C-3.47,-20.408 -2.253,-20.673 -1.111,-21.061C-0.679,-21.201 -0.393,-21.175 -0.254,-20.982C-0.116,-20.788 -0.031,-20.584 0,-20.374L0,-5.305Z" style="fill:rgb(163,163,163);fill-rule:nonzero;"/>
        </g>
        <g transform="matrix(4.16667,0,0,4.16667,142.465,-8.84296)">
            <path d="M0,-3.49C1.203,-2.044 2.405,-0.616 3.61,0.793C4.812,2.203 6.045,3.63 7.31,5.076C8.42,3.455 9.407,2.036 10.271,0.819C11.134,-0.396 11.943,-1.419 12.7,-2.247C13.455,-3.076 14.18,-3.702 14.875,-4.124C15.567,-4.548 16.316,-4.758 17.118,-4.758C18.044,-4.758 18.76,-4.494 19.269,-3.966C19.778,-3.436 20.032,-2.803 20.032,-2.062C20.032,-1.462 19.878,-0.916 19.569,-0.422C19.261,0.071 18.674,0.317 17.813,0.317C17.164,0.317 16.74,0.176 16.54,-0.106C16.339,-0.388 16.239,-0.635 16.239,-0.847C16.239,-0.987 16.216,-1.189 16.169,-1.454C16.124,-1.719 15.853,-1.851 15.361,-1.851C15.019,-1.851 14.682,-1.727 14.341,-1.48C14.003,-1.234 13.594,-0.801 13.116,-0.186C12.638,0.431 12.028,1.269 11.289,2.327C10.549,3.383 9.623,4.722 8.514,6.344C8.974,6.839 9.5,7.393 10.086,8.009C10.672,8.627 11.281,9.209 11.913,9.755C12.545,10.302 13.178,10.759 13.809,11.129C14.441,11.499 15.037,11.684 15.59,11.684C16.67,11.684 17.472,11.393 17.996,10.812C18.522,10.23 18.891,9.429 19.107,8.407C19.137,8.265 19.229,8.151 19.385,8.063C19.538,7.975 19.693,7.948 19.847,7.983C20.002,8.018 20.14,8.089 20.263,8.195C20.386,8.3 20.432,8.458 20.404,8.671C20.339,9.482 20.155,10.275 19.847,11.049C19.538,11.825 19.13,12.53 18.622,13.164C18.113,13.798 17.512,14.31 16.817,14.697C16.124,15.085 15.343,15.279 14.48,15.279C13.555,15.279 12.691,15.138 11.889,14.856C11.087,14.574 10.332,14.204 9.623,13.746C8.913,13.289 8.235,12.75 7.589,12.133C6.94,11.518 6.322,10.874 5.737,10.204C5.613,10.099 5.506,10.099 5.413,10.204C4.087,11.932 2.708,13.21 1.273,14.038C-0.161,14.864 -1.743,15.279 -3.468,15.279C-4.549,15.279 -5.573,15.111 -6.546,14.778C-7.517,14.442 -8.373,13.957 -9.113,13.323C-9.853,12.689 -10.439,11.887 -10.871,10.918C-11.303,9.949 -11.518,8.829 -11.518,7.56C-11.518,6.151 -11.341,4.926 -10.987,3.886C-10.633,2.847 -10.139,1.939 -9.506,1.163C-8.874,0.387 -8.141,-0.29 -7.308,-0.872C-6.475,-1.454 -5.581,-2.009 -4.625,-2.538C-5.118,-3.137 -5.598,-3.727 -6.059,-4.31C-6.523,-4.891 -6.939,-5.515 -7.308,-6.186C-7.678,-6.855 -7.972,-7.587 -8.188,-8.38C-8.404,-9.174 -8.511,-10.099 -8.511,-11.156C-8.511,-12.036 -8.357,-12.927 -8.049,-13.826C-7.742,-14.725 -7.27,-15.545 -6.638,-16.285C-6.006,-17.025 -5.189,-17.624 -4.186,-18.082C-3.186,-18.54 -1.988,-18.769 -0.601,-18.769C0.262,-18.769 1.142,-18.636 2.037,-18.373C2.93,-18.109 3.733,-17.703 4.442,-17.157C5.151,-16.61 5.729,-15.887 6.177,-14.988C6.623,-14.091 6.847,-13.006 6.847,-11.738C6.847,-10.68 6.623,-9.729 6.177,-8.884C5.729,-8.037 5.167,-7.278 4.488,-6.61C3.809,-5.94 3.07,-5.348 2.268,-4.838C1.465,-4.326 0.709,-3.877 0,-3.49M4.303,8.512C2.945,6.856 1.628,5.252 0.347,3.701C-0.932,2.15 -2.219,0.546 -3.516,-1.112C-4.595,-0.088 -5.358,1.039 -5.805,2.274C-6.252,3.508 -6.475,4.759 -6.475,6.026C-6.475,7.718 -6.114,9.085 -5.388,10.125C-4.665,11.165 -3.499,11.684 -1.895,11.684C-0.817,11.684 0.309,11.428 1.481,10.918C2.654,10.407 3.61,9.763 4.35,8.988C4.472,8.847 4.458,8.688 4.303,8.512M-1.017,-5.023C0.401,-5.797 1.426,-6.68 2.059,-7.667C2.691,-8.652 3.008,-9.94 3.008,-11.527C3.008,-12.373 2.9,-13.129 2.684,-13.8C2.468,-14.468 2.181,-15.033 1.827,-15.491C1.473,-15.949 1.08,-16.292 0.648,-16.522C0.216,-16.751 -0.216,-16.866 -0.646,-16.866C-1.48,-16.866 -2.151,-16.725 -2.659,-16.444C-3.168,-16.16 -3.569,-15.799 -3.862,-15.359C-4.156,-14.918 -4.355,-14.407 -4.464,-13.826C-4.571,-13.245 -4.625,-12.653 -4.625,-12.055C-4.625,-11.385 -4.503,-10.732 -4.256,-10.099C-4.009,-9.465 -3.709,-8.838 -3.354,-8.221C-3,-7.605 -2.614,-7.033 -2.197,-6.503C-1.781,-5.975 -1.387,-5.481 -1.017,-5.023" style="fill:rgb(163,163,163);fill-rule:nonzero;"/>
        </g>
        <g transform="matrix(4.16667,0,0,4.16667,341.387,52.6183)">
            <path d="M0,-37.221C1.388,-37.221 2.667,-37.027 3.84,-36.64C5.013,-36.251 6.169,-35.741 7.309,-35.106C7.65,-34.929 7.965,-34.762 8.258,-34.604C8.552,-34.445 8.805,-34.366 9.022,-34.366C9.514,-34.366 9.838,-34.701 9.992,-35.37C10.024,-35.511 10.124,-35.617 10.294,-35.688C10.463,-35.758 10.633,-35.784 10.802,-35.768C10.972,-35.749 11.118,-35.705 11.242,-35.635C11.365,-35.564 11.413,-35.458 11.38,-35.318C11.258,-34.753 11.173,-34.172 11.127,-33.573C11.08,-32.973 11.058,-32.357 11.058,-31.722C11.058,-30.735 11.118,-29.748 11.242,-28.762C11.365,-27.775 11.488,-26.753 11.612,-25.695C11.612,-25.553 11.543,-25.44 11.404,-25.352C11.265,-25.262 11.096,-25.211 10.895,-25.193C10.694,-25.175 10.502,-25.201 10.316,-25.273C10.131,-25.342 10.024,-25.466 9.992,-25.642C9.222,-28.815 7.973,-31.149 6.245,-32.647C4.518,-34.145 2.344,-34.895 -0.277,-34.895C-2.312,-34.895 -3.995,-34.402 -5.319,-33.414C-6.646,-32.427 -7.703,-31.149 -8.488,-29.581C-9.276,-28.012 -9.823,-26.285 -10.131,-24.4C-10.439,-22.515 -10.594,-20.673 -10.594,-18.875C-10.594,-16.901 -10.408,-14.926 -10.038,-12.954C-9.669,-10.98 -9.067,-9.199 -8.234,-7.613C-7.4,-6.027 -6.315,-4.732 -4.973,-3.727C-3.632,-2.723 -2.005,-2.22 -0.092,-2.22C1.388,-2.22 2.713,-2.37 3.885,-2.67C5.059,-2.969 6.046,-3.524 6.847,-4.336C7.834,-5.356 8.62,-6.582 9.207,-8.01C9.792,-9.438 10.209,-11.049 10.455,-12.847C10.486,-13.094 10.586,-13.252 10.755,-13.324C10.926,-13.394 11.104,-13.402 11.288,-13.35C11.473,-13.297 11.643,-13.2 11.797,-13.059C11.951,-12.919 12.013,-12.776 11.982,-12.636C11.889,-11.93 11.828,-11.235 11.797,-10.549C11.766,-9.861 11.751,-9.164 11.751,-8.459C11.751,-7.261 11.788,-6.036 11.867,-4.784C11.943,-3.535 12.013,-2.22 12.075,-0.846C12.075,-0.634 12.013,-0.475 11.889,-0.37C11.766,-0.265 11.619,-0.203 11.451,-0.185C11.281,-0.167 11.118,-0.203 10.964,-0.291C10.81,-0.38 10.717,-0.512 10.687,-0.687C10.625,-1.004 10.518,-1.313 10.363,-1.612C10.209,-1.912 10.008,-2.158 9.762,-2.353C9.514,-2.546 9.222,-2.643 8.882,-2.643C8.574,-2.643 8.219,-2.52 7.819,-2.273C7.14,-1.851 6.484,-1.489 5.853,-1.19C5.219,-0.89 4.581,-0.652 3.933,-0.475C3.285,-0.299 2.607,-0.177 1.898,-0.106C1.187,-0.035 0.417,0 -0.416,0C-5.875,0 -9.923,-1.56 -12.561,-4.679C-15.196,-7.799 -16.516,-12.266 -16.516,-18.082C-16.516,-21.183 -16.098,-23.923 -15.266,-26.304C-14.433,-28.683 -13.285,-30.683 -11.82,-32.304C-10.355,-33.925 -8.612,-35.15 -6.593,-35.978C-4.573,-36.807 -2.375,-37.221 0,-37.221" style="fill:rgb(163,163,163);fill-rule:nonzero;"/>
        </g>
        <g transform="matrix(4.16667,0,0,4.16667,485.376,2.38454)">
            <path d="M0,-1.373C0,0.777 -0.263,2.68 -0.787,4.336C-1.311,5.994 -2.058,7.387 -3.03,8.513C-4.002,9.642 -5.165,10.496 -6.523,11.077C-7.88,11.659 -9.391,11.949 -11.055,11.949C-12.507,11.949 -13.849,11.677 -15.081,11.131C-16.315,10.585 -17.379,9.775 -18.273,8.699C-19.168,7.624 -19.877,6.267 -20.4,4.628C-20.926,2.988 -21.188,1.059 -21.188,-1.162C-21.188,-2.961 -20.926,-4.607 -20.4,-6.106C-19.877,-7.604 -19.144,-8.882 -18.203,-9.938C-17.263,-10.996 -16.13,-11.825 -14.804,-12.423C-13.477,-13.023 -12.028,-13.322 -10.455,-13.322C-8.944,-13.322 -7.549,-13.058 -6.268,-12.529C-4.989,-12 -3.885,-11.234 -2.959,-10.229C-2.036,-9.224 -1.311,-7.982 -0.787,-6.501C-0.263,-5.021 0,-3.312 0,-1.373M-4.857,-0.792C-4.857,-2.131 -4.934,-3.435 -5.088,-4.703C-5.243,-5.973 -5.52,-7.1 -5.921,-8.088C-6.322,-9.075 -6.878,-9.867 -7.587,-10.467C-8.296,-11.066 -9.207,-11.366 -10.316,-11.366C-11.549,-11.366 -12.552,-11.066 -13.324,-10.467C-14.094,-9.867 -14.704,-9.065 -15.151,-8.062C-15.598,-7.057 -15.907,-5.92 -16.075,-4.652C-16.245,-3.383 -16.33,-2.061 -16.33,-0.686C-16.33,0.513 -16.254,1.747 -16.099,3.015C-15.945,4.284 -15.653,5.43 -15.22,6.451C-14.788,7.474 -14.194,8.32 -13.439,8.99C-12.683,9.659 -11.72,9.994 -10.547,9.994C-9.345,9.994 -8.372,9.676 -7.633,9.042C-6.892,8.408 -6.313,7.58 -5.898,6.558C-5.482,5.535 -5.205,4.382 -5.065,3.095C-4.927,1.807 -4.857,0.513 -4.857,-0.792" style="fill:rgb(163,163,163);fill-rule:nonzero;"/>
        </g>
        <g transform="matrix(4.16667,0,0,4.16667,498.1,27.7258)">
            <path d="M0,6.027C-0.709,6.027 -1.326,5.728 -1.851,5.128C-2.375,4.529 -2.637,3.824 -2.637,3.013C-2.637,2.204 -2.375,1.498 -1.851,0.899C-1.326,0.3 -0.709,0 0,0C0.771,0 1.403,0.3 1.898,0.899C2.391,1.498 2.637,2.204 2.637,3.013C2.637,3.824 2.391,4.529 1.898,5.128C1.403,5.728 0.771,6.027 0,6.027" style="fill:rgb(163,163,163);fill-rule:nonzero;"/>
        </g>
        <g transform="matrix(4.16667,0,0,4.16667,-97.5156,120.977)">
            <path d="M0,1.361L-77.167,1.361C-77.542,1.361 -77.846,1.056 -77.846,0.68C-77.846,0.305 -77.542,0 -77.167,0L0,0C0.375,0 0.68,0.305 0.68,0.68C0.68,1.056 0.375,1.361 0,1.361" style="fill:rgb(163,163,163);fill-rule:nonzero;"/>
        </g>
        <g transform="matrix(4.16667,0,0,4.16667,-41.4398,104.664)">
            <path d="M0,9.161L0,8.832C-0.201,8.783 -0.36,8.707 -0.476,8.604C-0.593,8.501 -0.692,8.358 -0.775,8.174C-0.858,7.991 -0.953,7.725 -1.06,7.376L-3.342,-0.107L-4.403,-0.107L-7.201,7.322C-7.376,7.788 -7.556,8.145 -7.741,8.396C-7.927,8.647 -8.145,8.792 -8.396,8.832L-8.396,9.161L-5.53,9.161L-5.53,8.832C-5.812,8.792 -6.021,8.709 -6.158,8.584C-6.294,8.459 -6.362,8.262 -6.362,7.993C-6.362,7.855 -6.344,7.7 -6.309,7.53C-6.273,7.36 -6.197,7.11 -6.08,6.779L-5.852,6.121L-2.725,6.121L-2.476,6.987C-2.409,7.206 -2.358,7.404 -2.322,7.581C-2.286,7.757 -2.268,7.922 -2.268,8.074C-2.268,8.235 -2.295,8.364 -2.349,8.46C-2.403,8.556 -2.484,8.631 -2.594,8.685C-2.704,8.738 -2.87,8.787 -3.094,8.832L-3.094,9.161L0,9.161ZM-4.141,1.208L-2.866,5.537L-5.671,5.537L-4.141,1.208ZM8.564,9.161L8.564,8.832C8.362,8.783 8.203,8.707 8.087,8.604C7.971,8.501 7.871,8.358 7.788,8.174C7.706,7.991 7.611,7.725 7.503,7.376L5.221,-0.107L4.161,-0.107L1.362,7.322C1.188,7.788 1.008,8.145 0.822,8.396C0.636,8.647 0.418,8.792 0.168,8.832L0.168,9.161L3.033,9.161L3.033,8.832C2.752,8.792 2.542,8.709 2.406,8.584C2.269,8.459 2.201,8.262 2.201,7.993C2.201,7.855 2.219,7.7 2.255,7.53C2.291,7.36 2.367,7.11 2.483,6.779L2.711,6.121L5.839,6.121L6.087,6.987C6.154,7.206 6.206,7.404 6.241,7.581C6.277,7.757 6.295,7.922 6.295,8.074C6.295,8.235 6.268,8.364 6.215,8.46C6.161,8.556 6.079,8.631 5.97,8.685C5.86,8.738 5.693,8.787 5.47,8.832L5.47,9.161L8.564,9.161ZM4.423,1.208L5.698,5.537L2.893,5.537L4.423,1.208ZM11.543,1.678C11.543,1.356 11.557,1.121 11.584,0.973C11.61,0.826 11.651,0.716 11.704,0.644C11.758,0.573 11.826,0.516 11.909,0.473C11.992,0.431 12.132,0.383 12.329,0.329L12.329,-0L9.503,-0L9.503,0.329C9.709,0.387 9.854,0.44 9.939,0.487C10.024,0.534 10.093,0.596 10.144,0.675C10.195,0.753 10.232,0.863 10.255,1.004C10.277,1.144 10.288,1.369 10.288,1.678L10.288,7.483C10.288,7.814 10.274,8.06 10.245,8.221C10.216,8.382 10.154,8.507 10.06,8.594C9.966,8.681 9.78,8.761 9.503,8.832L9.503,9.161L15.536,9.161L15.671,6.463L14.993,6.463C14.903,6.87 14.828,7.176 14.768,7.379C14.708,7.583 14.644,7.752 14.577,7.886C14.51,8.02 14.439,8.129 14.365,8.211C14.292,8.294 14.209,8.359 14.117,8.406C14.025,8.453 13.915,8.488 13.785,8.51C13.655,8.532 13.494,8.544 13.302,8.544L11.543,8.544L11.543,1.678ZM20.335,9.161C21.028,9.161 21.619,9.075 22.107,8.903C22.594,8.73 22.974,8.452 23.244,8.067C23.515,7.682 23.65,7.186 23.65,6.577C23.65,6.049 23.494,5.594 23.181,5.211C22.867,4.829 22.406,4.546 21.798,4.362L21.798,4.302C22.178,4.141 22.489,3.967 22.731,3.779C22.973,3.591 23.168,3.354 23.318,3.067C23.468,2.781 23.543,2.443 23.543,2.054C23.543,1.584 23.438,1.2 23.228,0.903C23.017,0.605 22.696,0.381 22.264,0.228C21.833,0.076 21.261,-0 20.55,-0L16.879,-0L16.879,0.329C17.084,0.387 17.23,0.44 17.315,0.487C17.4,0.534 17.468,0.596 17.52,0.675C17.571,0.753 17.608,0.863 17.63,1.004C17.653,1.144 17.664,1.369 17.664,1.678L17.664,7.483C17.664,7.814 17.649,8.06 17.62,8.221C17.591,8.382 17.53,8.507 17.436,8.594C17.342,8.681 17.156,8.761 16.879,8.832L16.879,9.161L20.335,9.161ZM18.919,4.107L18.919,0.631C19.058,0.622 19.266,0.613 19.543,0.604C19.82,0.595 20.044,0.591 20.214,0.591C20.496,0.591 20.758,0.617 20.999,0.668C21.241,0.719 21.45,0.806 21.627,0.926C21.804,1.047 21.942,1.209 22.043,1.413C22.144,1.617 22.194,1.873 22.194,2.181C22.194,2.808 22.014,3.285 21.654,3.614C21.294,3.943 20.773,4.107 20.093,4.107L18.919,4.107ZM18.919,4.698L19.959,4.698C20.541,4.698 20.997,4.767 21.328,4.906C21.659,5.045 21.904,5.255 22.063,5.537C22.222,5.819 22.301,6.177 22.301,6.611C22.301,7.045 22.229,7.406 22.083,7.695C21.938,7.983 21.703,8.201 21.379,8.349C21.054,8.497 20.599,8.57 20.013,8.57C19.61,8.57 19.245,8.555 18.919,8.523L18.919,4.698ZM30.855,8.731C31.425,8.374 31.867,7.834 32.18,7.114C32.493,6.394 32.65,5.51 32.65,4.463C32.65,3.483 32.513,2.652 32.237,1.97C31.962,1.288 31.553,0.771 31.009,0.42C30.466,0.068 29.796,-0.107 28.999,-0.107C28.252,-0.107 27.595,0.08 27.029,0.453C26.463,0.827 26.028,1.372 25.724,2.087C25.42,2.803 25.268,3.66 25.268,4.658C25.268,5.468 25.354,6.163 25.526,6.745C25.698,7.327 25.942,7.804 26.258,8.178C26.573,8.551 26.951,8.827 27.392,9.003C27.833,9.18 28.321,9.268 28.858,9.268C29.619,9.268 30.284,9.089 30.855,8.731M26.781,2.826C26.868,2.333 27.007,1.914 27.197,1.567C27.387,1.221 27.627,0.953 27.915,0.765C28.204,0.577 28.55,0.483 28.952,0.483C29.409,0.483 29.809,0.629 30.154,0.92C30.498,1.211 30.77,1.677 30.969,2.319C31.168,2.961 31.268,3.77 31.268,4.745C31.268,5.546 31.183,6.246 31.013,6.846C30.842,7.445 30.587,7.9 30.247,8.211C29.907,8.522 29.494,8.678 29.006,8.678C28.236,8.678 27.651,8.32 27.251,7.604C26.85,6.888 26.65,5.843 26.65,4.47C26.65,3.866 26.694,3.318 26.781,2.826M37.046,5.181C37.265,5.181 37.43,5.194 37.539,5.218C37.649,5.243 37.752,5.288 37.848,5.352C37.944,5.417 38.049,5.53 38.163,5.691C38.277,5.852 38.424,6.103 38.603,6.443L39.194,7.564C39.341,7.846 39.491,8.123 39.643,8.396C39.795,8.669 39.956,8.924 40.126,9.161L41.985,9.161L41.985,8.832C41.771,8.796 41.598,8.734 41.469,8.644C41.339,8.555 41.211,8.425 41.086,8.255C40.961,8.085 40.811,7.839 40.636,7.517L40.032,6.416C39.795,5.978 39.579,5.654 39.385,5.446C39.19,5.238 38.956,5.078 38.684,4.966L38.684,4.913C39.359,4.671 39.866,4.336 40.204,3.906C40.541,3.477 40.71,2.955 40.71,2.342C40.71,1.542 40.451,0.951 39.932,0.571C39.413,0.19 38.63,-0 37.583,-0L34.261,-0L34.261,0.329C34.467,0.387 34.612,0.44 34.697,0.487C34.782,0.534 34.85,0.596 34.902,0.675C34.953,0.753 34.99,0.863 35.012,1.004C35.035,1.144 35.046,1.369 35.046,1.678L35.046,7.483C35.046,7.814 35.031,8.06 35.002,8.221C34.973,8.382 34.912,8.507 34.818,8.594C34.724,8.681 34.538,8.761 34.261,8.832L34.261,9.161L37.093,9.161L37.093,8.832C36.887,8.774 36.742,8.721 36.657,8.674C36.572,8.627 36.505,8.567 36.455,8.493C36.406,8.419 36.369,8.31 36.345,8.164C36.32,8.019 36.308,7.785 36.308,7.463L36.308,5.181L37.046,5.181ZM37.288,0.591C37.789,0.591 38.187,0.665 38.482,0.812C38.777,0.96 38.998,1.175 39.143,1.457C39.289,1.738 39.361,2.092 39.361,2.517C39.361,2.924 39.3,3.268 39.177,3.547C39.054,3.827 38.889,4.045 38.684,4.201C38.478,4.358 38.254,4.464 38.012,4.52C37.771,4.576 37.455,4.604 37.066,4.604L36.308,4.604L36.308,0.618C36.558,0.6 36.885,0.591 37.288,0.591M48.945,6.799C48.945,6.521 48.953,6.308 48.968,6.158C48.984,6.008 49.013,5.882 49.056,5.779C49.098,5.676 49.16,5.59 49.24,5.52C49.321,5.451 49.442,5.389 49.603,5.336L49.603,5.007L46.891,5.007L46.891,5.336C47.137,5.398 47.314,5.479 47.422,5.577C47.529,5.676 47.604,5.814 47.646,5.993C47.689,6.172 47.71,6.463 47.71,6.866L47.71,7.268C47.71,7.747 47.583,8.102 47.328,8.332C47.073,8.563 46.681,8.678 46.153,8.678C45.656,8.678 45.238,8.52 44.898,8.205C44.558,7.889 44.302,7.421 44.13,6.799C43.957,6.177 43.871,5.427 43.871,4.55C43.871,3.687 43.973,2.95 44.177,2.339C44.38,1.728 44.665,1.266 45.032,0.953C45.399,0.64 45.826,0.483 46.314,0.483C46.668,0.483 46.96,0.532 47.19,0.628C47.42,0.724 47.618,0.885 47.784,1.111C47.949,1.337 48.093,1.651 48.213,2.054L48.878,2.054L48.878,0.208C48.408,0.092 47.981,0.01 47.596,-0.037C47.211,-0.084 46.811,-0.107 46.395,-0.107C45.603,-0.107 44.914,0.086 44.328,0.473C43.741,0.86 43.292,1.414 42.979,2.134C42.665,2.855 42.509,3.691 42.509,4.644C42.509,6.175 42.795,7.328 43.368,8.104C43.941,8.88 44.793,9.268 45.925,9.268C46.337,9.268 46.701,9.226 47.019,9.141C47.336,9.056 47.641,8.924 47.932,8.745L48.422,9.268L48.945,9.127L48.945,6.799Z" style="fill:rgb(163,163,163);fill-rule:nonzero;"/>
        </g>
    </g>
</svg>
