<?xml version="1.0" encoding="UTF-8" standalone="no"?>
<!DOCTYPE svg PUBLIC "-//W3C//DTD SVG 1.1//EN" "http://www.w3.org/Graphics/SVG/1.1/DTD/svg11.dtd">
<svg width="100%" height="100%" viewBox="0 0 90 40" version="1.1" xmlns="http://www.w3.org/2000/svg" xmlns:xlink="http://www.w3.org/1999/xlink" xml:space="preserve" xmlns:serif="http://www.serif.com/" style="fill-rule:evenodd;clip-rule:evenodd;stroke-linejoin:round;stroke-miterlimit:2;">
    <g transform="matrix(0.299012,0,0,0.299012,-29.6521,-17.52)">
        <path d="M243.05,82.716C240.844,84.537 239.36,87.084 238.865,89.9C238.007,95.783 242.055,100.324 247.954,100.324C253.969,100.324 259.005,96.276 259.868,90.632C260.847,84.62 256.791,79.962 250.901,79.962C248.039,79.918 245.256,80.894 243.05,82.716ZM192.09,132.043C192.231,129.297 192.189,126.543 191.965,123.797L146.975,123.797L139.353,139.448L172.854,139.448C170.305,148.487 160.746,154.207 149.288,154.207C131.954,154.207 120.496,142.63 120.496,126.217C120.496,110.183 132.22,98.48 147.883,98.48C159.732,98.48 166.739,104.576 170.317,111.711L189.8,111.711C185.079,93.64 169.922,81.422 147.879,81.422C121.639,81.422 102.407,100.506 102.407,126.213C102.407,152.166 121.389,171 149.288,170.954C174.901,170.954 191.069,152.781 192.09,132.039L192.09,132.043ZM208.9,82.826L195.148,169.596L212.732,169.596L226.48,82.826L208.9,82.826ZM228.125,169.6L237.551,109.796L255.132,109.796L245.709,169.596L228.128,169.596L228.125,169.6ZM333.596,82.826L316.016,82.826L310.661,116.282C307.478,111.578 301.751,108.4 293.471,108.4C279.457,108.4 264.558,117.815 261.493,137.153C257.798,160.565 273.084,171 284.934,171C292.833,171 299.331,167.814 303.916,162.09L307.71,169.6L327.223,169.6L322.837,153.638L333.596,82.826ZM295.123,123.668C301.876,123.668 309.138,129.775 307.478,140.464C305.697,151.916 297.034,155.732 290.915,155.732C282.894,155.732 277.038,148.859 278.561,139.061C279.966,129.775 286.715,123.668 295.127,123.668L295.123,123.668ZM396.786,145.426L351.815,145.426C353.729,153.058 359.08,156.87 366.463,156.87C373.22,156.87 376.778,155.216 379.205,151.525L395.13,151.525C391.309,165.394 378.696,170.985 366.847,170.985C347.865,170.985 335.514,157.621 335.514,139.679C335.514,121.87 348.248,108.385 366.338,108.385C384.427,108.385 396.918,121.889 396.918,139.698C396.918,142.118 396.918,143.006 396.786,145.426ZM351.686,133.716L380.876,133.716C379.729,127.229 373.611,122.647 366.349,122.647C358.693,122.647 353.372,127.101 351.689,133.716L351.686,133.716Z" style="fill:rgb(163,163,163);"/>
    </g>
</svg>
