<svg width="22" height="22" viewBox="0 0 22 22" fill="none" xmlns="http://www.w3.org/2000/svg">
<path d="M20.6278 11.2138C20.6278 10.4224 20.5623 9.84488 20.4204 9.246H11.1992V12.8179H16.6119C16.5028 13.7056 15.9135 15.0424 14.604 15.9407L14.5856 16.0602L17.5012 18.2737L17.7032 18.2935C19.5583 16.6145 20.6278 14.144 20.6278 11.2138Z" fill="#4285F4"/>
<path d="M11.1957 20.625C13.8474 20.625 16.0736 19.7694 17.6996 18.2936L14.6004 15.9407C13.7711 16.5075 12.6579 16.9032 11.1957 16.9032C8.59848 16.9032 6.39414 15.2242 5.60835 12.9035L5.49317 12.9131L2.46152 15.2125L2.42188 15.3205C4.03693 18.4646 7.35439 20.625 11.1957 20.625Z" fill="#34A853"/>
<path d="M5.60908 12.9036C5.40174 12.3047 5.28175 11.663 5.28175 11C5.28175 10.3369 5.40174 9.69524 5.59817 9.09636L5.59268 8.96881L2.52303 6.63257L2.42259 6.67938C1.75695 7.98412 1.375 9.44929 1.375 11C1.375 12.5507 1.75695 14.0158 2.42259 15.3205L5.60908 12.9036Z" fill="#FBBC05"/>
<path d="M11.1957 5.09664C13.0399 5.09664 14.284 5.87733 14.9933 6.52974L17.7651 3.8775C16.0628 2.32681 13.8475 1.375 11.1957 1.375C7.35441 1.375 4.03694 3.53526 2.42188 6.6794L5.59746 9.09638C6.39416 6.77569 8.59851 5.09664 11.1957 5.09664Z" fill="#EB4335"/>
</svg>
