<svg width="246" height="80" viewBox="0 0 246 80" fill="none" xmlns="http://www.w3.org/2000/svg">
<path d="M145.854 23.0981C140.816 23.0981 135.891 27.6603 135.325 34.2522V23.6415H128.09V55.6355H135.414V40.1491C135.414 35.811 138.489 29.6916 145.854 29.6916V23.0981Z" fill="#163300"/>
<path d="M222.675 50.5135V28.5939H226.917C232.573 28.5939 237.17 32.1293 237.17 39.377C237.17 46.6245 232.573 50.5135 226.917 50.5135H222.675ZM215.427 55.6399H227.801C235.402 55.6399 244.771 50.6903 244.771 39.377C244.771 28.2403 235.402 23.6442 227.801 23.6442H215.427V55.6399Z" fill="#163300"/>
<path d="M187.695 39.7309C187.695 33.8974 190.7 29.1246 195.65 29.1246C200.423 29.1246 203.074 33.8974 203.074 39.7309C203.074 45.5643 200.423 50.3371 195.65 50.3371C190.7 50.3371 187.695 45.5643 187.695 39.7309ZM180.271 40.0843C180.271 49.63 185.22 56.3474 192.998 56.3474C198.655 56.3474 202.013 52.6352 203.781 46.6249V55.6403H211.027V23.6446H203.781V32.1297C202.191 26.473 198.832 23.1143 193.529 23.1143C185.574 23.1143 180.271 30.362 180.271 40.0843Z" fill="#163300"/>
<path d="M15.2287 56.3474C6.2133 56.3474 0.910156 49.0998 0.910156 40.0843C0.910156 30.7155 6.74362 23.1143 17.8802 23.1143C29.3704 23.1143 33.2594 30.8923 33.4361 35.3115H25.1279C24.9511 32.8368 22.8298 29.1246 17.7034 29.1246C12.2235 29.1246 8.68811 33.8974 8.68811 39.7309C8.68811 45.5643 12.2235 50.3371 17.7034 50.3371C22.653 50.3371 24.7743 46.4482 25.6582 42.5592H17.7034V39.3773H34.3951V55.6403H27.0723V45.3875C26.542 49.0998 24.244 56.3474 15.2287 56.3474Z" fill="#163300"/>
<path d="M49.2424 56.347C42.3484 56.347 38.1059 51.7509 38.1059 42.5588V23.6442H45.5302V42.5588C45.5302 47.3316 47.8283 49.6297 51.7172 49.6297C59.3184 49.6297 62.1468 40.2607 62.1468 33.7202V23.6442H69.5711V55.6399H62.3235V43.7962C60.9093 50.3367 57.0204 56.347 49.2424 56.347Z" fill="#163300"/>
<path d="M113.937 23.0975C107.603 23.0975 103.607 29.2165 102.303 34.8741C102.08 27.2922 98.3512 23.0975 92.3853 23.0975C87.2311 23.0975 82.4492 27.694 81.2073 34.9657V23.6418H73.9697V55.6382H81.3001V44.1677C81.3001 41.3239 82.4856 29.654 89.8648 29.654C94.645 29.654 95.1434 33.9659 95.1434 39.86V55.6382H102.47V44.1677C102.47 41.3239 103.705 29.654 111.084 29.654C115.86 29.654 116.354 33.9659 116.354 39.86V55.6382H123.691V36.7125C123.724 27.6331 120.518 23.0975 113.937 23.0975Z" fill="#163300"/>
<path d="M161.581 23.0975C152.091 23.0975 145.661 30.5384 145.661 39.7224C145.661 49.842 151.777 56.3472 161.581 56.3472C171.07 56.3472 177.615 48.9065 177.615 39.7224C177.615 29.603 171.381 23.0975 161.581 23.0975ZM161.581 50.6837C156.056 50.6837 152.478 46.0067 152.478 39.7224C152.478 33.4382 156.069 28.761 161.581 28.761C167.092 28.761 170.54 33.4382 170.54 39.7224C170.54 46.0067 167.089 50.6837 161.581 50.6837Z" fill="#163300"/>
</svg>
