<svg width="124" height="40" viewBox="0 0 124 40" fill="none" xmlns="http://www.w3.org/2000/svg">
<g clip-path="url(#clip0_630_1202)">
<path d="M73.6766 11.549C71.1577 11.549 68.6952 13.8301 68.412 17.1261V11.8207H64.7945V27.8177H68.4563V20.0745C68.4563 17.9055 69.9938 14.8458 73.6766 14.8458V11.549Z" fill="#A3A3A3"/>
<path d="M112.087 25.2568V14.2969H114.208C117.036 14.2969 119.335 16.0646 119.335 19.6885C119.335 23.3122 117.036 25.2568 114.208 25.2568H112.087ZM108.463 27.82H114.65C118.451 27.82 123.135 25.3452 123.135 19.6885C123.135 14.1201 118.451 11.8221 114.65 11.8221H108.463V27.82Z" fill="#A3A3A3"/>
<path d="M94.5973 19.8654C94.5973 16.9487 96.0998 14.5622 98.5744 14.5622C100.961 14.5622 102.287 16.9487 102.287 19.8654C102.287 22.7821 100.961 25.1686 98.5744 25.1686C96.0998 25.1686 94.5973 22.7821 94.5973 19.8654ZM90.885 20.0421C90.885 24.815 93.3597 28.1737 97.2487 28.1737C100.077 28.1737 101.756 26.3176 102.64 23.3124V27.8202H106.263V11.8223H102.64V16.0648C101.845 13.2364 100.166 11.5571 97.5142 11.5571C93.5365 11.5571 90.885 15.1809 90.885 20.0421Z" fill="#A3A3A3"/>
<path d="M8.36363 28.1737C3.85593 28.1737 1.20435 24.5499 1.20435 20.0421C1.20435 15.3577 4.12109 11.5571 9.6894 11.5571C15.4345 11.5571 17.379 15.4461 17.4674 17.6557H13.3132C13.2248 16.4183 12.1642 14.5622 9.601 14.5622C6.86105 14.5622 5.09334 16.9487 5.09334 19.8654C5.09334 22.7821 6.86105 25.1686 9.601 25.1686C12.0758 25.1686 13.1364 23.2241 13.5784 21.2796H9.601V19.6886H17.9469V27.8202H14.2855V22.6937C14.0203 24.5499 12.8713 28.1737 8.36363 28.1737Z" fill="#A3A3A3"/>
<path d="M25.3706 28.1735C21.9235 28.1735 19.8023 25.8754 19.8023 21.2794V11.8221H23.5144V21.2794C23.5144 23.6658 24.6635 24.8148 26.6079 24.8148C30.4086 24.8148 31.8228 20.1303 31.8228 16.8601V11.8221H35.5349V27.82H31.9111V21.8981C31.204 25.1684 29.2596 28.1735 25.3706 28.1735Z" fill="#A3A3A3"/>
<path d="M57.7181 11.5487C54.5509 11.5487 52.553 14.6082 51.9008 17.437C51.7893 13.646 49.925 11.5487 46.9421 11.5487C44.365 11.5487 41.974 13.847 41.3531 17.4828V11.8208H37.7343V27.8191H41.3994V22.0838C41.3994 20.6619 41.9922 14.827 45.6818 14.827C48.0719 14.827 48.3211 16.9829 48.3211 19.93V27.8191H51.9846V22.0838C51.9846 20.6619 52.6019 14.827 56.2915 14.827C58.6797 14.827 58.9263 16.9829 58.9263 19.93V27.8191H62.5948V18.3562C62.6114 13.8165 61.0086 11.5487 57.7181 11.5487Z" fill="#A3A3A3"/>
<path d="M81.54 11.5487C76.7953 11.5487 73.5802 15.2691 73.5802 19.8612C73.5802 24.921 76.6379 28.1736 81.54 28.1736C86.2848 28.1736 89.557 24.4533 89.557 19.8612C89.557 14.8014 86.44 11.5487 81.54 11.5487ZM81.54 25.3419C78.7778 25.3419 76.9887 23.0033 76.9887 19.8612C76.9887 16.719 78.7839 14.3804 81.54 14.3804C84.2957 14.3804 86.0193 16.719 86.0193 19.8612C86.0193 23.0033 84.294 25.3419 81.54 25.3419Z" fill="#A3A3A3"/>
</g>
<defs>
<clipPath id="clip0_630_1202">
<rect width="123" height="40" fill="white" transform="translate(0.25)"/>
</clipPath>
</defs>
</svg>
