<svg width="124" height="40" viewBox="0 0 124 40" fill="none" xmlns="http://www.w3.org/2000/svg">
<g clip-path="url(#clip0_608_3592)">
<path d="M73.6767 11.549C71.1577 11.549 68.6953 13.8301 68.4121 17.1261V11.8207H64.7946V27.8177H68.4564V20.0745C68.4564 17.9055 69.9938 14.8458 73.6767 14.8458V11.549Z" fill="white" fill-opacity="0.7"/>
<path d="M112.087 25.2568V14.2969H114.208C117.036 14.2969 119.335 16.0646 119.335 19.6885C119.335 23.3122 117.036 25.2568 114.208 25.2568H112.087ZM108.463 27.82H114.65C118.451 27.82 123.135 25.3452 123.135 19.6885C123.135 14.1201 118.451 11.8221 114.65 11.8221H108.463V27.82Z" fill="white" fill-opacity="0.7"/>
<path d="M94.5973 19.8654C94.5973 16.9487 96.0998 14.5622 98.5745 14.5622C100.961 14.5622 102.287 16.9487 102.287 19.8654C102.287 22.7821 100.961 25.1686 98.5745 25.1686C96.0998 25.1686 94.5973 22.7821 94.5973 19.8654ZM90.8851 20.0421C90.8851 24.815 93.3597 28.1737 97.2488 28.1737C100.077 28.1737 101.756 26.3176 102.64 23.3124V27.8202H106.263V11.8223H102.64V16.0648C101.845 13.2364 100.166 11.5571 97.5143 11.5571C93.5365 11.5571 90.8851 15.1809 90.8851 20.0421Z" fill="white" fill-opacity="0.7"/>
<path d="M8.36369 28.1737C3.85599 28.1737 1.20441 24.5499 1.20441 20.0421C1.20441 15.3577 4.12115 11.5571 9.68946 11.5571C15.4346 11.5571 17.3791 15.4461 17.4674 17.6557H13.3133C13.2249 16.4183 12.1643 14.5622 9.60106 14.5622C6.86111 14.5622 5.0934 16.9487 5.0934 19.8654C5.0934 22.7821 6.86111 25.1686 9.60106 25.1686C12.0759 25.1686 13.1365 23.2241 13.5784 21.2796H9.60106V19.6886H17.947V27.8202H14.2855V22.6937C14.0204 24.5499 12.8714 28.1737 8.36369 28.1737Z" fill="white" fill-opacity="0.7"/>
<path d="M25.3706 28.1735C21.9236 28.1735 19.8023 25.8754 19.8023 21.2794V11.8221H23.5145V21.2794C23.5145 23.6658 24.6635 24.8148 26.608 24.8148C30.4086 24.8148 31.8228 20.1303 31.8228 16.8601V11.8221H35.535V27.82H31.9112V21.8981C31.2041 25.1684 29.2596 28.1735 25.3706 28.1735Z" fill="white" fill-opacity="0.7"/>
<path d="M57.7182 11.5487C54.551 11.5487 52.553 14.6082 51.9009 17.437C51.7893 13.646 49.9251 11.5487 46.9422 11.5487C44.365 11.5487 41.9741 13.847 41.3531 17.4828V11.8208H37.7343V27.8191H41.3995V22.0838C41.3995 20.6619 41.9923 14.827 45.6819 14.827C48.072 14.827 48.3212 16.9829 48.3212 19.93V27.8191H51.9847V22.0838C51.9847 20.6619 52.602 14.827 56.2915 14.827C58.6798 14.827 58.9264 16.9829 58.9264 19.93V27.8191H62.5949V18.3562C62.6115 13.8165 61.0086 11.5487 57.7182 11.5487Z" fill="white" fill-opacity="0.7"/>
<path d="M81.5401 11.5487C76.7953 11.5487 73.5802 15.2691 73.5802 19.8612C73.5802 24.921 76.6379 28.1736 81.5401 28.1736C86.2849 28.1736 89.557 24.4533 89.557 19.8612C89.557 14.8014 86.4401 11.5487 81.5401 11.5487ZM81.5401 25.3419C78.7778 25.3419 76.9888 23.0033 76.9888 19.8612C76.9888 16.719 78.7839 14.3804 81.5401 14.3804C84.2957 14.3804 86.0194 16.719 86.0194 19.8612C86.0194 23.0033 84.2941 25.3419 81.5401 25.3419Z" fill="white" fill-opacity="0.7"/>
</g>
<defs>
<clipPath id="clip0_608_3592">
<rect width="123" height="40" fill="white" transform="translate(0.25)"/>
</clipPath>
</defs>
</svg>
