<svg width="141" height="40" viewBox="0 0 141 40" fill="none" xmlns="http://www.w3.org/2000/svg">
<g clip-path="url(#clip0_608_3597)">
<path fill-rule="evenodd" clip-rule="evenodd" d="M64.6864 24.3818C63.7151 24.6058 63.2126 24.307 63.2126 23.6636C63.2126 22.782 64.124 22.4292 65.4262 22.4292C65.9989 22.4292 66.5392 22.4786 66.5392 22.4786C66.5392 22.856 65.7192 24.1436 64.6864 24.3818ZM65.6747 15.556C62.5655 15.556 60.3332 16.6994 60.3332 16.6994V20.0605C60.3332 20.0605 62.7978 18.6437 64.7974 18.6437C66.3925 18.6437 66.5887 19.5044 66.5164 20.2185C66.5164 20.2185 66.0559 20.0967 64.6519 20.0967C61.3423 20.0967 59.6723 21.6008 59.6723 24.0123C59.6723 26.2999 61.5493 27.2558 63.1311 27.2558C65.4387 27.2558 66.4536 25.7047 66.7649 24.9691C66.9815 24.4587 67.0214 24.1145 67.215 24.1145C67.4374 24.1145 67.3626 24.3614 67.3514 24.8693C67.3331 25.7591 67.3755 26.4316 67.5164 26.9985H70.5766V21.494C70.5766 18.0572 69.3605 15.556 65.6747 15.556Z" fill="white" fill-opacity="0.7"/>
<path fill-rule="evenodd" clip-rule="evenodd" d="M85.8162 21.4115C85.8162 20.4061 86.7509 19.4905 88.4666 19.4905C90.3356 19.4905 91.8398 20.3907 92.1769 20.5952V16.7042C92.1769 16.7042 90.989 15.5604 88.0693 15.5604C84.9916 15.5604 82.4284 17.3613 82.4284 21.2378C82.4284 25.1139 84.7547 27.2635 88.061 27.2635C90.6441 27.2635 92.1835 25.8441 92.1835 25.8441V22.1488C91.6964 22.421 90.3394 23.3633 88.4853 23.3633C86.5223 23.3633 85.8162 22.4597 85.8162 21.4115ZM44.9147 15.8151C44.9152 15.8176 45.1101 16.6539 44.8532 17.7474C44.7223 18.3035 44.4817 18.7764 44.7722 18.7764C44.9725 18.7764 44.9729 18.6102 45.2335 18.0142C45.6146 17.1431 46.418 15.5575 48.2954 15.5575C50.0801 15.5575 50.9209 16.6418 51.1994 17.6572C51.4113 18.4286 51.226 18.7764 51.4845 18.7764C51.6682 18.7764 51.7318 18.3762 51.9579 17.87C52.3639 16.9631 53.2471 15.5575 55.0335 15.5575C57.7288 15.5575 58.7579 17.5038 58.7579 20.4236V27.0025H54.7538V20.9373C54.7538 19.9261 54.5904 18.9452 53.6686 18.9452C52.8145 18.9452 52.4163 20.4589 52.4163 21.436V27.005H48.3386V20.9377C48.3386 19.6439 48.1562 18.9456 47.2468 18.9456C46.4596 18.9456 46.0003 20.3384 46.0003 21.4364V27.0029H41.9389V15.8151H44.9147ZM71.9094 15.8305C71.9111 15.8313 72.6023 16.2299 73.9439 16.2299C75.288 16.2299 75.9705 15.8305 75.9705 15.8305V27.0054H71.9094V15.8305ZM105.437 15.8305C105.439 15.8313 106.13 16.2299 107.472 16.2299C108.816 16.2299 109.499 15.8305 109.499 15.8305V27.0054H105.437V15.8305ZM81.3461 12.4282V27.0054H77.2847V12.4282H81.3461ZM97.0035 12.4282C97.0039 12.4295 97.1718 12.8484 97.1718 14.0945C97.1718 15.9344 96.7716 17.4319 96.5825 18.0026C96.4823 18.3047 96.3036 18.771 96.56 18.7794C96.708 18.7839 96.7969 18.5612 96.9781 18.1746C97.1585 17.7877 98.0529 15.5599 100.404 15.5599C103.642 15.5599 104.118 18.2116 104.118 21.0832V27.005H100.057V20.84C100.057 19.5757 99.7915 18.9477 98.944 18.9477C97.9208 18.9477 97.5592 20.532 97.5592 21.4389V27.005H93.4977V12.4278L97.0035 12.4282ZM113.847 15.8151C113.847 15.8176 114.042 16.6539 113.785 17.7474C113.654 18.3035 113.414 18.7764 113.704 18.7764C113.904 18.7764 113.905 18.6102 114.165 18.0142C114.546 17.1431 115.35 15.5575 117.227 15.5575C119.093 15.5575 119.834 16.6468 120.131 17.6572C120.331 18.3342 120.158 18.7764 120.416 18.7764C120.6 18.7764 120.664 18.3762 120.89 17.87C121.295 16.9631 122.179 15.5575 123.965 15.5575C126.661 15.5575 127.69 17.5038 127.69 20.4236V27.0025H123.686V20.9373C123.686 19.9261 123.522 18.9452 122.6 18.9452C121.746 18.9452 121.348 20.4589 121.348 21.436V27.005H117.27V20.9377C117.27 19.6439 117.088 18.9456 116.179 18.9456C115.391 18.9456 114.932 20.3384 114.932 21.4364V27.0029H110.871V15.8151H113.847ZM73.9277 12.3152C72.5553 12.3152 71.4419 13.0417 71.4419 13.9378C71.4419 14.8339 72.5549 15.5604 73.9277 15.5604C75.3009 15.5604 76.414 14.8339 76.414 13.9378C76.414 13.0417 75.3013 12.3152 73.9277 12.3152ZM107.456 12.3152C106.083 12.3152 104.97 13.0417 104.97 13.9378C104.97 14.8339 106.083 15.5604 107.456 15.5604C108.829 15.5604 109.942 14.8339 109.942 13.9378C109.942 13.0417 108.829 12.3152 107.456 12.3152Z" fill="white" fill-opacity="0.7"/>
<path fill-rule="evenodd" clip-rule="evenodd" d="M134.608 24.5946C133.677 24.5946 132.992 23.4138 132.992 21.7683C132.992 20.1703 133.695 18.9429 134.576 18.9429C135.705 18.9429 136.187 19.9791 136.187 21.7683C136.187 23.6299 135.743 24.5946 134.608 24.5946ZM135.722 15.5535C133.635 15.5535 132.678 17.1184 132.263 18.0099C131.988 18.5988 132.002 18.7721 131.801 18.7721C131.512 18.7721 131.752 18.2991 131.883 17.743C132.14 16.6479 131.945 15.8112 131.945 15.8112H128.971V30.085H133.03V25.5597C133.51 26.3747 134.4 27.2454 135.772 27.2454C138.709 27.2454 140.186 24.7612 140.186 21.4051C140.186 17.6013 138.418 15.5535 135.723 15.5535" fill="white" fill-opacity="0.7"/>
<path fill-rule="evenodd" clip-rule="evenodd" d="M27.5818 18.931C27.8548 18.8986 28.1163 18.8969 28.3569 18.931C28.4961 18.6118 28.5198 18.0619 28.3947 17.463C28.2089 16.5727 27.9571 16.0341 27.4367 16.118C26.9164 16.202 26.8972 16.847 27.0834 17.7369C27.1882 18.2377 27.3744 18.6658 27.5818 18.931Z" fill="white" fill-opacity="0.7"/>
<path fill-rule="evenodd" clip-rule="evenodd" d="M23.1175 19.6355C23.4895 19.7988 23.7185 19.9073 23.8079 19.8125C23.8656 19.7535 23.8482 19.6409 23.7592 19.4958C23.5755 19.1962 23.1977 18.8919 22.7967 18.7211C21.977 18.3683 20.9991 18.4855 20.2447 19.0274C19.9958 19.2099 19.7597 19.4626 19.7934 19.616C19.8042 19.6654 19.8416 19.7028 19.9289 19.7153C20.1342 19.7386 20.8515 19.3761 21.6782 19.3254C22.2613 19.2897 22.7451 19.4722 23.1175 19.6355Z" fill="white" fill-opacity="0.7"/>
<path fill-rule="evenodd" clip-rule="evenodd" d="M22.3704 20.0628C21.8854 20.1393 21.6181 20.2993 21.4465 20.4477C21.3002 20.5757 21.2096 20.7174 21.2104 20.8167C21.2108 20.8641 21.2312 20.8915 21.2474 20.9053C21.2694 20.9248 21.2956 20.9356 21.3272 20.9356C21.4365 20.9356 21.6821 20.8371 21.6821 20.8371C22.3567 20.5956 22.8018 20.6251 23.2428 20.675C23.4863 20.7024 23.6019 20.7174 23.6551 20.6339C23.6709 20.6098 23.69 20.5578 23.6414 20.4788C23.5279 20.2947 23.0379 19.9834 22.3704 20.0628Z" fill="white" fill-opacity="0.7"/>
<path fill-rule="evenodd" clip-rule="evenodd" d="M26.0753 21.6306C26.4045 21.7923 26.7669 21.7287 26.885 21.4889C27.003 21.2491 26.8318 20.9232 26.5026 20.7616C26.1734 20.5999 25.811 20.6635 25.693 20.9033C25.5749 21.1435 25.7462 21.469 26.0753 21.6306Z" fill="white" fill-opacity="0.7"/>
<path fill-rule="evenodd" clip-rule="evenodd" d="M28.192 19.7816C27.9247 19.7771 27.7028 20.0705 27.6965 20.4375C27.6903 20.8045 27.9023 21.105 28.1695 21.1096C28.4368 21.1141 28.6587 20.8207 28.665 20.4537C28.6712 20.0871 28.4592 19.7862 28.192 19.7816Z" fill="white" fill-opacity="0.7"/>
<path fill-rule="evenodd" clip-rule="evenodd" d="M10.2288 26.394C10.1623 26.3104 10.053 26.3358 9.94701 26.3607C9.87303 26.3782 9.78949 26.3973 9.69764 26.3961C9.50105 26.3923 9.33438 26.3084 9.24087 26.1646C9.11909 25.9775 9.12616 25.6986 9.2604 25.3794L9.32316 25.2365C9.53762 24.7552 9.89631 23.9501 9.49357 23.1829C9.19016 22.6052 8.69557 22.2456 8.10082 22.17C7.52975 22.0977 6.94206 22.3092 6.56717 22.7228C5.97574 23.3753 5.88305 24.2635 5.99735 24.5773C6.03933 24.692 6.10499 24.724 6.15238 24.7307C6.25296 24.744 6.40175 24.6708 6.49485 24.4202L6.52145 24.3387C6.56301 24.2061 6.64032 23.9593 6.76708 23.7614C6.92003 23.5229 7.15777 23.3587 7.43707 23.2984C7.72135 23.2373 8.01229 23.2918 8.25585 23.4514C8.67022 23.7224 8.82982 24.2302 8.65277 24.7144C8.56133 24.9651 8.41253 25.4443 8.44537 25.8379C8.51187 26.6346 9.00188 26.9547 9.44203 26.9887C9.87012 27.0049 10.1694 26.7643 10.245 26.5889C10.2895 26.485 10.2521 26.4218 10.2276 26.3948" fill="white" fill-opacity="0.7"/>
<path fill-rule="evenodd" clip-rule="evenodd" d="M14.3005 11.76C15.697 10.1466 17.4156 8.74385 18.9555 7.95624C19.0087 7.92881 19.0652 7.98658 19.0365 8.03895C18.9143 8.26048 18.6787 8.7347 18.6043 9.09421C18.5926 9.15032 18.6537 9.19231 18.7011 9.1603C19.6591 8.50736 21.3254 7.80745 22.7871 7.71767C22.8499 7.71393 22.8802 7.79415 22.8303 7.8328C22.608 8.00321 22.3648 8.23928 22.1874 8.47785C22.157 8.51858 22.1857 8.57677 22.2364 8.57718C23.2626 8.58466 24.7094 8.94376 25.6524 9.47285C25.716 9.50859 25.6707 9.63203 25.5992 9.61582C24.1724 9.28873 21.837 9.0406 19.4106 9.63245C17.2448 10.1607 15.5914 10.9766 14.3857 11.8535C14.3246 11.898 14.251 11.817 14.3005 11.76ZM21.2547 27.3924L21.2551 27.3933L21.256 27.3949L21.2547 27.3924ZM27.0127 28.072C27.0543 28.0545 27.0826 28.0075 27.078 27.9606C27.0722 27.9028 27.0206 27.8608 26.9629 27.8667C26.9629 27.8667 23.9833 28.3076 21.1682 27.2773C21.475 26.2806 22.29 26.6406 23.5223 26.7399C25.7434 26.8725 27.7343 26.5479 29.2056 26.1256C30.4803 25.7599 32.1548 25.0383 33.4553 24.0118C33.8938 24.9752 34.0488 26.0358 34.0488 26.0358C34.0488 26.0358 34.3884 25.9752 34.6722 26.1497C34.9403 26.3147 35.1369 26.6576 35.0027 27.5445C34.7292 29.2012 34.0251 30.5462 32.8414 31.7835C32.1207 32.559 31.2463 33.2332 30.2455 33.7236C29.7139 34.0029 29.1482 34.2444 28.5501 34.4393C24.088 35.8969 19.5203 34.2947 18.0482 30.8541C17.9306 30.5956 17.8312 30.3246 17.7531 30.0416C17.1259 27.7744 17.6583 25.0541 19.3233 23.3418C19.426 23.2329 19.5307 23.1036 19.5307 22.9419C19.5307 22.8069 19.4447 22.6643 19.3703 22.5629C18.7876 21.7179 16.7697 20.2782 17.1749 17.4919C17.4659 15.4902 19.2165 14.0804 20.8486 14.164L21.2622 14.1877C21.9696 14.2297 22.5864 14.3203 23.1686 14.3448C24.1433 14.3872 25.0194 14.2454 26.0576 13.3805C26.4076 13.0888 26.6885 12.8357 27.1636 12.7554C27.2135 12.7467 27.3378 12.7022 27.5859 12.7139C27.8394 12.7276 28.0805 12.797 28.297 12.9412C29.1291 13.4948 29.2471 14.836 29.2903 15.8169C29.3149 16.3768 29.3826 17.7317 29.4059 18.1207C29.4587 19.0101 29.6927 19.1353 30.1657 19.2911C30.4317 19.3788 30.6785 19.4441 31.0426 19.5463C32.144 19.8555 32.797 20.1693 33.2088 20.5725C33.4545 20.8243 33.5688 21.092 33.6041 21.3472C33.7338 22.2948 32.8684 23.4652 30.5771 24.5288C28.0726 25.6913 25.034 25.9855 22.9346 25.7515L22.199 25.6684C20.5199 25.4423 19.5619 27.6123 20.5698 29.0994C21.2194 30.0578 22.9887 30.6812 24.7588 30.6817C28.8174 30.6821 31.937 28.9489 33.0975 27.4523L33.1901 27.3201C33.2475 27.2341 33.2001 27.1867 33.129 27.2353C32.181 27.8841 27.9699 30.4597 23.4654 29.6846C23.4654 29.6846 22.918 29.5944 22.4184 29.4003C22.0215 29.2457 21.1903 28.8633 21.0893 28.0109C24.7243 29.1351 27.0127 28.072 27.0127 28.072ZM7.04664 19.4333C5.78232 19.6789 4.66803 20.3954 3.98683 21.3854C3.57952 21.0459 2.821 20.3884 2.68676 20.1319C1.59907 18.0663 3.87378 14.0505 5.46312 11.7825C9.39075 6.17779 15.542 1.93553 18.3894 2.70526C18.8524 2.83618 20.3856 4.6138 20.3856 4.6138C20.3856 4.6138 17.539 6.19317 14.8994 8.39472C11.3425 11.1333 8.65635 15.1137 7.04664 19.4333ZM9.17089 28.9115C8.9797 28.9444 8.78436 28.9572 8.58735 28.9523C6.68505 28.9011 4.63063 27.1888 4.42656 25.158C4.20087 22.9133 5.34799 21.1859 7.37872 20.7761C7.62145 20.7271 7.91487 20.6988 8.23116 20.7155C9.36914 20.7778 11.0458 21.6514 11.4286 24.1302C11.7677 26.3255 11.229 28.5607 9.17089 28.9115ZM34.9378 24.9365C34.9216 24.8787 34.8152 24.491 34.6693 24.0234C34.5235 23.5554 34.3726 23.2266 34.3726 23.2266C34.9578 22.3509 34.9682 21.5675 34.89 21.124C34.8069 20.5741 34.5779 20.1057 34.1166 19.6211C33.6552 19.1369 32.7113 18.6407 31.3851 18.2683L30.6893 18.075C30.686 18.0463 30.6528 16.4345 30.6228 15.7425C30.6008 15.2421 30.558 14.4612 30.3157 13.6923C30.0268 12.6511 29.5239 11.7401 28.8959 11.1574C30.6291 9.36104 31.7109 7.38185 31.708 5.68445C31.703 2.41973 27.6935 1.4318 22.7522 3.47791L21.7052 3.92221C21.7007 3.91764 19.8125 2.06521 19.7842 2.04027C14.1505 -2.87364 -3.46363 16.7051 2.16764 21.4602L3.39831 22.503C3.07911 23.3301 2.95359 24.2777 3.05625 25.2964C3.18758 26.6052 3.86256 27.8596 4.95689 28.8288C5.99553 29.749 7.36126 30.3317 8.68627 30.3305C10.8778 35.3807 15.8853 38.4787 21.7564 38.6533C28.0543 38.8403 33.341 35.8853 35.5563 30.5769C35.7013 30.2045 36.316 28.5258 36.316 27.0437C36.316 25.5545 35.474 24.9365 34.9378 24.9365Z" fill="white" fill-opacity="0.7"/>
</g>
<defs>
<clipPath id="clip0_608_3597">
<rect width="140" height="40" fill="white" transform="translate(0.75)"/>
</clipPath>
</defs>
</svg>
