<svg width="141" height="40" viewBox="0 0 141 40" fill="none" xmlns="http://www.w3.org/2000/svg">
<g clip-path="url(#clip0_630_1200)">
<path fill-rule="evenodd" clip-rule="evenodd" d="M64.6864 24.3818C63.7151 24.6058 63.2126 24.307 63.2126 23.6636C63.2126 22.782 64.1241 22.4292 65.4262 22.4292C65.999 22.4292 66.5393 22.4786 66.5393 22.4786C66.5393 22.856 65.7192 24.1436 64.6864 24.3818ZM65.6748 15.556C62.5655 15.556 60.3332 16.6994 60.3332 16.6994V20.0605C60.3332 20.0605 62.7978 18.6437 64.7974 18.6437C66.3926 18.6437 66.5887 19.5044 66.5164 20.2185C66.5164 20.2185 66.0559 20.0967 64.6519 20.0967C61.3423 20.0967 59.6723 21.6008 59.6723 24.0123C59.6723 26.2999 61.5493 27.2558 63.1312 27.2558C65.4387 27.2558 66.4537 25.7047 66.765 24.9691C66.9815 24.4587 67.0214 24.1145 67.2151 24.1145C67.4374 24.1145 67.3626 24.3614 67.3514 24.8693C67.3331 25.7591 67.3755 26.4316 67.5164 26.9985H70.5766V21.494C70.5766 18.0572 69.3605 15.556 65.6748 15.556Z" fill="#A3A3A3"/>
<path fill-rule="evenodd" clip-rule="evenodd" d="M85.8162 21.4115C85.8162 20.4061 86.7509 19.4905 88.4666 19.4905C90.3357 19.4905 91.8398 20.3907 92.1769 20.5952V16.7042C92.1769 16.7042 90.9891 15.5604 88.0693 15.5604C84.9916 15.5604 82.4285 17.3613 82.4285 21.2378C82.4285 25.1139 84.7547 27.2635 88.061 27.2635C90.6441 27.2635 92.1835 25.8441 92.1835 25.8441V22.1488C91.6964 22.421 90.3394 23.3633 88.4853 23.3633C86.5224 23.3633 85.8162 22.4597 85.8162 21.4115ZM44.9148 15.8151C44.9152 15.8176 45.1101 16.6539 44.8533 17.7474C44.7223 18.3035 44.4817 18.7764 44.7722 18.7764C44.9725 18.7764 44.973 18.6102 45.2336 18.0142C45.6147 17.1431 46.4181 15.5575 48.2955 15.5575C50.0801 15.5575 50.9209 16.6418 51.1994 17.6572C51.4114 18.4286 51.226 18.7764 51.4845 18.7764C51.6682 18.7764 51.7318 18.3762 51.9579 17.87C52.364 16.9631 53.2472 15.5575 55.0335 15.5575C57.7288 15.5575 58.7579 17.5038 58.7579 20.4236V27.0025H54.7538V20.9373C54.7538 19.9261 54.5905 18.9452 53.6686 18.9452C52.8145 18.9452 52.4164 20.4589 52.4164 21.436V27.005H48.3387V20.9377C48.3387 19.6439 48.1562 18.9456 47.2468 18.9456C46.4596 18.9456 46.0004 20.3384 46.0004 21.4364V27.0029H41.9389V15.8151H44.9148ZM71.9095 15.8305C71.9111 15.8313 72.6023 16.2299 73.944 16.2299C75.2881 16.2299 75.9705 15.8305 75.9705 15.8305V27.0054H71.9095V15.8305ZM105.437 15.8305C105.439 15.8313 106.13 16.2299 107.472 16.2299C108.816 16.2299 109.499 15.8305 109.499 15.8305V27.0054H105.437V15.8305ZM81.3462 12.4282V27.0054H77.2847V12.4282H81.3462ZM97.0035 12.4282C97.0039 12.4295 97.1719 12.8484 97.1719 14.0945C97.1719 15.9344 96.7716 17.4319 96.5825 18.0026C96.4823 18.3047 96.3036 18.771 96.5601 18.7794C96.708 18.7839 96.797 18.5612 96.9782 18.1746C97.1586 17.7877 98.053 15.5599 100.404 15.5599C103.642 15.5599 104.118 18.2116 104.118 21.0832V27.005H100.057V20.84C100.057 19.5757 99.7915 18.9477 98.9441 18.9477C97.9208 18.9477 97.5592 20.532 97.5592 21.4389V27.005H93.4977V12.4278L97.0035 12.4282ZM113.847 15.8151C113.847 15.8176 114.042 16.6539 113.785 17.7474C113.654 18.3035 113.414 18.7764 113.704 18.7764C113.904 18.7764 113.905 18.6102 114.165 18.0142C114.546 17.1431 115.35 15.5575 117.227 15.5575C119.093 15.5575 119.834 16.6468 120.131 17.6572C120.331 18.3342 120.158 18.7764 120.416 18.7764C120.6 18.7764 120.664 18.3762 120.89 17.87C121.295 16.9631 122.179 15.5575 123.965 15.5575C126.661 15.5575 127.69 17.5038 127.69 20.4236V27.0025H123.686V20.9373C123.686 19.9261 123.522 18.9452 122.6 18.9452C121.746 18.9452 121.348 20.4589 121.348 21.436V27.005H117.27V20.9377C117.27 19.6439 117.088 18.9456 116.179 18.9456C115.392 18.9456 114.932 20.3384 114.932 21.4364V27.0029H110.871V15.8151H113.847ZM73.9277 12.3152C72.5554 12.3152 71.4419 13.0417 71.4419 13.9378C71.4419 14.8339 72.5549 15.5604 73.9277 15.5604C75.301 15.5604 76.414 14.8339 76.414 13.9378C76.414 13.0417 75.3014 12.3152 73.9277 12.3152ZM107.456 12.3152C106.083 12.3152 104.97 13.0417 104.97 13.9378C104.97 14.8339 106.083 15.5604 107.456 15.5604C108.829 15.5604 109.942 14.8339 109.942 13.9378C109.942 13.0417 108.829 12.3152 107.456 12.3152Z" fill="#A3A3A3"/>
<path fill-rule="evenodd" clip-rule="evenodd" d="M134.608 24.5946C133.677 24.5946 132.992 23.4138 132.992 21.7683C132.992 20.1703 133.695 18.9429 134.576 18.9429C135.705 18.9429 136.187 19.9791 136.187 21.7683C136.187 23.6299 135.743 24.5946 134.608 24.5946ZM135.722 15.5535C133.635 15.5535 132.678 17.1184 132.263 18.0099C131.988 18.5988 132.003 18.7721 131.801 18.7721C131.512 18.7721 131.752 18.2991 131.883 17.743C132.141 16.6479 131.945 15.8112 131.945 15.8112H128.971V30.085H133.03V25.5597C133.51 26.3747 134.4 27.2454 135.772 27.2454C138.709 27.2454 140.186 24.7612 140.186 21.4051C140.186 17.6013 138.418 15.5535 135.723 15.5535" fill="#A3A3A3"/>
<path fill-rule="evenodd" clip-rule="evenodd" d="M27.5818 18.931C27.8549 18.8986 28.1163 18.8969 28.3569 18.931C28.4962 18.6118 28.5199 18.0619 28.3948 17.463C28.209 16.5727 27.9571 16.0341 27.4368 16.118C26.9164 16.202 26.8973 16.847 27.0835 17.7369C27.1882 18.2377 27.3744 18.6658 27.5818 18.931Z" fill="#A3A3A3"/>
<path fill-rule="evenodd" clip-rule="evenodd" d="M23.1176 19.6355C23.4895 19.7988 23.7185 19.9073 23.8079 19.8125C23.8657 19.7535 23.8482 19.6409 23.7593 19.4958C23.5756 19.1962 23.1978 18.8919 22.7967 18.7211C21.9771 18.3683 20.9991 18.4855 20.2448 19.0274C19.9958 19.2099 19.7597 19.4626 19.7934 19.616C19.8042 19.6654 19.8416 19.7028 19.9289 19.7153C20.1342 19.7386 20.8516 19.3761 21.6783 19.3254C22.2614 19.2897 22.7452 19.4722 23.1176 19.6355Z" fill="#A3A3A3"/>
<path fill-rule="evenodd" clip-rule="evenodd" d="M22.3704 20.0628C21.8854 20.1393 21.6182 20.2993 21.4465 20.4477C21.3002 20.5757 21.2096 20.7174 21.2104 20.8167C21.2109 20.8641 21.2312 20.8915 21.2474 20.9053C21.2695 20.9248 21.2956 20.9356 21.3272 20.9356C21.4365 20.9356 21.6822 20.8371 21.6822 20.8371C22.3567 20.5956 22.8019 20.6251 23.2428 20.675C23.4864 20.7024 23.6019 20.7174 23.6551 20.6339C23.6709 20.6098 23.69 20.5578 23.6414 20.4788C23.528 20.2947 23.0379 19.9834 22.3704 20.0628Z" fill="#A3A3A3"/>
<path fill-rule="evenodd" clip-rule="evenodd" d="M26.0754 21.6306C26.4045 21.7923 26.767 21.7287 26.885 21.4889C27.003 21.2491 26.8318 20.9232 26.5026 20.7616C26.1735 20.5999 25.811 20.6635 25.693 20.9033C25.575 21.1435 25.7462 21.469 26.0754 21.6306Z" fill="#A3A3A3"/>
<path fill-rule="evenodd" clip-rule="evenodd" d="M28.192 19.7816C27.9248 19.7771 27.7028 20.0705 27.6966 20.4375C27.6904 20.8045 27.9023 21.105 28.1696 21.1096C28.4368 21.1141 28.6588 20.8207 28.665 20.4537C28.6712 20.0871 28.4593 19.7862 28.192 19.7816Z" fill="#A3A3A3"/>
<path fill-rule="evenodd" clip-rule="evenodd" d="M10.2288 26.394C10.1623 26.3104 10.053 26.3358 9.94705 26.3607C9.87307 26.3782 9.78953 26.3973 9.69768 26.3961C9.50109 26.3923 9.33442 26.3084 9.24091 26.1646C9.11913 25.9775 9.12619 25.6986 9.26044 25.3794L9.3232 25.2365C9.53766 24.7552 9.89635 23.9501 9.49361 23.1829C9.1902 22.6052 8.69561 22.2456 8.10086 22.17C7.52979 22.0977 6.9421 22.3092 6.56721 22.7228C5.97577 23.3753 5.88309 24.2635 5.99739 24.5773C6.03936 24.692 6.10503 24.724 6.15241 24.7307C6.25299 24.744 6.40179 24.6708 6.49489 24.4202L6.52149 24.3387C6.56305 24.2061 6.64035 23.9593 6.76712 23.7614C6.92007 23.5229 7.15781 23.3587 7.43711 23.2984C7.72139 23.2373 8.01233 23.2918 8.25588 23.4514C8.67026 23.7224 8.82986 24.2302 8.6528 24.7144C8.56137 24.9651 8.41257 25.4443 8.4454 25.8379C8.5119 26.6346 9.00192 26.9547 9.44207 26.9887C9.87016 27.0049 10.1694 26.7643 10.2451 26.5889C10.2895 26.485 10.2521 26.4218 10.2276 26.3948" fill="#A3A3A3"/>
<path fill-rule="evenodd" clip-rule="evenodd" d="M14.3005 11.76C15.697 10.1466 17.4156 8.74385 18.9555 7.95624C19.0087 7.92881 19.0652 7.98658 19.0366 8.03895C18.9144 8.26048 18.6787 8.7347 18.6043 9.09421C18.5927 9.15032 18.6538 9.19231 18.7012 9.1603C19.6592 8.50736 21.3254 7.80745 22.7871 7.71767C22.8499 7.71393 22.8802 7.79415 22.8304 7.8328C22.608 8.00321 22.3649 8.23928 22.1874 8.47785C22.1571 8.51858 22.1857 8.57677 22.2364 8.57718C23.2626 8.58466 24.7094 8.94376 25.6524 9.47285C25.716 9.50859 25.6707 9.63203 25.5992 9.61582C24.1724 9.28873 21.837 9.0406 19.4106 9.63245C17.2448 10.1607 15.5915 10.9766 14.3857 11.8535C14.3246 11.898 14.2511 11.817 14.3005 11.76ZM21.2547 27.3924L21.2552 27.3933L21.256 27.3949L21.2547 27.3924ZM27.0128 28.072C27.0543 28.0545 27.0826 28.0075 27.078 27.9606C27.0722 27.9028 27.0207 27.8608 26.9629 27.8667C26.9629 27.8667 23.9833 28.3076 21.1683 27.2773C21.475 26.2806 22.2901 26.6406 23.5224 26.7399C25.7435 26.8725 27.7343 26.5479 29.2056 26.1256C30.4803 25.7599 32.1549 25.0383 33.4553 24.0118C33.8938 24.9752 34.0489 26.0358 34.0489 26.0358C34.0489 26.0358 34.3884 25.9752 34.6723 26.1497C34.9404 26.3147 35.137 26.6576 35.0027 27.5445C34.7292 29.2012 34.0252 30.5462 32.8415 31.7835C32.1208 32.559 31.2463 33.2332 30.2455 33.7236C29.7139 34.0029 29.1482 34.2444 28.5502 34.4393C24.088 35.8969 19.5203 34.2947 18.0482 30.8541C17.9306 30.5956 17.8313 30.3246 17.7531 30.0416C17.1259 27.7744 17.6584 25.0541 19.3233 23.3418C19.426 23.2329 19.5307 23.1036 19.5307 22.9419C19.5307 22.8069 19.4447 22.6643 19.3703 22.5629C18.7876 21.7179 16.7698 20.2782 17.175 17.4919C17.4659 15.4902 19.2165 14.0804 20.8487 14.164L21.2622 14.1877C21.9696 14.2297 22.5864 14.3203 23.1687 14.3448C24.1433 14.3872 25.0194 14.2454 26.0577 13.3805C26.4076 13.0888 26.6886 12.8357 27.1636 12.7554C27.2135 12.7467 27.3378 12.7022 27.5859 12.7139C27.8394 12.7276 28.0805 12.797 28.297 12.9412C29.1291 13.4948 29.2472 14.836 29.2904 15.8169C29.3149 16.3768 29.3827 17.7317 29.4059 18.1207C29.4587 19.0101 29.6927 19.1353 30.1657 19.2911C30.4317 19.3788 30.6786 19.4441 31.0427 19.5463C32.1441 19.8555 32.797 20.1693 33.2089 20.5725C33.4545 20.8243 33.5688 21.092 33.6041 21.3472C33.7338 22.2948 32.8685 23.4652 30.5772 24.5288C28.0726 25.6913 25.034 25.9855 22.9347 25.7515L22.199 25.6684C20.5199 25.4423 19.5619 27.6123 20.5698 29.0994C21.2194 30.0578 22.9887 30.6812 24.7589 30.6817C28.8174 30.6821 31.9371 28.9489 33.0975 27.4523L33.1902 27.3201C33.2475 27.2341 33.2001 27.1867 33.1291 27.2353C32.181 27.8841 27.97 30.4597 23.4654 29.6846C23.4654 29.6846 22.9181 29.5944 22.4185 29.4003C22.0216 29.2457 21.1903 28.8633 21.0893 28.0109C24.7244 29.1351 27.0128 28.072 27.0128 28.072ZM7.04668 19.4333C5.78236 19.6789 4.66807 20.3954 3.98687 21.3854C3.57956 21.0459 2.82104 20.3884 2.6868 20.1319C1.59911 18.0663 3.87381 14.0505 5.46315 11.7825C9.39079 6.17779 15.542 1.93553 18.3894 2.70526C18.8524 2.83618 20.3857 4.6138 20.3857 4.6138C20.3857 4.6138 17.5391 6.19317 14.8995 8.39472C11.3426 11.1333 8.65639 15.1137 7.04668 19.4333ZM9.17092 28.9115C8.97974 28.9444 8.7844 28.9572 8.58739 28.9523C6.68509 28.9011 4.63066 27.1888 4.42659 25.158C4.20091 22.9133 5.34803 21.1859 7.37876 20.7761C7.62148 20.7271 7.91491 20.6988 8.2312 20.7155C9.36917 20.7778 11.0458 21.6514 11.4286 24.1302C11.7677 26.3255 11.2291 28.5607 9.17092 28.9115ZM34.9379 24.9365C34.9217 24.8787 34.8153 24.491 34.6694 24.0234C34.5235 23.5554 34.3726 23.2266 34.3726 23.2266C34.9578 22.3509 34.9682 21.5675 34.8901 21.124C34.8069 20.5741 34.5779 20.1057 34.1166 19.6211C33.6553 19.1369 32.7114 18.6407 31.3851 18.2683L30.6894 18.075C30.686 18.0463 30.6528 16.4345 30.6229 15.7425C30.6008 15.2421 30.558 14.4612 30.3157 13.6923C30.0269 12.6511 29.524 11.7401 28.896 11.1574C30.6291 9.36104 31.711 7.38185 31.7081 5.68445C31.7031 2.41973 27.6936 1.4318 22.7522 3.47791L21.7053 3.92221C21.7007 3.91764 19.8125 2.06521 19.7843 2.04027C14.1505 -2.87364 -3.46359 16.7051 2.16768 21.4602L3.39834 22.503C3.07915 23.3301 2.95362 24.2777 3.05628 25.2964C3.18762 26.6052 3.86259 27.8596 4.95693 28.8288C5.99557 29.749 7.3613 30.3317 8.68631 30.3305C10.8779 35.3807 15.8853 38.4787 21.7564 38.6533C28.0543 38.8403 33.341 35.8853 35.5563 30.5769C35.7014 30.2045 36.3161 28.5258 36.3161 27.0437C36.3161 25.5545 35.474 24.9365 34.9379 24.9365Z" fill="#A3A3A3"/>
</g>
<defs>
<clipPath id="clip0_630_1200">
<rect width="140" height="40" fill="white" transform="translate(0.75)"/>
</clipPath>
</defs>
</svg>
