<?xml version="1.0" encoding="UTF-8"?>
<svg width="252px" height="80px" viewBox="0 0 252 80" version="1.1" xmlns="http://www.w3.org/2000/svg" xmlns:xlink="http://www.w3.org/1999/xlink">
    <title>96x96@1x</title>
    <g id="96x96" stroke="none" stroke-width="1" fill="none" fill-rule="evenodd">
        <g id="Group" transform="translate(0.5, 6)" fill="#163300">
            <path d="M114.506827,41.6274335 C112.758827,42.0306335 111.854827,41.4927335 111.854827,40.3346335 C111.854827,38.7479335 113.494827,38.1127335 115.838827,38.1127335 C116.869827,38.1127335 117.842827,38.2017335 117.842827,38.2017335 C117.842827,38.8810335 116.365827,41.1987335 114.506827,41.6274335 Z M116.285827,25.7410335 C110.689827,25.7410335 106.671827,27.7991335 106.671827,27.7991335 L106.671827,33.8492335 C106.671827,33.8492335 111.107827,31.2988335 114.706827,31.2988335 C117.577827,31.2988335 117.931827,32.8482335 117.800827,34.1335335 C117.800827,34.1335335 116.971827,33.9143335 114.444827,33.9143335 C108.487827,33.9143335 105.481827,36.6217335 105.481827,40.9623335 C105.481827,45.0800335 108.860827,46.8006335 111.707827,46.8006335 C115.861827,46.8006335 117.687827,44.0087335 118.248827,42.6845335 C118.638827,41.7658335 118.709827,41.1463335 119.058827,41.1463335 C119.458827,41.1463335 119.324827,41.5907335 119.303827,42.5049335 C119.270827,44.1067335 119.347827,45.3171335 119.600827,46.3376335 L125.109827,46.3376335 L125.109827,36.4294335 C125.109827,30.2432335 122.920827,25.7410335 116.285827,25.7410335 Z" id="Shape"></path>
            <path d="M152.540827,36.2809335 C152.540827,34.4712335 154.223827,32.8231335 157.311827,32.8231335 C160.675827,32.8231335 163.383827,34.4435335 163.989827,34.8116335 L163.989827,27.8077335 C163.989827,27.8077335 161.851827,25.7488335 156.596827,25.7488335 C151.056827,25.7488335 146.442827,28.9904335 146.442827,35.9682335 C146.442827,42.9451335 150.629827,46.8144335 156.581827,46.8144335 C161.230827,46.8144335 164.001827,44.2596335 164.001827,44.2596335 L164.001827,37.6081335 C163.124827,38.0981335 160.682827,39.7941335 157.344827,39.7941335 C153.811827,39.7941335 152.540827,38.1676335 152.540827,36.2809335 Z M78.9183267,26.2074335 C78.9190267,26.2119335 79.2699267,27.7171335 78.8075267,29.6855335 C78.5719267,30.6864335 78.1387267,31.5378335 78.6616267,31.5378335 C79.0222267,31.5378335 79.0230267,31.2386335 79.4921267,30.1657335 C80.1781267,28.5977335 81.6242267,25.7436335 85.0035267,25.7436335 C88.2159267,25.7436335 89.7293267,27.6955335 90.2306267,29.5231335 C90.6121267,30.9116335 90.2785267,31.5378335 90.7438267,31.5378335 C91.0745267,31.5378335 91.1889267,30.8174335 91.5959267,29.9061335 C92.3268267,28.2737335 93.9166267,25.7436335 97.1320267,25.7436335 C101.983827,25.7436335 103.835827,29.2470335 103.835827,34.5026335 L103.835827,46.3446335 L96.6285267,46.3446335 L96.6285267,35.4273335 C96.6285267,33.6071335 96.3345267,31.8415335 94.6752267,31.8415335 C93.1378267,31.8415335 92.4211267,34.5662335 92.4211267,36.3250335 L92.4211267,46.3491335 L85.0813267,46.3491335 L85.0813267,35.4280335 C85.0813267,33.0991335 84.7528267,31.8423335 83.1160267,31.8423335 C81.6990267,31.8423335 80.8723267,34.3492335 80.8723267,36.3258335 L80.8723267,46.3454335 L73.5617267,46.3454335 L73.5617267,26.2074335 L78.9183267,26.2074335 Z M127.508827,26.2351335 C127.511827,26.2366335 128.755827,26.9541335 131.170827,26.9541335 C133.589827,26.9541335 134.818827,26.2351335 134.818827,26.2351335 L134.818827,46.3498335 L127.508827,46.3498335 L127.508827,26.2351335 Z M187.858827,26.2351335 C187.861827,26.2366335 189.105827,26.9541335 191.521827,26.9541335 C193.940827,26.9541335 195.169827,26.2351335 195.169827,26.2351335 L195.169827,46.3498335 L187.858827,46.3498335 L187.858827,26.2351335 Z M144.494827,20.1110335 L144.494827,46.3498335 L137.183827,46.3498335 L137.183827,20.1110335 L144.494827,20.1110335 Z M172.677827,20.1110335 C172.678827,20.1132335 172.980827,20.8673335 172.980827,23.1102335 C172.980827,26.4221335 172.260827,29.1176335 171.919827,30.1448335 C171.739827,30.6887335 171.417827,31.5281335 171.879827,31.5430335 C172.145827,31.5513335 172.305827,31.1503335 172.632827,30.4545335 C172.956827,29.7580335 174.566827,25.7481335 178.798827,25.7481335 C184.626827,25.7481335 185.484827,30.5211335 185.484827,35.6899335 L185.484827,46.3491335 L178.173827,46.3491335 L178.173827,35.2522335 C178.173827,32.9764335 177.696827,31.8460335 176.170827,31.8460335 C174.328827,31.8460335 173.677827,34.6979335 173.677827,36.3303335 L173.677827,46.3491335 L166.367827,46.3491335 L166.367827,20.1103335 L172.677827,20.1110335 Z M202.995827,26.2074335 C202.996827,26.2119335 203.346827,27.7171335 202.884827,29.6855335 C202.648827,30.6864335 202.215827,31.5378335 202.738827,31.5378335 C203.099827,31.5378335 203.100827,31.2386335 203.569827,30.1657335 C204.254827,28.5977335 205.701827,25.7436335 209.080827,25.7436335 C212.439827,25.7436335 213.771827,27.7044335 214.307827,29.5231335 C214.666827,30.7418335 214.355827,31.5378335 214.820827,31.5378335 C215.151827,31.5378335 215.265827,30.8174335 215.672827,29.9061335 C216.402827,28.2737335 217.993827,25.7436335 221.209827,25.7436335 C226.060827,25.7436335 227.912827,29.2470335 227.912827,34.5026335 L227.912827,46.3446335 L220.705827,46.3446335 L220.705827,35.4273335 C220.705827,33.6071335 220.411827,31.8415335 218.752827,31.8415335 C217.214827,31.8415335 216.497827,34.5662335 216.497827,36.3250335 L216.497827,46.3491335 L209.157827,46.3491335 L209.157827,35.4280335 C209.157827,33.0991335 208.830827,31.8423335 207.192827,31.8423335 C205.776827,31.8423335 204.949827,34.3492335 204.949827,36.3258335 L204.949827,46.3454335 L197.638827,46.3454335 L197.638827,26.2074335 L202.995827,26.2074335 Z M131.141827,19.9075335 C128.670827,19.9075335 126.666827,21.2152335 126.666827,22.8282335 C126.666827,24.4411335 128.670827,25.7488335 131.141827,25.7488335 C133.613827,25.7488335 135.616827,24.4411335 135.616827,22.8282335 C135.616827,21.2152335 133.613827,19.9075335 131.141827,19.9075335 Z M191.492827,19.9075335 C189.021827,19.9075335 187.016827,21.2152335 187.016827,22.8282335 C187.016827,24.4411335 189.020827,25.7488335 191.492827,25.7488335 C193.963827,25.7488335 195.967827,24.4411335 195.967827,22.8282335 C195.967827,21.2152335 193.963827,19.9075335 191.492827,19.9075335 Z" id="Shape"></path>
            <path d="M240.365827,42.0104335 C238.690827,42.0104335 237.457827,39.8850335 237.457827,36.9232335 C237.457827,34.0467335 238.722827,31.8375335 240.308827,31.8375335 C242.340827,31.8375335 243.208827,33.7026335 243.208827,36.9232335 C243.208827,40.2741335 242.408827,42.0104335 240.365827,42.0104335 Z M242.371827,25.7366335 C238.615827,25.7366335 236.892827,28.5532335 236.144827,30.1580335 C235.649827,31.2180335 235.675827,31.5300335 235.313827,31.5300335 C234.792827,31.5300335 235.225827,30.6787335 235.460827,29.6777335 C235.924827,27.7064335 235.571827,26.2004335 235.571827,26.2004335 L230.218827,26.2004335 L230.218827,51.8931335 L237.525827,51.8931335 L237.525827,43.7476335 C238.390827,45.2146335 239.991827,46.7819335 242.461827,46.7819335 C247.746827,46.7819335 250.406827,42.3104335 250.406827,36.2694335 C250.406827,29.4225335 247.223827,25.7366335 242.373827,25.7366335" id="Shape"></path>
            <path d="M47.7189267,31.8159335 C48.2104267,31.7576335 48.6810267,31.7546335 49.1142267,31.8159335 C49.3648267,31.2414335 49.4074267,30.2516335 49.1822267,29.1736335 C48.8478267,27.5711335 48.3945267,26.6015335 47.4578267,26.7527335 C46.5212267,26.9038335 46.4867267,28.0649335 46.8219267,29.6666335 C47.0104267,30.5681335 47.3456267,31.3386335 47.7189267,31.8159335 Z" id="Path"></path>
            <path d="M39.6833267,33.0841335 C40.3528267,33.3781335 40.7650267,33.5733335 40.9259267,33.4028335 C41.0299267,33.2965335 40.9984267,33.0938335 40.8383267,32.8327335 C40.5077267,32.2933335 39.8276267,31.7457335 39.1057267,31.4382335 C37.6304267,30.8031335 35.8701267,31.0140335 34.5122267,31.9896335 C34.0641267,32.3180335 33.6392267,32.7729335 33.6998267,33.0489335 C33.7192267,33.1379335 33.7866267,33.2053335 33.9437267,33.2277335 C34.3132267,33.2696335 35.6045267,32.6172335 37.0925267,32.5260335 C38.1421267,32.4616335 39.0129267,32.7901335 39.6833267,33.0841335 Z" id="Path"></path>
            <path d="M38.3384267,33.8532335 C37.4654267,33.9909335 36.9844267,34.2789335 36.6754267,34.5460335 C36.4120267,34.7764335 36.2489267,35.0315335 36.2504164,35.2103335 C36.2512267,35.2956335 36.2878267,35.3450335 36.3170267,35.3697335 C36.3567267,35.4048335 36.4038267,35.4243335 36.4607267,35.4243335 C36.6574267,35.4243335 37.0996267,35.2470335 37.0996267,35.2470335 C38.3138267,34.8123335 39.1150267,34.8654335 39.9088267,34.9552335 C40.3471267,35.0046335 40.5551267,35.0315335 40.6509267,34.8811335 C40.6793267,34.8377335 40.7137267,34.7442335 40.6262267,34.6021335 C40.4220267,34.2707335 39.5399267,33.7103335 38.3384267,33.8532335 Z" id="Path"></path>
            <path d="M45.0073267,36.6753335 C45.5998267,36.9663335 46.2522267,36.8519335 46.4647267,36.4202335 C46.6771267,35.9886335 46.3689267,35.4020335 45.7764267,35.1110335 C45.1839267,34.8200335 44.5315267,34.9344335 44.3190267,35.3661335 C44.1066267,35.7985335 44.4148267,36.3843335 45.0073267,36.6753335 Z" id="Path"></path>
            <path d="M48.8173267,33.3471335 C48.3362267,33.3389335 47.9367267,33.8671335 47.9255267,34.5277335 C47.9143267,35.1883335 48.2958267,35.7292335 48.7769267,35.7374335 C49.2579267,35.7456335 49.6574267,35.2174335 49.6686267,34.5569335 C49.6799267,33.8970335 49.2983267,33.3554335 48.8173267,33.3471335 Z" id="Path"></path>
            <path d="M16.4836267,45.2493335 C16.3639267,45.0990335 16.1671267,45.1446335 15.9763267,45.1895335 C15.8432267,45.2209335 15.6928267,45.2553335 15.5275267,45.2531335 C15.1736267,45.2464335 14.8736267,45.0952335 14.7053267,44.8364335 C14.4861267,44.4997335 14.4988267,43.9977335 14.7404267,43.4232335 L14.8534267,43.1658335 C15.2394267,42.2995335 15.8851267,40.8504335 15.1601267,39.4694335 C14.6140267,38.4295335 13.7238267,37.7824335 12.6532267,37.6462335 C11.6253267,37.5160335 10.5674267,37.8968335 9.8926267,38.6412335 C8.8280767,39.8157335 8.6612367,41.4145335 8.8669767,41.9793335 C8.9425367,42.1858335 9.0607367,42.2434335 9.1460267,42.2554335 C9.3270667,42.2793335 9.5949267,42.1476335 9.7624267,41.6965335 L9.8103267,41.5499335 C9.8851267,41.3112335 10.0243267,40.8669335 10.2525267,40.5107335 C10.5278267,40.0813335 10.9557267,39.7858335 11.4584267,39.6773335 C11.9702267,39.5674335 12.4938267,39.6654335 12.9322267,39.9526335 C13.6781267,40.4404335 13.9654267,41.3546335 13.6467267,42.2262335 C13.4821267,42.6773335 13.2143267,43.5399335 13.2734267,44.2484335 C13.3931267,45.6825335 14.2751267,46.2586335 15.0674267,46.3199335 C15.8379267,46.3491335 16.3766267,45.9159335 16.5127267,45.6002335 C16.5928267,45.4132335 16.5255267,45.2995335 16.4813267,45.2508335" id="Path"></path>
            <path d="M23.8126267,18.9082335 C26.3263267,16.0040335 29.4198267,13.4791335 32.1916267,12.0614335 C32.2873267,12.0120335 32.3891267,12.1160335 32.3375267,12.2103335 C32.1175267,12.6091335 31.6933267,13.4626335 31.5594267,14.1098335 C31.5385267,14.2108335 31.6484267,14.2863335 31.7337267,14.2287335 C33.4581267,13.0534335 36.4574267,11.7936335 39.0885267,11.6320335 C39.2015267,11.6253335 39.2561267,11.7697335 39.1663267,11.8392335 C38.7661267,12.1460335 38.3284267,12.5709335 38.0090267,13.0003335 C37.9544267,13.0736335 38.0060267,13.1784335 38.0972267,13.1791335 C39.9444267,13.1926335 42.5486267,13.8390335 44.2460267,14.7913335 C44.3605267,14.8557335 44.2790267,15.0778335 44.1503267,15.0487335 C41.5820267,14.4599335 37.3783267,14.0133335 33.0108267,15.0786335 C29.1123267,16.0295335 26.1363267,17.4980335 23.9660267,19.0766335 C23.8560267,19.1566335 23.7236267,19.0107335 23.8126267,18.9082335 Z M46.6946267,48.2697335 C46.7695267,48.2383335 46.8203267,48.1538335 46.8121267,48.0692335 C46.8016267,47.9652335 46.7089267,47.8897335 46.6049267,47.9002335 C46.6049267,47.9002335 41.2416267,48.6939335 36.1746267,46.8393335 C36.7267267,45.0453335 38.1937267,45.6932335 40.4119267,45.8720335 C44.4099267,46.1107335 47.9934267,45.5264335 50.6417267,44.7663335 C52.9362267,44.1079335 55.9504267,42.8092335 58.2913267,40.9613335 C59.0805267,42.6955335 59.3596267,44.6047335 59.3596267,44.6047335 C59.3596267,44.6047335 59.9708267,44.4955335 60.4818267,44.8097335 C60.9643267,45.1067335 61.3182267,45.7239335 61.0765267,47.3204335 C60.5843267,50.3024335 59.3169267,52.7233335 57.1863267,54.9504335 C55.8891267,56.3464335 54.3150267,57.5599335 52.5135267,58.4427335 C51.5567267,58.9454335 50.5385267,59.3801335 49.4619267,59.7309335 C41.4301267,62.3546335 33.2083267,59.4706335 30.5584267,53.2777335 C30.3467267,52.8123335 30.1679267,52.3245335 30.0273267,51.8151335 C28.8983267,47.7341335 29.8567267,42.8376335 32.8537267,39.7554335 C33.0384267,39.5594335 33.2270267,39.3267335 33.2270267,39.0357335 C33.2270267,38.7925335 33.0721267,38.5359335 32.9382267,38.3534335 C31.8893267,36.8325335 28.2572267,34.2410335 28.9866267,29.2256335 C29.5103267,25.6226335 32.6614267,23.0850335 35.5993267,23.2354335 L36.3437267,23.2780335 C37.6170267,23.3536335 38.7272267,23.5167335 39.7753267,23.5608335 C41.5296267,23.6371335 43.1067267,23.3820335 44.9755267,21.8251335 C45.6054267,21.3000335 46.1111267,20.8444335 46.9662267,20.7000335 C47.0560267,20.6843335 47.2797267,20.6042335 47.7263267,20.6252335 C48.1827267,20.6499335 48.6166267,20.7748335 49.0063267,21.0344335 C50.5041267,22.0309335 50.7165267,24.4451335 50.7944267,26.2106335 C50.8385267,27.2184335 50.9604267,29.6572335 51.0023267,30.3575335 C51.0973267,31.9584335 51.5185267,32.1836335 52.3699267,32.4642335 C52.8487267,32.6220335 53.2931267,32.7395335 53.9484267,32.9235335 C55.9309267,33.4801335 57.1062267,34.0450335 57.8476267,34.7706335 C58.2898267,35.2240335 58.4955267,35.7058335 58.5591267,36.1651335 C58.7925267,37.8708335 57.2349267,39.9776335 53.1105267,41.8920335 C48.6023267,43.9845335 43.1328267,44.5142335 39.3541267,44.0930335 L38.0299267,43.9433335 C35.0075267,43.5364335 33.2831267,47.4423335 35.0973267,50.1191335 C36.2666267,51.8443335 39.4513267,52.9664335 42.6376267,52.9672335 C49.9430267,52.9679335 55.5584267,49.8483335 57.6471267,47.1543335 L57.8140267,46.9164335 C57.9172267,46.7615335 57.8319267,46.6762335 57.7040267,46.7638335 C55.9975267,47.9316335 48.4176267,52.5677335 40.3094267,51.1724335 C40.3094267,51.1724335 39.3242267,51.0101335 38.4249267,50.6607335 C37.7105267,50.3824335 36.2142267,49.6942335 36.0324267,48.1598335 C42.5755267,50.1834335 46.6946267,48.2697335 46.6946267,48.2697335 Z M10.7557267,32.7200335 C8.4799167,33.1622335 6.4742067,34.4519335 5.2480367,36.2340335 C4.5148767,35.6228335 3.1495567,34.4392335 2.9079067,33.9776335 C0.950076702,30.2595335 5.0445467,23.0311335 7.9053567,18.9486335 C14.9751267,8.86023353 26.0473267,1.22417353 31.1726267,2.60969353 C32.0060267,2.84535353 34.7659267,6.04506353 34.7659267,6.04506353 C34.7659267,6.04506353 29.6420267,8.88793353 24.8907267,12.8507335 C18.4883267,17.7801335 13.6531267,24.9448335 10.7557267,32.7200335 Z M14.5793267,49.7809335 C14.2352267,49.8400335 13.8836267,49.8632335 13.5290267,49.8543335 C10.1048267,49.7622335 6.4068767,46.6800335 6.0395467,43.0247335 C5.6333167,38.9841335 7.6981267,35.8749335 11.3534267,35.1372335 C11.7903267,35.0489335 12.3185267,34.9981335 12.8878267,35.0280335 C14.9362267,35.1402335 17.9541267,36.7128335 18.6431267,41.1745335 C19.2536267,45.1261335 18.2840267,49.1495335 14.5793267,49.7809335 Z M60.9598267,42.6259335 C60.9306267,42.5219335 60.7391267,41.8239335 60.4765267,40.9823335 C60.2139267,40.1399335 59.9424267,39.5481335 59.9424267,39.5481335 C60.9957267,37.9718335 61.0144267,36.5616335 60.8738267,35.7634335 C60.7242267,34.7736335 60.3119267,33.9305335 59.4815267,33.0582335 C58.6511267,32.1866335 56.9521267,31.2934335 54.5649267,30.6231335 L53.3125267,30.2752335 C53.3065267,30.2236335 53.2467267,27.3223335 53.1928267,26.0767335 C53.1532267,25.1760335 53.0761267,23.7703335 52.6400267,22.3862335 C52.1200267,20.5122335 51.2148267,18.8723335 50.0844267,17.8234335 C53.2040267,14.5901335 55.1514267,11.0275335 55.1462267,7.97223353 C55.1372267,2.09573353 47.9201267,0.317453532 39.0257267,4.00045353 L37.1411267,4.80019353 C37.1329267,4.79196353 33.7342267,1.45759353 33.6833267,1.41270353 C23.5426267,-7.43232647 -8.1627833,27.8094335 1.9735067,36.3686335 L4.1886967,38.2457335 C3.6141367,39.7344335 3.3882067,41.4401335 3.5729867,43.2738335 C3.8093967,45.6296335 5.0243467,47.8874335 6.9941467,49.6321335 C8.8637067,51.2884335 11.3220267,52.3373335 13.7070267,52.3350335 C17.6518267,61.4254335 26.6652267,67.0019335 37.2332267,67.3161335 C48.5694267,67.6528335 58.0855267,62.3337335 62.0730267,52.7787335 C62.3341267,52.1083335 63.4406267,49.0867335 63.4406267,46.4189335 C63.4406267,43.7384335 61.9249267,42.6259335 60.9598267,42.6259335 Z" id="Shape"></path>
        </g>
    </g>
</svg>