<?xml version="1.0" encoding="UTF-8" standalone="no"?>
<!DOCTYPE svg PUBLIC "-//W3C//DTD SVG 1.1//EN" "http://www.w3.org/Graphics/SVG/1.1/DTD/svg11.dtd">
<svg width="100%" height="100%" viewBox="0 0 130 27" version="1.1" xmlns="http://www.w3.org/2000/svg" xmlns:xlink="http://www.w3.org/1999/xlink" xml:space="preserve" xmlns:serif="http://www.serif.com/" style="fill-rule:evenodd;clip-rule:evenodd;stroke-linejoin:round;stroke-miterlimit:2;">
    <g transform="matrix(0.147289,0,0,0.147289,0,0)">
        <path d="M302.28,94.98L302.28,174.48C302.28,177.06 300.18,179.16 297.6,179.16L263.25,179.16C260.66,179.16 258.57,177.06 258.57,174.48L258.57,48.94C258.57,46.36 260.67,44.26 263.25,44.26L297.6,44.26C300.18,44.26 302.28,46.36 302.28,48.94L302.28,58.83C310.91,48.04 323.05,41.29 340.05,41.29C355.97,41.29 369.73,47.77 378.09,59.91C388.34,47.77 402.91,41.29 420.72,41.29C450.94,41.29 471.71,59.1 471.71,93.09L471.71,174.48C471.71,177.06 469.61,179.16 467.03,179.16L432.68,179.16C430.09,179.16 428,177.06 428,174.48L428,102.27C428,87.43 419.64,80.15 408.3,80.15C398.86,80.15 391.3,86.09 386.98,94.99L386.98,174.49C386.98,177.07 384.88,179.17 382.3,179.17L347.95,179.17C345.36,179.17 343.27,177.07 343.27,174.49L343.27,102.28C343.27,87.44 334.91,80.16 323.57,80.16C313.86,80.16 306.57,86.1 302.25,95" style="fill:rgb(163,163,163);fill-rule:nonzero;"/>
    </g>
    <g transform="matrix(0.147289,0,0,0.147289,0,0)">
        <path d="M529.16,181.86C503.8,181.86 482.48,165.13 482.48,139.23C482.48,115.49 498.13,104.42 527.27,96.87L564.51,87.16C563.43,78.26 556.41,73.94 545.08,73.94C535.04,73.94 527.82,77.78 524.49,85.46C523.56,87.6 521.33,88.86 519.05,88.32L489.54,81.3C486.82,80.65 485.23,77.75 486.2,75.13C494.67,52.21 518.21,40.2 546.69,40.2C585,40.2 607.13,58.28 607.13,90.11L607.13,174.47C607.13,177.06 605.03,179.15 602.45,179.15L569.88,179.15C567.34,179.15 565.26,177.12 565.2,174.58L565.04,167.55L564.77,167.82C553.71,177.26 542.92,181.85 529.15,181.85M540.21,148.12C545.88,148.12 550.19,146.5 556.67,142.72L564.22,138.13L564.49,116.27L545.06,121.67C531.84,125.45 525.9,128.69 525.9,136.24C525.9,144.6 533.18,148.11 540.2,148.11" style="fill:rgb(163,163,163);fill-rule:nonzero;"/>
    </g>
    <g transform="matrix(0.147289,0,0,0.147289,0,0)">
        <path d="M676.92,115.49L663.7,127.63L663.7,174.48C663.7,177.07 661.6,179.16 659.02,179.16L625.48,179.16C622.89,179.16 620.8,177.06 620.8,174.48L620.8,4.68C620.8,2.1 622.9,0 625.48,0L659.02,0C661.6,0 663.7,2.1 663.7,4.68L663.7,81.49L702.83,45.49C703.69,44.7 704.83,44.25 706,44.25L747.41,44.25C751.69,44.25 753.72,49.51 750.57,52.39L710.39,89.04L756.21,172.22C757.93,175.34 755.67,179.16 752.11,179.16L712.96,179.16C711.22,179.16 709.61,178.19 708.81,176.64L676.93,115.48L676.92,115.49Z" style="fill:rgb(163,163,163);fill-rule:nonzero;"/>
    </g>
    <g transform="matrix(0.147289,0,0,0.147289,0,0)">
        <path d="M819.25,182.13C781.75,182.13 747.48,158.66 747.48,111.17C747.48,66.38 780.4,40.48 816.55,40.48C852.7,40.48 881.31,66.65 882.38,107.93C882.5,112.29 882.57,115.33 882.61,117.49C882.65,120.11 880.54,122.23 877.93,122.23L790.65,122.23C792,138.42 804.95,148.67 821.41,148.67C833.12,148.67 842.72,143.8 849.45,135C850.94,133.05 853.69,132.6 855.73,133.97L877.53,148.57C879.71,150.03 880.25,152.99 878.78,155.16C867.1,172.35 847.84,182.13 819.26,182.13M791.47,95.79L838.69,95.79C838.42,80.41 827.09,73.67 815.22,73.67C804.16,73.67 792.83,80.15 791.48,95.79" style="fill:rgb(163,163,163);fill-rule:nonzero;"/>
    </g>
    <g transform="matrix(0.147289,0,0,0.147289,0,0)">
        <clipPath id="_clip1">
            <path d="M156.04,44.34L189.92,44.34C192.5,44.34 194.6,46.44 194.6,49.02L194.6,174.09C194.6,176.67 192.5,178.77 189.92,178.77L156.04,178.77C153.46,178.77 151.36,176.67 151.36,174.09L151.36,49.02C151.36,46.44 153.46,44.34 156.04,44.34Z"/>
        </clipPath>
        <g clip-path="url(#_clip1)">
            <g transform="matrix(0.938252,-0.345953,0.345953,0.938252,-27.91,66.73)">
                <rect x="129.45" y="41.01" width="87.08" height="141.09" style="fill:rgb(163,163,163);"/>
            </g>
        </g>
    </g>
    <g transform="matrix(0.147289,0,0,0.147289,0,0)">
        <clipPath id="_clip2">
            <path d="M56.66,45.99L0.5,157.74C-0.66,160.05 0.27,162.86 2.58,164.02L32.85,179.23C35.16,180.39 37.97,179.46 39.13,177.15L95.29,65.4C96.45,63.09 95.52,60.28 93.21,59.12L62.94,43.91C62.26,43.57 61.55,43.41 60.84,43.41C59.13,43.41 57.48,44.35 56.66,45.99"/>
        </clipPath>
        <g clip-path="url(#_clip2)">
            <g transform="matrix(0.917893,-0.396828,0.396828,0.917893,-40.48,28.2)">
                <rect x="-23.86" y="29.77" width="143.51" height="164.28" style="fill:rgb(163,163,163);"/>
            </g>
        </g>
    </g>
    <g transform="matrix(0.147289,0,0,0.147289,0,0)">
        <clipPath id="_clip3">
            <path d="M103.9,46.39L79.87,168.2C79.37,170.73 81.01,173.18 83.54,173.69L116.75,180.39C119.29,180.9 121.77,179.25 122.27,176.71L146.3,54.9C146.8,52.37 145.16,49.92 142.63,49.41L109.42,42.71C109.11,42.65 108.8,42.62 108.49,42.62C106.3,42.62 104.34,44.16 103.9,46.39"/>
        </clipPath>
        <g clip-path="url(#_clip3)">
            <g transform="matrix(0.938433,-0.345462,0.345462,0.938433,-31.65,45.95)">
                <rect x="57.56" y="35.23" width="111.05" height="153.08" style="fill:rgb(163,163,163);"/>
            </g>
        </g>
    </g>
</svg>
