<?xml version="1.0" encoding="UTF-8" standalone="no"?>
<!DOCTYPE svg PUBLIC "-//W3C//DTD SVG 1.1//EN" "http://www.w3.org/Graphics/SVG/1.1/DTD/svg11.dtd">
<svg width="100%" height="100%" viewBox="0 0 90 40" version="1.1" xmlns="http://www.w3.org/2000/svg" xmlns:xlink="http://www.w3.org/1999/xlink" xml:space="preserve" xmlns:serif="http://www.serif.com/" style="fill-rule:evenodd;clip-rule:evenodd;stroke-linejoin:round;stroke-miterlimit:2;">
    <g transform="matrix(0.0549572,0,0,0.0549572,9.87688,0.634793)">
        <g>
            <g id="logo_00000000191510179355603300000000900644234264969917_">
                <g>
                    <g transform="matrix(0.7071,-0.7071,0.7071,0.7071,-10.2144,362.487)">
                        <rect x="252.9" y="107.9" width="359.1" height="171.4" style="fill:rgb(163,163,163);"/>
                    </g>
                    <g transform="matrix(0.7071,-0.7071,0.7071,0.7071,71.3921,561.194)">
                        <rect x="534" y="108.7" width="358.2" height="171.4" style="fill:rgb(163,163,163);"/>
                    </g>
                    <g transform="matrix(0.7071,-0.7071,0.7071,0.7071,81.0606,725.341)">
                        <rect x="830.4" y="184.8" width="171.4" height="160.1" style="fill:rgb(163,163,163);"/>
                    </g>
                </g>
            </g>
        </g>
        <g>
            <path d="M191.4,694.9L191.4,530.7L124.8,694.8L108.5,694.8L42.2,530.7L42.2,694.8L4.2,694.8L4.2,478.1L57.8,478.1L116.6,624L175.8,478.1L229.4,478.1L229.4,694.9L191.4,694.9Z" style="fill:rgb(163,163,163);fill-rule:nonzero;"/>
            <path d="M429,694.9L413.1,653.3L310.3,653.3L294.4,694.9L252.8,694.9L338,478.1L385.5,478.1L470.7,694.9L429,694.9ZM361.7,510.2L321.1,619.7L402.4,619.7L361.7,510.2Z" style="fill:rgb(163,163,163);fill-rule:nonzero;"/>
            <path d="M618.2,694.9L570,613.9L532.3,613.9L532.3,694.8L494.3,694.8L494.3,478.1L589.5,478.1C632.4,478.1 660.4,506.1 660.4,546C660.4,584.7 635,605.5 609,609.7L662,694.9L618.2,694.9ZM584.4,511.5L532.4,511.5L532.4,580.4L584.4,580.4C605.9,580.4 621.5,566.8 621.5,545.9C621.4,525.2 605.8,511.5 584.4,511.5Z" style="fill:rgb(163,163,163);fill-rule:nonzero;"/>
            <path d="M698.4,694.9L698.4,478.1L736.4,478.1L736.4,661.4L832,661.4L832,694.9L698.4,694.9Z" style="fill:rgb(163,163,163);fill-rule:nonzero;"/>
            <path d="M948.2,474.5C1013.2,474.5 1059,522 1059,586.6C1059,651.2 1013.2,698.7 948.2,698.7C883.2,698.7 837.4,651.2 837.4,586.6C837.4,522 883.2,474.5 948.2,474.5ZM948.2,508.3C904.3,508.3 876.4,541.8 876.4,586.6C876.4,631.1 904.4,664.9 948.2,664.9C991.8,664.9 1020,631.1 1020,586.6C1020,541.8 991.7,508.3 948.2,508.3Z" style="fill:rgb(163,163,163);fill-rule:nonzero;"/>
            <path d="M1237.3,694.9L1124.2,536.9L1124.2,694.9L1086.2,694.9L1086.2,478.1L1125.2,478.1L1236,631.8L1236,478.1L1274,478.1L1274,694.9L1237.3,694.9Z" style="fill:rgb(163,163,163);fill-rule:nonzero;"/>
        </g>
    </g>
</svg>
