<svg width="186" height="80" viewBox="0 0 186 80" fill="none" xmlns="http://www.w3.org/2000/svg">
<path d="M25.5672 61.4451C22.7911 61.9326 19.9661 62.0788 17.0438 62.468L8.13037 36.3618V63.5885C5.35423 63.8806 2.82157 64.2703 0.191406 64.6599V14.7849H7.59493L17.7256 43.0836V14.7849H25.5672V61.4451ZM40.9097 33.0497C43.9297 33.0497 48.5567 32.9035 51.3328 32.9035V40.6963C47.8745 40.6963 43.8322 40.6963 40.9097 40.8425V52.4347C45.4882 52.1426 50.0666 51.7526 54.6934 51.6064V59.1067L33.1165 60.8118V14.7849H54.6934V22.5779H40.9097V33.0497ZM83.6735 22.5781H75.5884V58.4257C72.9582 58.4257 70.328 58.4257 67.7958 58.5228V22.5781H59.7106V14.7849H83.6739L83.6735 22.5781ZM96.337 32.5141H107.004V40.3069H96.337V57.9874H88.6896V14.7849H110.462V22.5779H96.337V32.5141ZM123.125 51.1683C127.558 51.2654 132.038 51.607 136.373 51.8501V59.5457C129.409 59.1071 122.444 58.6693 115.333 58.5228V14.7849H123.125V51.1683ZM142.949 60.0816C145.433 60.2279 148.063 60.3741 150.596 60.6658V14.7849H142.949V60.0816ZM184.739 14.7849L174.851 38.5048L184.739 64.6599C181.816 64.2703 178.894 63.7345 175.971 63.2473L170.37 48.8307L164.672 62.0788C161.847 61.5913 159.119 61.4451 156.295 61.0555L166.328 38.2123L157.269 14.7849H165.646L170.76 27.8869L176.215 14.7849H184.739V14.7849Z" fill="#163300"/>
</svg>
