<svg width="107" height="40" viewBox="0 0 107 40" fill="none" xmlns="http://www.w3.org/2000/svg">
<path d="M37.4677 28.9866V16.8877H37.6833L46.4901 28.9866H49.2615V11.2192H46.1822V23.2877H45.9666L37.1598 11.2192H34.3884V28.9866H37.4677ZM57.9759 29.2609C62.0406 29.2609 64.5348 26.64 64.5348 22.2515C64.5348 17.8934 62.0406 15.242 57.9759 15.242C53.942 15.242 51.417 17.8934 51.417 22.2515C51.4478 26.64 53.9112 29.2609 57.9759 29.2609ZM57.9759 26.7009C55.8204 26.7009 54.5887 25.0857 54.5887 22.2515C54.5887 19.4477 55.8204 17.802 57.9759 17.802C60.1314 17.802 61.3631 19.4477 61.3631 22.2515C61.3631 25.0857 60.1314 26.7009 57.9759 26.7009ZM67.337 12.2249V15.6078H65.1815V18.0458H67.337V25.3905C67.337 28.0114 68.5687 29.0476 71.7096 29.0476C72.2947 29.0476 72.8798 28.9866 73.3417 28.8952V26.5181C72.9721 26.5486 72.7258 26.579 72.2947 26.579C71.0014 26.579 70.4163 26 70.4163 24.6591V18.0458H73.3417V15.6078H70.4163V12.2249H67.337ZM75.1892 28.9866H78.2685V15.5163H75.1892V28.9866ZM76.7289 13.2916C77.7451 13.2916 78.5765 12.4687 78.5765 11.463C78.5765 10.4269 77.7451 9.60403 76.7289 9.60403C75.7127 9.60403 74.8813 10.4269 74.8813 11.463C74.8813 12.4687 75.7127 13.2916 76.7289 13.2916ZM86.7058 29.2609C90.7705 29.2609 93.2648 26.64 93.2648 22.2515C93.2648 17.8934 90.7705 15.242 86.7058 15.242C82.6719 15.242 80.1469 17.8934 80.1469 22.2515C80.1469 26.64 82.6104 29.2609 86.7058 29.2609ZM86.7058 26.7009C84.5503 26.7009 83.3186 25.0857 83.3186 22.2515C83.3186 19.4477 84.5503 17.802 86.7058 17.802C88.8306 17.802 90.0931 19.4477 90.0931 22.2515C90.0623 25.0857 88.8306 26.7009 86.7058 26.7009ZM95.0815 28.9866H98.1608V21.1544C98.1608 19.1734 99.331 17.9239 101.148 17.9239C103.026 17.9239 103.888 18.9601 103.888 21.002V28.9866H106.968V20.2706C106.968 17.0401 105.305 15.242 102.287 15.242C100.255 15.242 98.8999 16.1563 98.2532 17.6801H98.0377V15.5163H95.0508C95.0816 15.5163 95.0815 28.9866 95.0815 28.9866Z" fill="white" fill-opacity="0.7"/>
<path fill-rule="evenodd" clip-rule="evenodd" d="M4.86314 10.0821C5.75937 10.8051 6.08354 10.748 7.7616 10.6338L23.5697 9.68249C23.9129 9.68249 23.6269 9.34 23.5125 9.30195L20.881 7.41829C20.3852 7.03776 19.6987 6.58111 18.4211 6.69527L3.12787 7.81786C2.57487 7.87494 2.46046 8.16034 2.68929 8.36964L4.86314 10.0821ZM5.81658 13.7542V30.3456C5.81658 31.2399 6.25516 31.5634 7.26581 31.5063L24.6375 30.4979C25.6482 30.4408 25.7626 29.8319 25.7626 29.1089V12.6317C25.7626 11.9086 25.4766 11.5091 24.8664 11.5661L6.71281 12.6317C6.0454 12.6887 5.81658 13.0312 5.81658 13.7542ZM22.9595 14.6485C23.0739 15.1432 22.9595 15.6569 22.4637 15.714L21.6247 15.8852V28.1385C20.9 28.5191 20.2326 28.7474 19.6606 28.7474C18.7643 28.7474 18.5355 28.462 17.8681 27.6248L12.3953 19.0437V27.3394L14.1306 27.7199C14.1306 27.7199 14.1306 28.7284 12.7386 28.7284L8.88667 28.9567C8.77225 28.7284 8.88667 28.1766 9.26804 28.0624L10.2787 27.777V16.8176L8.88667 16.7034C8.77225 16.2087 9.05828 15.4857 9.84011 15.4286L13.978 15.1432L19.6796 23.8194V16.1516L18.2304 15.9804C18.116 15.3715 18.5736 14.9149 19.1266 14.8578L22.9595 14.6485ZM1.85026 6.29571L17.7728 5.13507C19.7178 4.96383 20.2326 5.07799 21.453 5.97225L26.5254 9.53027C27.3644 10.1391 27.6504 10.3104 27.6504 10.9763V30.5169C27.6504 31.7346 27.2118 32.4576 25.6482 32.5718L7.17047 33.6944C5.9882 33.7515 5.4352 33.5802 4.825 32.8001L1.06843 27.9483C0.401023 27.054 0.11499 26.3881 0.11499 25.608V8.23645C0.11499 7.22802 0.572643 6.40987 1.85026 6.29571Z" fill="white" fill-opacity="0.7"/>
</svg>
