<svg width="214" height="80" viewBox="0 0 214 80" fill="none" xmlns="http://www.w3.org/2000/svg">
<path fill-rule="evenodd" clip-rule="evenodd" d="M45.5243 19.4542C45.5794 19.4542 45.6374 19.4658 45.6937 19.4882C45.8547 19.5509 46.0087 19.6994 46.0708 19.9169C46.1128 20.2111 52.4591 63.2057 52.4591 63.2057L36.8667 67.0723V67.0719L36.8666 67.0719L0.890625 60.8518C0.890625 60.8518 5.17748 27.6917 5.26153 26.5149C5.47167 24.9599 5.5137 24.9179 7.15279 24.4135C7.22099 24.4135 8.72778 23.9432 11.0222 23.2271L11.0226 23.227L12.7425 22.6904C13.1208 20.2107 14.3396 17.0166 15.9366 14.4529C18.2482 10.8385 21.064 8.77914 23.8799 8.69508C25.3509 8.65306 26.5697 9.15739 27.5364 10.1661C27.5906 10.1932 27.6274 10.2379 27.6692 10.2887C27.6922 10.3166 27.7167 10.3464 27.7465 10.3762C27.9146 10.3342 28.0407 10.3342 28.2088 10.3342C30.3943 10.3342 32.2435 11.595 33.4623 13.9486C33.8405 14.7051 34.1347 15.4196 34.3029 16.008C35.3956 15.6717 36.068 15.4616 36.068 15.4616C36.2415 15.4038 36.614 15.3459 36.939 15.425C37.072 15.4435 37.2012 15.5114 37.3055 15.6074C37.3134 15.6146 37.3212 15.6221 37.3289 15.6297C37.6651 16.008 41.1534 19.3702 41.1534 19.3702C41.1534 19.3702 45.3142 19.4542 45.5243 19.4542ZM29.7218 17.4789C30.7305 17.1427 31.6551 16.8485 32.4957 16.5963C32.0754 15.1254 31.0247 12.6877 28.8812 12.3515C29.5117 14.0326 29.7218 16.05 29.7218 17.4789ZM21.8205 19.8745C23.8799 19.2441 25.9393 18.6137 27.8305 18.0253C27.8726 16.4703 27.7045 14.1587 26.8639 12.5196C26.0654 12.8559 25.3509 13.4442 24.8466 13.9906C23.5017 15.4616 22.4089 17.647 21.8205 19.8745ZM25.6451 11.0487C25.1828 10.7124 24.6364 10.5863 23.964 10.5863C19.6351 10.7124 15.8106 17.521 14.8019 22.102C15.1602 21.9925 15.5279 21.8807 15.9034 21.7665L15.9059 21.7657C17.1152 21.3979 18.405 21.0057 19.7192 20.589C20.2655 17.6891 21.6524 14.7051 23.4596 12.7718C24.1321 12.0153 24.8886 11.4269 25.6451 11.0487ZM26.4022 34.2478L28.2094 27.4813C28.2094 27.4813 26.6543 26.6827 23.5863 26.8929C15.685 27.3972 12.1127 32.9029 12.4489 38.3665C12.6851 42.0284 14.8338 43.5522 16.7149 44.8862C18.1802 45.9254 19.4832 46.8495 19.5936 48.5793C19.6777 49.5039 19.0473 50.8909 17.4082 50.9749C14.8865 51.143 11.6924 48.7474 11.6924 48.7474L10.4736 53.9169C10.4736 53.9169 13.6257 57.2791 19.3415 56.9849C24.1327 56.6907 27.4108 52.8662 27.0746 47.2764C26.7947 42.9763 23.7729 41.0331 21.385 39.4976C19.8288 38.4969 18.5418 37.6693 18.4589 36.4753C18.4589 35.9289 18.4589 33.7014 21.9892 33.4913C24.3848 33.3232 26.4022 34.2478 26.4022 34.2478ZM186.444 31.8112H181.484L181.737 30.6344C182.157 28.1968 183.586 26.0534 185.981 26.0534C187.242 26.0534 188.251 26.4316 188.251 26.4316L189.638 20.8419C189.638 20.8419 188.419 20.2115 185.771 20.2115C183.25 20.2115 180.728 20.926 178.795 22.5651C176.357 24.6244 175.222 27.6084 174.676 30.6344L174.466 31.8112H171.146L170.095 37.1908H173.415L169.633 57.112H176.735L180.518 37.1908H185.435L186.444 31.8112ZM91.5035 35.0473C93.3947 32.7778 95.8744 31.2648 99.0265 31.2648C102.767 31.2648 104.868 33.7024 104.826 37.7371C104.826 38.998 104.616 40.8472 104.322 42.4022L101.548 57.112H94.4454L97.1352 42.8645C97.3454 41.8979 97.4294 40.6791 97.4294 39.7124C97.4294 38.1574 96.799 37.0647 95.2019 37.0647C92.9324 37.0647 90.4948 39.9646 89.5702 44.6717L87.2166 57.112H80.1139L87.0485 20.7158H94.1512L91.4194 35.0053L91.5035 35.0473ZM70.8256 38.9556C70.8256 40.0903 71.7502 40.9309 73.5574 41.8975C76.3313 43.4946 78.6428 45.68 78.6848 48.7481C78.6848 54.4218 74.0617 57.5739 67.6735 57.5739C63.2606 57.5739 60.6548 55.8088 60.6548 55.8088L62.42 50.7654C62.42 50.7654 65.2779 52.3204 68.2619 52.3204C70.2792 52.3204 71.372 51.2277 71.372 49.8828C71.372 48.58 70.6154 47.6974 68.43 46.4786C65.7402 44.9235 63.7229 42.7801 63.7229 39.9222C63.7229 34.9209 68.0518 31.3485 74.2719 31.3485C78.7269 31.3485 80.2399 32.5253 80.2399 32.5253L78.6008 37.5686C78.6008 37.5686 76.4994 36.602 74.1458 36.602C72.1285 36.602 70.8256 37.5266 70.8256 38.9556ZM120.964 31.2642C112.391 31.2642 106.717 38.9973 106.717 47.6131C106.717 53.1187 110.121 57.5737 116.51 57.5737C124.915 57.5737 130.589 50.0507 130.589 41.2248C130.631 36.1394 127.647 31.2642 120.964 31.2642ZM117.476 52.1521C115.039 52.1521 114.03 50.0927 114.03 47.487C114.03 43.4103 116.131 36.7698 119.998 36.7698C122.52 36.7698 123.36 38.9553 123.36 41.0567C123.36 45.4276 121.217 52.1521 117.476 52.1521ZM141.307 35.509C141.307 35.509 144.039 31.2642 148.83 31.2642C154.041 31.2642 156.185 35.551 156.185 40.3422C156.185 49 150.721 57.5737 142.358 57.5737C139.668 57.5737 138.197 56.6491 138.197 56.6491H138.029L136.053 67.1981H128.951L133.91 41.1408C134.456 38.1988 135.045 34.2482 135.339 31.6845H141.643L141.223 35.509H141.307ZM139.079 51.1854C139.079 51.1854 140.172 52.2361 142.021 52.2361C146.014 52.2361 148.746 45.6798 148.746 41.0567C148.746 39.1654 148.073 37.1481 145.888 37.1481C143.408 37.1481 141.097 40.0901 140.256 44.545L139.079 51.1854ZM166.354 21.0519C164.085 21.0519 162.278 22.8591 162.278 25.1706C162.278 27.272 163.623 28.743 165.64 28.743H165.724C167.951 28.743 169.843 27.23 169.885 24.6242C169.885 22.5649 168.498 21.0519 166.354 21.0519ZM163.497 57.0696H156.394L161.185 31.8528H168.33L163.497 57.0696ZM197.161 49.2104C199.136 43.0743 203.591 31.8528 203.591 31.8528H211.03L202.33 50.5553C199.262 56.9435 196.236 61.6506 193 64.6767C190.478 67.0302 187.452 68.249 186.023 68.5432L184.048 62.4912C185.225 62.0709 186.738 61.4405 188.083 60.4739C189.722 59.3391 191.109 57.7841 191.949 56.187C192.159 55.8508 192.201 55.5146 192.117 55.0102L187.83 31.8528H195.311C195.311 31.8528 196.95 47.235 197.076 49.2104H197.161Z" fill="#163300"/>
</svg>
