<svg width="97" height="36" viewBox="0 0 97 36" fill="none" xmlns="http://www.w3.org/2000/svg">
<g clip-path="url(#clip0_665_1251)">
<path fill-rule="evenodd" clip-rule="evenodd" d="M21.0363 8.75445C21.061 8.75445 21.0871 8.75964 21.1125 8.7697C21.1849 8.79792 21.2542 8.86478 21.2822 8.96264C21.3011 9.09503 24.1569 28.4425 24.1569 28.4425L17.1403 30.1825V30.1823L17.1403 30.1823L0.951172 27.3833C0.951172 27.3833 2.88025 12.4613 2.91807 11.9317C3.01263 11.232 3.03155 11.2131 3.76913 10.9861C3.79982 10.9861 4.47788 10.7745 5.51038 10.4522L5.51053 10.4522L6.2845 10.2107C6.45471 9.09487 7.00317 7.65752 7.72185 6.50386C8.76204 4.87738 10.0292 3.95067 11.2963 3.91284C11.9583 3.89393 12.5067 4.12088 12.9417 4.57478C12.9661 4.58699 12.9827 4.60709 13.0015 4.62998C13.0118 4.64254 13.0229 4.65594 13.0363 4.66934C13.1119 4.65043 13.1687 4.65043 13.2443 4.65043C14.2277 4.65043 15.0599 5.21781 15.6084 6.27691C15.7786 6.61733 15.911 6.93884 15.9866 7.20362C16.4783 7.05232 16.7809 6.95776 16.7809 6.95776C16.859 6.93173 17.0266 6.9057 17.1729 6.94129C17.2327 6.94962 17.2909 6.98016 17.3378 7.02339C17.3414 7.02663 17.3449 7.02997 17.3483 7.03341C17.4996 7.20362 19.0694 8.71662 19.0694 8.71662C19.0694 8.71662 20.9417 8.75445 21.0363 8.75445ZM13.9251 7.86556C14.379 7.71426 14.7951 7.58187 15.1734 7.46839C14.9843 6.80646 14.5114 5.70953 13.5469 5.55823C13.8306 6.31473 13.9251 7.22253 13.9251 7.86556ZM10.3696 8.94357C11.2963 8.65988 12.223 8.3762 13.0741 8.11142C13.093 7.41166 13.0173 6.37147 12.6391 5.63388C12.2798 5.78518 11.9583 6.04996 11.7313 6.29582C11.1261 6.95776 10.6344 7.94121 10.3696 8.94357ZM12.0906 4.97194C11.8826 4.82064 11.6367 4.76391 11.3341 4.76391C9.38615 4.82064 7.66511 7.88447 7.21121 9.94593C7.37244 9.89667 7.53791 9.84634 7.70688 9.79496L7.70801 9.79461C8.25222 9.6291 8.83259 9.45259 9.42397 9.26508C9.66984 7.96012 10.2939 6.61733 11.1072 5.74736C11.4098 5.40693 11.7502 5.14216 12.0906 4.97194ZM12.4313 15.4115L13.2446 12.3666C13.2446 12.3666 12.5448 12.0073 11.1642 12.1018C7.60863 12.3288 6.00107 14.8063 6.15237 17.2649C6.25868 18.9128 7.22556 19.5985 8.07207 20.1988C8.73146 20.6664 9.31781 21.0822 9.3675 21.8607C9.40532 22.2767 9.12163 22.9009 8.38405 22.9387C7.2493 23.0143 5.81195 21.9363 5.81195 21.9363L5.26348 24.2626C5.26348 24.2626 6.68192 25.7756 9.25402 25.6432C11.41 25.5108 12.8852 23.7897 12.7339 21.2744C12.608 19.3393 11.2481 18.4649 10.1736 17.7739C9.4733 17.3236 8.89417 16.9512 8.85686 16.4139C8.85686 16.168 8.85686 15.1656 10.4455 15.0711C11.5235 14.9954 12.4313 15.4115 12.4313 15.4115ZM84.4498 14.3151H82.2181L82.3316 13.7855C82.5207 12.6886 83.1637 11.724 84.2417 11.724C84.8091 11.724 85.263 11.8943 85.263 11.8943L85.8871 9.37889C85.8871 9.37889 85.3386 9.0952 84.1472 9.0952C83.0124 9.0952 81.8776 9.41671 81.0077 10.1543C79.9107 11.081 79.4001 12.4238 79.1543 13.7855L79.0597 14.3151H77.5656L77.0928 16.7359H78.5869L76.8847 25.7004H80.081L81.7831 16.7359H83.9959L84.4498 14.3151ZM41.7268 15.7713C42.5779 14.75 43.6937 14.0692 45.1121 14.0692C46.7953 14.0692 47.741 15.1661 47.7221 16.9817C47.7221 17.5491 47.6275 18.3812 47.4951 19.081L46.2469 25.7004H43.0507L44.2611 19.289C44.3556 18.854 44.3935 18.3056 44.3935 17.8706C44.3935 17.1708 44.1098 16.6791 43.3911 16.6791C42.3698 16.6791 41.2729 17.9841 40.8568 20.1023L39.7977 25.7004H36.6015L39.7221 9.32214H42.9183L41.689 15.7524L41.7268 15.7713ZM32.4218 17.53C32.4218 18.0406 32.8378 18.4189 33.6511 18.8539C34.8993 19.5726 35.9395 20.556 35.9584 21.9366C35.9584 24.4898 33.878 25.9082 31.0033 25.9082C29.0175 25.9082 27.8449 25.1139 27.8449 25.1139L28.6393 22.8444C28.6393 22.8444 29.9253 23.5442 31.2681 23.5442C32.1759 23.5442 32.6676 23.0525 32.6676 22.4473C32.6676 21.861 32.3272 21.4638 31.3438 20.9153C30.1334 20.2156 29.2256 19.251 29.2256 17.965C29.2256 15.7144 31.1736 14.1068 33.9726 14.1068C35.9773 14.1068 36.6582 14.6364 36.6582 14.6364L35.9206 16.9059C35.9206 16.9059 34.975 16.4709 33.9159 16.4709C33.0081 16.4709 32.4218 16.887 32.4218 17.53ZM54.9842 14.0689C51.126 14.0689 48.5728 17.5488 48.5728 21.4259C48.5728 23.9034 50.1048 25.9081 52.9795 25.9081C56.762 25.9081 59.3151 22.5228 59.3151 18.5512C59.3341 16.2627 57.9913 14.0689 54.9842 14.0689ZM53.4144 23.4684C52.3175 23.4684 51.8636 22.5417 51.8636 21.3691C51.8636 19.5346 52.8092 16.5464 54.5492 16.5464C55.6839 16.5464 56.0622 17.5299 56.0622 18.4755C56.0622 20.4424 55.0977 23.4684 53.4144 23.4684ZM64.1383 15.9791C64.1383 15.9791 65.3676 14.0689 67.5236 14.0689C69.8688 14.0689 70.8333 15.998 70.8333 18.154C70.8333 22.05 68.3747 25.9081 64.6111 25.9081C63.4007 25.9081 62.7387 25.4921 62.7387 25.4921H62.6631L61.7742 30.2391H58.578L60.8097 18.5133C61.0555 17.1895 61.3203 15.4117 61.4527 14.258H64.2896L64.1004 15.9791H64.1383ZM63.1359 23.0334C63.1359 23.0334 63.6276 23.5062 64.4598 23.5062C66.2565 23.5062 67.4858 20.5559 67.4858 18.4755C67.4858 17.6244 67.1832 16.7166 66.1997 16.7166C65.0839 16.7166 64.0437 18.0405 63.6655 20.0452L63.1359 23.0334ZM75.4096 9.47337C74.3883 9.47337 73.575 10.2866 73.575 11.3268C73.575 12.2724 74.1803 12.9344 75.0881 12.9344H75.1259C76.1282 12.9344 76.9793 12.2535 76.9982 11.0809C76.9982 10.1542 76.3741 9.47337 75.4096 9.47337ZM74.1237 25.6813H70.9275L73.0835 14.3338H76.2987L74.1237 25.6813ZM89.2723 22.1446C90.1612 19.3834 92.1659 14.3338 92.1659 14.3338H95.5134L91.5985 22.7498C90.2179 25.6245 88.8562 27.7427 87.3999 29.1044C86.2652 30.1635 84.9035 30.712 84.2605 30.8444L83.3716 28.121C83.9011 27.9319 84.582 27.6482 85.1872 27.2132C85.9248 26.7026 86.5489 26.0028 86.9271 25.2841C87.0217 25.1328 87.0406 24.9815 87.0028 24.7546L85.0737 14.3338H88.4401C88.4401 14.3338 89.1777 21.2558 89.2344 22.1446H89.2723Z" fill="white" fill-opacity="0.7"/>
</g>
<defs>
<clipPath id="clip0_665_1251">
<rect width="96.3" height="36" fill="white" transform="translate(0.699219)"/>
</clipPath>
</defs>
</svg>
