<svg width="174" height="80" viewBox="0 0 174 80" fill="none" xmlns="http://www.w3.org/2000/svg">
<path fill-rule="evenodd" clip-rule="evenodd" d="M167.499 31.2879L160.678 24.4673H148.007V15.6948H137.284V55.6535H148.007V35.1858H156.777V55.6535H167.499V31.2879ZM133.388 24.4673H116.82L109.997 31.2879V48.8299L116.82 55.6535H133.388V44.934H120.717V35.1858H133.388V24.4673ZM106.099 24.4673H97.3289V15.6948H86.6065V48.8299L93.429 55.6535H106.099V44.934H97.3289V35.1858H106.099V24.4673ZM82.7081 15.6948H71.9886V20.5694H82.7081V15.6948ZM82.7081 24.4673H71.9886V55.653H82.7081V24.4673ZM68.0902 24.4673H57.3697V44.934H53.4724V24.4673H42.7514V44.934H38.8545V24.4673H28.132V55.6535H61.2691L68.0902 48.8299V24.4673ZM24.2336 24.4673H15.4631V15.6948H4.74264V48.8299L11.5647 55.6535H24.2336V44.934H15.4631V35.1858H24.2336V24.4673ZM171.394 29.3384V58.5756L156.777 68.3224H147.031V63.4478L140.209 68.3224H131.439V63.4478L126.568 68.3224H110.974L106.099 63.4478L105.123 68.3224H91.4811L85.9022 63.4478L85.5898 68.3224H70.1266L69.5798 63.4478L65.394 68.3224H41.7757L36.902 66.3729V68.3224H24.2336L9.61426 59.5489L0.84375 50.7819V11.7974H19.362L28.132 20.5694H68.0902V11.7974H101.226V20.5694H109.997V25.441L114.872 20.5694H124.616L133.388 11.7974H151.905V20.5694H162.626L171.394 29.3384Z" fill="#163300"/>
</svg>
