<svg width="30" height="30" viewBox="0 0 30 30" fill="none" xmlns="http://www.w3.org/2000/svg">
<path opacity="0.12" d="M10.0424 19.1518L9 26.9999L14.5061 23.6963C14.6857 23.5885 14.7755 23.5346 14.8713 23.5136C14.9561 23.495 15.0439 23.495 15.1287 23.5136C15.2245 23.5346 15.3143 23.5885 15.4939 23.6963L21 26.9999L19.9583 19.1484L19.6593 19.8704C19.4736 20.3187 19.1175 20.6748 18.6692 20.8605C18.221 21.0462 17.7173 21.0462 17.2691 20.8605L15.6996 20.2104C15.2513 20.0251 14.7478 20.0255 14.2999 20.2114L12.7292 20.8611C12.2812 21.0463 11.778 21.0462 11.3301 20.8607C10.8823 20.6751 10.5263 20.3194 10.3405 19.8716L10.0424 19.1518Z" fill="black"/>
<path d="M10.0424 19.1519L9 27L14.5061 23.6964C14.6857 23.5886 14.7755 23.5347 14.8713 23.5137C14.9561 23.4951 15.0439 23.4951 15.1287 23.5137C15.2245 23.5347 15.3143 23.5886 15.4939 23.6964L21 27L19.9583 19.1485M20.3111 5.69866C20.4964 6.14688 20.8521 6.50316 21.3 6.68917L22.8707 7.33978C23.319 7.52545 23.6751 7.88159 23.8608 8.32985C24.0464 8.77811 24.0464 9.28177 23.8608 9.73003L23.2106 11.2996C23.0249 11.7481 23.0246 12.2522 23.2112 12.7005L23.8602 14.2696C23.9523 14.4916 23.9996 14.7296 23.9997 14.97C23.9997 15.2103 23.9524 15.4483 23.8604 15.6703C23.7685 15.8924 23.6336 16.0941 23.4637 16.264C23.2937 16.434 23.0919 16.5687 22.8699 16.6606L21.3003 17.3108C20.8521 17.4961 20.4958 17.8519 20.3098 18.2998L19.6593 19.8705C19.4736 20.3188 19.1175 20.6749 18.6692 20.8606C18.221 21.0463 17.7173 21.0463 17.2691 20.8606L15.6996 20.2104C15.2513 20.0252 14.7478 20.0256 14.2999 20.2115L12.7292 20.8612C12.2812 21.0464 11.778 21.0463 11.3301 20.8607C10.8823 20.6752 10.5263 20.3195 10.3405 19.8717L9.68975 18.3005C9.50442 17.8523 9.14869 17.496 8.70076 17.31L7.1301 16.6594C6.68205 16.4738 6.32603 16.1179 6.14029 15.6699C5.95456 15.2219 5.95431 14.7185 6.13959 14.2703L6.78972 12.7007C6.97493 12.2524 6.97455 11.7489 6.78867 11.301L6.13948 9.72911C6.04743 9.50709 6.00004 9.26911 6 9.02877C5.99996 8.78843 6.04728 8.55044 6.13925 8.32839C6.23122 8.10634 6.36604 7.9046 6.53601 7.73468C6.70598 7.56476 6.90776 7.43 7.12983 7.33809L8.69937 6.68794C9.14718 6.50277 9.50324 6.14748 9.68937 5.70005L10.34 4.12933C10.5256 3.68107 10.8818 3.32493 11.33 3.13926C11.7782 2.95358 12.2819 2.95358 12.7301 3.13926L14.2997 3.7894C14.7479 3.97462 15.2514 3.97424 15.6993 3.78835L17.2707 3.14026C17.7189 2.95469 18.2224 2.95473 18.6705 3.14037C19.1187 3.32601 19.4748 3.68205 19.6605 4.13019L20.3113 5.70138L20.3111 5.69866Z" stroke="#163300" stroke-width="2" stroke-linecap="round" stroke-linejoin="round"/>
</svg>
