<svg width="30" height="30" viewBox="0 0 30 30" fill="none" xmlns="http://www.w3.org/2000/svg">
<path opacity="0.12" fill-rule="evenodd" clip-rule="evenodd" d="M27 15C27 21.6274 21.6274 27 15 27C8.37258 27 3 21.6274 3 15C3 8.37258 8.37258 3 15 3C21.6274 3 27 8.37258 27 15ZM20.4 17.4C20.4 19.4004 18.0006 21.6 15 21.6C11.9994 21.6 9.6 19.4004 9.6 17.4H20.4Z" fill="black"/>
<path d="M18.6 11.4H18.612M11.4 11.4H11.412M27 15C27 21.6274 21.6274 27 15 27C8.37258 27 3 21.6274 3 15C3 8.37258 8.37258 3 15 3C21.6274 3 27 8.37258 27 15ZM19.2 11.4C19.2 11.7314 18.9314 12 18.6 12C18.2686 12 18 11.7314 18 11.4C18 11.0686 18.2686 10.8 18.6 10.8C18.9314 10.8 19.2 11.0686 19.2 11.4ZM12 11.4C12 11.7314 11.7314 12 11.4 12C11.0686 12 10.8 11.7314 10.8 11.4C10.8 11.0686 11.0686 10.8 11.4 10.8C11.7314 10.8 12 11.0686 12 11.4ZM15 21.6C18.0006 21.6 20.4 19.4004 20.4 17.4H9.6C9.6 19.4004 11.9994 21.6 15 21.6Z" stroke="#163300" stroke-width="2" stroke-linecap="round" stroke-linejoin="round"/>
</svg>
