<svg width="30" height="30" viewBox="0 0 30 30" fill="none" xmlns="http://www.w3.org/2000/svg">
<g opacity="0.12">
<path d="M23.0194 23.9263C20.8939 25.8373 18.0823 27.0002 14.999 27.0002C11.9157 27.0002 9.10397 25.8373 6.97852 23.9263C7.70851 22.2064 9.41287 21.0002 11.399 21.0002H18.599C20.5851 21.0002 22.2894 22.2064 23.0194 23.9263Z" fill="black"/>
<path d="M14.9988 16.8002C17.6498 16.8002 19.7988 14.6512 19.7988 12.0002C19.7988 9.34923 17.6498 7.2002 14.9988 7.2002C12.3479 7.2002 10.1988 9.34923 10.1988 12.0002C10.1988 14.6512 12.3479 16.8002 14.9988 16.8002Z" fill="black"/>
</g>
<path d="M6.97955 23.9261C7.70954 22.2062 9.41391 21 11.4 21H18.6C20.5861 21 22.2905 22.2062 23.0204 23.9261M19.8 12C19.8 14.651 17.651 16.8 15 16.8C12.349 16.8 10.2 14.651 10.2 12C10.2 9.34903 12.349 7.2 15 7.2C17.651 7.2 19.8 9.34903 19.8 12ZM27 15C27 21.6274 21.6274 27 15 27C8.37258 27 3 21.6274 3 15C3 8.37258 8.37258 3 15 3C21.6274 3 27 8.37258 27 15Z" stroke="#163300" stroke-width="2" stroke-linecap="round" stroke-linejoin="round"/>
</svg>
