<svg width="18" height="19" viewBox="0 0 18 19" fill="none" xmlns="http://www.w3.org/2000/svg">
<path opacity="0.12" d="M14.2498 8L14.5628 6.90467C14.7111 6.38538 14.7853 6.12573 14.727 5.92031C14.676 5.74036 14.5595 5.58599 14.4006 5.48747C14.219 5.375 13.949 5.375 13.4089 5.375L4.59069 5.375C4.05062 5.375 3.78058 5.375 3.59908 5.48747C3.44008 5.58599 3.32363 5.74036 3.27258 5.92031C3.21431 6.12573 3.28849 6.38537 3.43686 6.90467L3.74981 8L14.2498 8Z" fill="#163300"/>
<path d="M14.2501 8L3.75013 8M14.2501 8L15.6482 10.3302C15.9616 10.8524 16.1182 11.1135 16.1996 11.3946C16.2717 11.6437 16.3002 11.9033 16.2839 12.1621C16.2654 12.4541 16.1691 12.743 15.9765 13.3208L15.8207 13.7884C15.5256 14.6736 15.3781 15.1162 15.1044 15.4434C14.8628 15.7323 14.5525 15.956 14.2019 16.0939C13.805 16.25 13.3384 16.25 12.4054 16.25L5.59486 16.25C4.66181 16.25 4.19528 16.25 3.79832 16.0939C3.44778 15.956 3.13747 15.7323 2.89583 15.4434C2.62219 15.1162 2.47466 14.6736 2.1796 13.7884L2.02373 13.3208C1.83114 12.743 1.73484 12.4541 1.71639 12.1621C1.70004 11.9033 1.72854 11.6437 1.80064 11.3946C1.88201 11.1135 2.03867 10.8524 2.35201 10.3302L3.75013 8M14.2501 8L14.5631 6.90466C14.7114 6.38537 14.7856 6.12573 14.7274 5.92031C14.6763 5.74036 14.5599 5.58599 14.4009 5.48747C14.2194 5.375 13.9493 5.375 13.4093 5.375L4.591 5.375C4.05093 5.375 3.7809 5.375 3.59939 5.48747C3.44039 5.58599 3.32395 5.74036 3.2729 5.92031C3.21462 6.12573 3.28881 6.38537 3.43717 6.90467L3.75013 8M9.00013 5.375H6.34834C5.95762 5.375 5.5829 5.21696 5.30662 4.93566C5.03034 4.65436 4.87513 4.27282 4.87513 3.875C4.87513 3.47718 5.03034 3.09564 5.30662 2.81434C5.5829 2.53304 5.95762 2.375 6.34834 2.375C8.41084 2.375 9.00013 5.375 9.00013 5.375ZM9.00013 5.375H11.6519C12.0426 5.375 12.4174 5.21696 12.6936 4.93566C12.9699 4.65436 13.1251 4.27282 13.1251 3.875C13.1251 3.47718 12.9699 3.09564 12.6936 2.81434C12.4174 2.53304 12.0426 2.375 11.6519 2.375C9.58941 2.375 9.00013 5.375 9.00013 5.375Z" stroke="#163300" stroke-width="1.66667" stroke-linecap="round" stroke-linejoin="round"/>
</svg>
