<?xml version="1.0" encoding="UTF-8" standalone="no"?>
<!DOCTYPE svg PUBLIC "-//W3C//DTD SVG 1.1//EN" "http://www.w3.org/Graphics/SVG/1.1/DTD/svg11.dtd">
<svg width="100%" height="100%" viewBox="0 0 141 15" version="1.1" xmlns="http://www.w3.org/2000/svg" xmlns:xlink="http://www.w3.org/1999/xlink" xml:space="preserve" xmlns:serif="http://www.serif.com/" style="fill-rule:evenodd;clip-rule:evenodd;stroke-linejoin:round;stroke-miterlimit:2;">
    <g transform="matrix(0.19489,0,0,0.19489,0.321251,1.8482)">
        <path d="M96,1L77,1L77,57L96,57C110.48,57 119.84,50.44 119.84,33.24L119.84,23.92C119.79,7.52 110.27,1 96,1ZM111.79,32.8C111.79,44.88 106.79,49.52 95.79,49.52L85,49.52L85,8.4L95.8,8.4C106.8,8.4 111.8,13.04 111.8,24.32L111.79,32.8ZM162.94,1L170.94,1L170.94,36C170.94,49.52 163.26,58 149.82,58C136.38,58 128.7,49.52 128.7,36L128.7,1L136.7,1L136.7,35.28C136.7,44.56 141.18,50.48 149.82,50.48C158.46,50.48 162.94,44.56 162.94,35.28L162.94,1ZM220.94,41.24C220.94,53.56 210.94,57.96 200.22,57.96C185.22,57.96 179.42,49.56 179.42,38.2L187.42,38.2C187.42,45.88 190.42,50.68 200.3,50.68C206.86,50.68 212.94,48.84 212.94,41.4C212.94,36.2 209.42,33.88 202.38,32.52L196.06,31.32C184.94,29.24 180.54,23.16 180.54,15.4C180.53,4.24 189.89,0 200.37,0C213.17,0 220.37,6.16 220.37,17.76L212.37,17.76C212.37,10.24 208.45,7.28 200.37,7.28C193.65,7.28 188.53,9.2 188.53,15.12C188.53,19.52 191.25,22.4 197.65,23.6L204,24.8C215.25,27 220.93,31.92 220.93,41.2L220.94,41.24ZM225.19,1L271.12,1L271.12,8.4L252.12,8.4L252.12,57L244.12,57L244.12,8.4L225.12,8.4L225.19,1ZM320.56,17.72C320.56,7.36 313.6,1 303,1L278.71,1L278.71,57L286.71,57L286.71,34.72L297.6,34.72L310.72,57L320.08,57L306.31,34.2C315.35,32.88 320.56,27.28 320.56,17.68L320.56,17.72ZM302.4,27.52L286.71,27.52L286.71,8.24L302.64,8.24C308.56,8.24 312.48,11.44 312.48,17.68C312.48,23.92 308.56,27.52 302.4,27.52ZM332.11,1L340.11,1L340.11,57L332.11,57L332.11,1ZM352.4,1L390.4,1L390.4,8.4L360.4,8.4L360.4,24.72L388.8,24.72L388.8,31.92L360.4,31.92L360.4,49.52L390.4,49.52L390.4,57L352.4,57L352.4,1ZM439.76,1L447.68,1L447.68,57L436.24,57L408.56,10.4L408.56,57L400.64,57L400.64,1L412.08,1L439.76,47.88L439.76,1ZM497.92,41.2C497.92,53.52 487.92,57.92 477.2,57.92C462.2,57.92 456.4,49.52 456.4,38.16L464.4,38.16C464.4,45.84 467.4,50.64 477.28,50.64C483.84,50.64 489.92,48.8 489.92,41.36C489.92,36.16 486.4,33.84 479.36,32.48L473,31.28C461.88,29.2 457.48,23.12 457.48,15.36C457.52,4.24 466.88,0 477.36,0C490.16,0 497.36,6.16 497.36,17.76L489.36,17.76C489.36,10.24 485.44,7.28 477.36,7.28C470.64,7.28 465.52,9.2 465.52,15.12C465.52,19.52 468.24,22.4 474.64,23.6L481,24.8C492.24,27 497.92,31.92 497.92,41.2ZM588,0C576.4,0 566.16,6.8 566.16,23.2L566.16,33.92C566.16,51.12 576.4,57.92 588,57.92C599.6,57.92 609.84,51.12 609.84,33.92L609.84,23.2C609.79,6.8 599.55,0 588,0ZM601.84,33.52C601.84,45.76 596.08,50.52 588,50.52C579.92,50.52 574.11,46 574.11,33.76L574.11,23.36C574.11,11.92 579.87,7.44 587.95,7.44C596.03,7.44 601.79,11.92 601.79,23.36L601.84,33.52ZM658.43,1L666.35,1L666.35,57L654.91,57L627.23,10.4L627.23,57L619.31,57L619.31,1L630.75,1L658.43,47.88L658.43,1ZM696.35,1L677.35,1L677.35,57L696.35,57C710.83,57 720.19,50.44 720.19,33.24L720.19,23.92C720.19,7.52 710.67,1 696.35,1ZM712.19,32.8C712.19,44.88 707.19,49.52 696.19,49.52L685.39,49.52L685.39,8.4L696.19,8.4C707.19,8.4 712.19,13.04 712.19,24.32L712.19,32.8ZM58,1L66,1L66,57L54.51,57L26.83,10.4L26.83,57L18.91,57L18.91,1L30.35,1L58,47.84L58,1ZM0,1L8,1L8,17L0,17L0,1ZM0,41L8,41L8,57L0,57L0,41ZM536.14,25L552.14,25L552.14,33L536.14,33L536.14,25ZM528.14,1L560.14,1L560.14,9L528.14,9L528.14,1ZM528.14,41L536.14,41L536.14,57L528.14,57L528.14,41Z" style="fill:white;fill-opacity:0.7;fill-rule:nonzero;"/>
    </g>
</svg>
