<?xml version="1.0" encoding="UTF-8" standalone="no"?>
<!DOCTYPE svg PUBLIC "-//W3C//DTD SVG 1.1//EN" "http://www.w3.org/Graphics/SVG/1.1/DTD/svg11.dtd">
<svg width="100%" height="100%" viewBox="0 0 125 40" version="1.1" xmlns="http://www.w3.org/2000/svg" xmlns:xlink="http://www.w3.org/1999/xlink" xml:space="preserve" xmlns:serif="http://www.serif.com/" style="fill-rule:evenodd;clip-rule:evenodd;stroke-linejoin:round;stroke-miterlimit:2;">
    <g transform="matrix(0.190913,0,0,0.190913,2.05515,0.12562)">
        <g id="logo">
            <path d="M335.75,2.27L335.75,137.82L419.07,137.82L419.07,107.43L368.61,107.43L368.61,2.27L335.75,2.27ZM243.46,0C224.816,-0.249 206.859,7.141 193.79,20.44C180.2,33.88 173.31,50.54 173.31,70C173.31,89.46 180.14,106.2 193.62,119.7C207.1,133.2 223.86,139.95 243.12,139.95C262.38,139.95 279.12,133.08 292.44,119.53C306,105.87 312.93,89 312.93,69.43C312.93,50.01 306.09,33.43 292.62,20.09C279.15,6.75 262.6,0 243.46,0ZM268.93,97.14C261.8,104.91 253.37,108.65 243.12,108.65C232.87,108.65 224.4,104.89 217.31,97.16C210.483,89.691 206.745,79.898 206.86,69.78C206.701,59.711 210.448,49.961 217.31,42.59C224.4,34.85 232.84,31.09 243.12,31.09C253.4,31.09 261.83,34.85 268.93,42.59C275.788,49.963 279.532,59.712 279.37,69.78C279.493,79.892 275.758,89.68 268.93,97.14ZM437.93,2.27L470.97,2.27L470.97,137.82L437.93,137.82L437.93,2.27ZM612.91,20.09C599.44,6.76 582.9,0 563.76,0C545.116,-0.249 527.159,7.141 514.09,20.44C500.5,33.88 493.6,50.54 493.6,70C493.6,89.46 500.44,106.19 513.92,119.7C527.4,133.21 544.16,139.95 563.41,139.95C582.66,139.95 599.41,133.08 612.73,119.53C626.33,105.91 633.22,89.07 633.22,69.47C633.22,50 626.39,33.41 612.91,20.09ZM589.23,97.14C582.13,104.88 573.68,108.64 563.41,108.64C553.14,108.64 544.7,104.88 537.61,97.15C530.778,89.684 527.04,79.889 527.16,69.77C527.001,59.705 530.744,49.96 537.6,42.59C544.7,34.85 553.14,31.09 563.41,31.09C573.68,31.09 582.13,34.85 589.22,42.59C596.082,49.961 599.829,59.711 599.67,69.78C599.793,79.892 596.058,89.68 589.23,97.14ZM0,168.21L151.63,168.21L151.63,198.6L0,198.6L0,168.21ZM117.18,2.27L75.81,54.92L34.45,2.27L0,2.27L0,137.82L33.04,137.82L33.04,53.41L75.81,104.89L118.59,53.41L118.59,137.82L151.63,137.82L151.63,2.27L117.18,2.27ZM173.31,171.29L177.47,171.29L185.27,193.13L186.27,193.13L194.07,171.29L198.22,171.29L188.87,197.29L182.63,197.29L173.31,171.29ZM203.66,161.41L208.08,161.41L208.08,165.83L203.66,165.83L203.66,161.41ZM203.92,171.29L207.82,171.29L207.82,197.29L203.92,197.29L203.92,171.29ZM235.3,193.65L235,193.65C233.092,196.33 229.969,197.892 226.68,197.81C219.87,197.81 214.68,192.35 214.68,184.29C214.68,176.23 219.83,170.77 226.68,170.77C229.969,170.688 233.092,172.25 235,174.93L235.26,174.93L235.26,160.93L239.16,160.93L239.16,197.33L235.78,197.33L235.3,193.65ZM235.3,184.29C235.3,178.29 231.4,174.41 226.98,174.41C222.56,174.41 218.66,178.31 218.66,184.29C218.66,190.27 222.56,194.17 226.98,194.17C231.4,194.17 235.3,190.27 235.3,184.29ZM269.79,190C268.265,194.817 263.657,198.031 258.61,197.8C251.61,197.8 246.13,192.34 246.13,184.28C246.13,176.22 251.59,170.76 258.61,170.76C265.42,170.76 270.61,175.96 270.61,183.24C270.603,183.989 270.55,184.737 270.45,185.48L270.35,186.1L250,186.1C250.57,191.04 254.21,194.16 258.58,194.16C261.522,194.266 264.267,192.635 265.58,190L269.79,190ZM266.67,182.46C266.41,177.73 263.03,174.4 258.61,174.4C253.88,174.4 250.61,177.73 250.03,182.46L266.67,182.46ZM277.25,171.29L280.63,171.29L281.15,174.15L281.4,174.15C281.949,173.495 282.601,172.935 283.33,172.49C285.076,171.355 287.117,170.757 289.2,170.77C295.2,170.77 299.6,175.19 299.6,181.69L299.6,197.29L295.7,197.29L295.7,181.69C295.703,181.613 295.704,181.537 295.704,181.46C295.704,177.61 292.55,174.435 288.7,174.41C284.654,174.387 281.283,177.646 281.17,181.69L281.17,197.29L277.27,197.29L277.25,171.29ZM307.16,192.61L311.84,192.61L309.5,201.45L306.12,201.45L307.16,192.61ZM349.23,193.65L349,193.65C347.092,196.33 343.969,197.892 340.68,197.81C333.87,197.81 328.68,192.35 328.68,184.29C328.68,176.23 333.83,170.77 340.68,170.77C343.969,170.688 347.092,172.25 349,174.93L349.26,174.93L349.26,160.93L353.16,160.93L353.16,197.33L349.78,197.33L349.23,193.65ZM349.23,184.29C349.23,178.29 345.33,174.41 340.91,174.41C336.49,174.41 332.59,178.31 332.59,184.29C332.59,190.27 336.49,194.17 340.91,194.17C345.33,194.17 349.23,190.27 349.23,184.29ZM361.62,171.29L365.52,171.29L365.52,186.89C365.517,186.967 365.516,187.043 365.516,187.12C365.516,190.97 368.67,194.145 372.52,194.17C376.568,194.193 379.941,190.936 380.06,186.89L380.06,171.29L384,171.29L384,197.29L380.6,197.29L380.08,194.43L379.82,194.43C379.253,195.11 378.577,195.691 377.82,196.15C376.086,197.264 374.061,197.842 372,197.81C366,197.81 361.6,193.39 361.6,186.89L361.62,171.29ZM404.27,160.89L408.17,160.89L408.17,174.89L408.43,174.89C410.338,172.21 413.461,170.648 416.75,170.73C423.56,170.73 428.75,176.19 428.75,184.25C428.75,192.31 423.6,197.77 416.75,197.77C413.461,197.852 410.338,196.29 408.43,193.61L408.17,193.61L407.65,197.25L404.27,197.25L404.27,160.89ZM424.81,184.29C424.81,178.29 420.91,174.41 416.49,174.41C412.07,174.41 408.17,178.31 408.17,184.29C408.17,190.27 412.07,194.17 416.49,194.17C420.91,194.17 424.81,190.27 424.81,184.29ZM434.61,204.05L439.54,204.05C440.423,203.992 441.167,203.354 441.36,202.49L442.36,199.37L431.71,171.29L435.87,171.29L443.87,192.87L444.87,192.87L452.15,171.29L456.31,171.29L444.61,204.05C443.78,206.49 442.61,207.69 439.67,207.69L434.48,207.69L434.61,204.05ZM464.42,199.37C464.68,202.02 467.23,204.57 472.22,204.57C476.95,204.57 480.02,201.71 480.02,197.29L480.02,192.61L479.76,192.61C477.657,194.985 474.611,196.317 471.44,196.25C464.63,196.25 459.44,191.05 459.44,183.51C459.44,175.97 464.59,170.77 471.44,170.77C474.659,170.742 477.722,172.178 479.76,174.67L480,174.67L480.52,171.29L483.9,171.29L483.9,197.29C483.9,203.79 479.48,208.21 472.2,208.21C464.92,208.21 460.76,203.79 460.5,199.37L464.42,199.37ZM480,183.51C480,178.05 476.36,174.41 471.68,174.41C467,174.41 463.36,178.05 463.36,183.51C463.36,188.97 467,192.61 471.68,192.61C476.36,192.61 480,189 480,183.51ZM495.53,199.37C495.79,202.02 498.34,204.57 503.33,204.57C508.06,204.57 511.13,201.71 511.13,197.29L511.13,192.61L510.87,192.61C508.767,194.985 505.721,196.317 502.55,196.25C495.74,196.25 490.55,191.05 490.55,183.51C490.55,175.97 495.7,170.77 502.55,170.77C505.769,170.742 508.832,172.178 510.87,174.67L511.13,174.67L511.65,171.29L515,171.29L515,197.29C515,203.79 510.58,208.21 503.3,208.21C496.02,208.21 491.86,203.79 491.6,199.37L495.53,199.37ZM511.13,183.51C511.13,178.05 507.49,174.41 502.81,174.41C498.13,174.41 494.49,178.05 494.49,183.51C494.49,188.97 498.13,192.61 502.81,192.61C507.49,192.61 511.13,189 511.13,183.51ZM545.5,190C543.979,194.815 539.375,198.03 534.33,197.8C527.33,197.8 521.85,192.34 521.85,184.28C521.85,176.22 527.31,170.76 534.33,170.76C541.14,170.76 546.28,175.96 546.28,183.24C546.276,183.989 546.225,184.737 546.13,185.48L546.02,186.1L525.75,186.1C526.32,191.04 529.96,194.16 534.33,194.16C537.274,194.273 540.022,192.64 541.33,190L545.5,190ZM542.38,182.46C542.12,177.73 538.75,174.4 534.38,174.4C529.65,174.4 526.38,177.73 525.8,182.46L542.38,182.46ZM553,171.29L556.38,171.29L556.9,173.89L557.16,173.89C558.144,172.124 560.087,171.102 562.1,171.29L566.52,171.29L566.52,174.93L562.62,174.93C558.93,174.93 556.9,176.93 556.9,180.65L556.9,197.29L553,197.29L553,171.29ZM581.83,171.29L585.21,171.29L585.73,174.93L586,174.93C587.908,172.25 591.031,170.688 594.32,170.77C601.13,170.77 606.32,176.23 606.32,184.29C606.32,192.35 601.17,197.81 594.32,197.81C591.031,197.892 587.908,196.33 586,193.65L585.74,193.65L585.74,207.65L581.84,207.65L581.83,171.29ZM602.37,184.29C602.37,178.29 598.47,174.41 594.05,174.41C589.63,174.41 585.73,178.31 585.73,184.29C585.73,190.27 589.63,194.17 594.05,194.17C598.47,194.17 602.37,190.27 602.37,184.29ZM629.32,194.17L629.06,194.17C628.558,194.89 627.923,195.507 627.19,195.99C625.387,197.269 623.208,197.91 621,197.81C615.54,197.81 611.91,194.48 611.91,189.75C611.91,184.75 615.02,181.43 622.3,181.43L629.3,181.43L629.3,180.65C629.3,176.65 627.01,174.41 623.06,174.41C619.11,174.41 616.82,176.49 616.56,178.83L612.66,178.83C612.93,174.67 616.56,170.77 623.06,170.77C629.35,170.77 633.2,174.36 633.2,180.65L633.2,197.29L629.82,197.29L629.32,194.17ZM629.32,185.07L622.32,185.07C617.59,185.07 615.83,187.2 615.83,189.75C615.83,192.3 617.64,194.17 621.02,194.17C626.22,194.17 629.34,191.1 629.34,186.11L629.32,185.07ZM623.08,158.3C625.647,158.3 627.76,160.413 627.76,162.98C627.76,165.547 625.647,167.66 623.08,167.66C620.52,167.66 618.411,165.56 618.4,163C618.399,162.963 618.399,162.926 618.399,162.889C618.399,160.371 620.471,158.299 622.989,158.299C623.019,158.299 623.05,158.299 623.08,158.3ZM625.16,162.97C625.16,161.829 624.221,160.89 623.08,160.89C621.939,160.89 621,161.829 621,162.97C621,164.111 621.939,165.05 623.08,165.05L623.11,165.05C624.235,165.05 625.16,164.125 625.16,163L625.16,162.97Z" style="fill:white;fill-opacity:0.7;fill-rule:nonzero;"/>
        </g>
    </g>
</svg>
