<?xml version="1.0" encoding="UTF-8" standalone="no"?>
<!DOCTYPE svg PUBLIC "-//W3C//DTD SVG 1.1//EN" "http://www.w3.org/Graphics/SVG/1.1/DTD/svg11.dtd">
<svg width="100%" height="100%" viewBox="0 0 65 40" version="1.1" xmlns="http://www.w3.org/2000/svg" xmlns:xlink="http://www.w3.org/1999/xlink" xml:space="preserve" xmlns:serif="http://www.serif.com/" style="fill-rule:evenodd;clip-rule:evenodd;stroke-linejoin:round;stroke-miterlimit:2;">
    <g transform="matrix(0.215313,0,0,0.215313,0,0.802125)">
        <g opacity="0.7">
            <g transform="matrix(1,0,0,1,9.24326,3.1128)">
                <path d="M99,79.4C95.7,79.4 92.9,82.1 92.9,85.9C92.9,89.8 95.7,92.5 99,92.5C102.3,92.5 105.1,89.7 105.1,85.9C105.1,82.1 102.3,79.4 99,79.4Z" style="fill:white;fill-rule:nonzero;"/>
                <path d="M68.6,78.7C66,78.7 63.5,80.4 63.1,83.6L74,83.6C73.9,80.6 71.2,78.7 68.6,78.7Z" style="fill:white;fill-rule:nonzero;"/>
                <path d="M143.4,79.4C140.1,79.4 137.3,82.2 137.3,85.9C137.3,89.7 140.1,92.5 143.4,92.5C146.7,92.5 149.5,89.7 149.5,85.9C149.5,82.1 146.7,79.4 143.4,79.4Z" style="fill:white;fill-rule:nonzero;"/>
                <path d="M174.8,79.4C171.5,79.4 168.7,82.1 168.7,85.9C168.7,89.8 171.5,92.5 174.8,92.5C178.1,92.5 180.9,89.7 180.9,85.9C180.9,82.1 178.2,79.4 174.8,79.4Z" style="fill:white;fill-rule:nonzero;"/>
                <path d="M40,70L32.3,70L32.3,79.5L40,79.5C42.9,79.5 44.9,77.4 44.9,74.5C45,71.8 43.1,70 40,70Z" style="fill:white;fill-rule:nonzero;"/>
                <path d="M247.6,79.4C244.3,79.4 241.5,82.1 241.5,85.9C241.5,89.8 244.3,92.5 247.6,92.5C250.9,92.5 253.7,89.7 253.7,85.9C253.7,82.1 250.9,79.4 247.6,79.4Z" style="fill:white;fill-rule:nonzero;"/>
                <path d="M141.7,12.4C62.8,-13.2 0,12.4 0,12.4L0,159.7C0,159.7 62.8,134.1 141.7,159.7C220.7,185.3 283.4,159.7 283.4,159.7L283.4,12.4C283.5,12.4 220.7,38 141.7,12.4ZM45.2,99.6L38.3,86.4L32.3,86.4L32.3,99.6L24,99.6L24,62.9L40,62.9C48,62.9 53.4,66.6 53.4,74.4C53.4,79.6 50.3,83.1 46.3,84.9L54.7,99.6L45.2,99.6ZM82.3,88L63,88C63.2,91.4 65.9,93.4 68.7,93.4C71.1,93.4 72.9,92.3 73.9,90.5L81.9,90.5C80.5,96.3 75.3,100 68.4,100C60.3,100 54.6,94.2 54.6,86.1C54.6,78 60.6,71.9 68.6,71.9C76.6,71.9 82.3,78 82.3,86.1C82.4,86.8 82.3,87.3 82.3,88ZM112.9,99.6L105.2,99.6L105.2,96.5C103.3,98.7 100.7,100.1 97.5,100.1C90.5,100.1 85,94.1 85,86C85,78 90.7,72 97.7,72C100.8,72 103.4,73.2 105.2,75.3L105.2,72.4L112.9,72.4L112.9,99.6ZM126,99.6L118,99.6L118,62.9L126,62.9L126,99.6ZM157.3,99.6L149.6,99.6L149.6,96.5C147.7,98.7 145.1,100.1 141.9,100.1C134.9,100.1 129.4,94.1 129.4,86C129.4,78 135.2,72 142.1,72C145.1,72 147.5,73.1 149.3,75.1L149.3,62.9L157.3,62.9L157.3,99.6ZM188.7,99.6L181,99.6L181,96.5C179.1,98.7 176.5,100.1 173.3,100.1C166.3,100.1 160.8,94.1 160.8,86C160.8,78 166.5,72 173.5,72C176.6,72 179.2,73.2 181,75.3L181,72.4L188.7,72.4L188.7,99.6ZM217.5,99.6L209.5,99.6L209.5,83.1C209.5,80.3 207.7,79.1 205.7,79.1C203.7,79.1 201.7,80.3 201.7,82.9L201.7,99.6L193.7,99.6L193.7,72.4L201.5,72.4L201.5,75.8C202.3,74.2 204.8,72 208.6,72C214.1,72 217.5,75.5 217.5,81.4L217.5,99.6ZM230,99.6L222,99.6L222,72.4L230,72.4L230,99.6ZM226.1,69.9C223.8,69.9 221.8,67.8 221.8,65.5C221.8,63.1 223.8,61.1 226.1,61.1C228.4,61.1 230.4,63.2 230.4,65.5C230.5,67.8 228.5,69.9 226.1,69.9ZM261.5,99.6L253.8,99.6L253.8,96.5C251.9,98.7 249.3,100.1 246.1,100.1C239.1,100.1 233.6,94.1 233.6,86C233.6,78 239.3,72 246.3,72C249.4,72 252,73.2 253.8,75.3L253.8,72.4L261.5,72.4L261.5,99.6Z" style="fill:white;fill-rule:nonzero;"/>
            </g>
        </g>
    </g>
</svg>
